  0
SECTION
  2
HEADER
  9
$ACADVER
  1
AC1015
  9
$ACADMAINTVER
 70
     6
  9
$DWGCODEPAGE
  3
ANSI_1252
  9
$INSBASE
 10
0.0
 20
0.0
 30
0.0
  9
$EXTMIN
 10
0.5
 20
0.0
 30
0.0
  9
$EXTMAX
 10
159.5
 20
41.0
 30
0.0
  9
$LIMMIN
 10
0.0
 20
0.0
  9
$LIMMAX
 10
420.0
 20
297.0
  9
$ORTHOMODE
 70
     0
  9
$REGENMODE
 70
     1
  9
$FILLMODE
 70
     1
  9
$QTEXTMODE
 70
     0
  9
$MIRRTEXT
 70
     1
  9
$LTSCALE
 40
1.0
  9
$ATTMODE
 70
     1
  9
$TEXTSIZE
 40
3.5
  9
$TRACEWID
 40
1.0
  9
$TEXTSTYLE
  7
Standard
  9
$CLAYER
  8
0
  9
$CELTYPE
  6
ByLayer
  9
$CECOLOR
 62
   256
  9
$CELTSCALE
 40
1.0
  9
$DISPSILH
 70
     0
  9
$DIMSCALE
 40
1.0
  9
$DIMASZ
 40
3.302
  9
$DIMEXO
 40
1.0
  9
$DIMDLI
 40
3.75
  9
$DIMRND
 40
0.0
  9
$DIMDLE
 40
0.0
  9
$DIMEXE
 40
1.0
  9
$DIMTP
 40
0.0
  9
$DIMTM
 40
0.0
  9
$DIMTXT
 40
3.5
  9
$DIMCEN
 40
2.5
  9
$DIMTSZ
 40
0.0
  9
$DIMTOL
 70
     0
  9
$DIMLIM
 70
     0
  9
$DIMTIH
 70
     1
  9
$DIMTOH
 70
     1
  9
$DIMSE1
 70
     0
  9
$DIMSE2
 70
     0
  9
$DIMTAD
 70
     1
  9
$DIMZIN
 70
     0
  9
$DIMBLK
  1

  9
$DIMASO
 70
     1
  9
$DIMSHO
 70
     1
  9
$DIMPOST
  1

  9
$DIMAPOST
  1

  9
$DIMALT
 70
     0
  9
$DIMALTD
 70
     3
  9
$DIMALTF
 40
0.0393700787
  9
$DIMLFAC
 40
1.0
  9
$DIMTOFL
 70
     1
  9
$DIMTVP
 40
0.0
  9
$DIMTIX
 70
     0
  9
$DIMSOXD
 70
     0
  9
$DIMSAH
 70
     0
  9
$DIMBLK1
  1

  9
$DIMBLK2
  1

  9
$DIMSTYLE
  2
ISO-25
  9
$DIMCLRD
 70
     0
  9
$DIMCLRE
 70
     0
  9
$DIMCLRT
 70
     0
  9
$DIMTFAC
 40
1.0
  9
$DIMGAP
 40
1.524
  9
$DIMJUST
 70
     0
  9
$DIMSD1
 70
     0
  9
$DIMSD2
 70
     0
  9
$DIMTOLJ
 70
     0
  9
$DIMTZIN
 70
     0
  9
$DIMALTZ
 70
     0
  9
$DIMALTTZ
 70
     0
  9
$DIMUPT
 70
     0
  9
$DIMDEC
 70
     2
  9
$DIMTDEC
 70
     2
  9
$DIMALTU
 70
     2
  9
$DIMALTTD
 70
     3
  9
$DIMTXSTY
  7
Standard
  9
$DIMAUNIT
 70
     0
  9
$DIMADEC
 70
     2
  9
$DIMALTRND
 40
0.0
  9
$DIMAZIN
 70
     0
  9
$DIMDSEP
 70
    44
  9
$DIMATFIT
 70
     3
  9
$DIMFRAC
 70
     0
  9
$DIMLDRBLK
  1

  9
$DIMLUNIT
 70
     2
  9
$DIMLWD
 70
    -2
  9
$DIMLWE
 70
    -2
  9
$DIMTMOVE
 70
     0
  9
$LUNITS
 70
     2
  9
$LUPREC
 70
     2
  9
$SKETCHINC
 40
1.0
  9
$FILLETRAD
 40
10.0
  9
$AUNITS
 70
     0
  9
$AUPREC
 70
     2
  9
$MENU
  1
.
  9
$ELEVATION
 40
0.0
  9
$PELEVATION
 40
0.0
  9
$THICKNESS
 40
0.0
  9
$LIMCHECK
 70
     0
  9
$CHAMFERA
 40
0.0
  9
$CHAMFERB
 40
0.0
  9
$CHAMFERC
 40
0.0
  9
$CHAMFERD
 40
0.0
  9
$SKPOLY
 70
     0
  9
$TDCREATE
 40
2459237.52342735
  9
$TDUCREATE
 40
2459237.481760683
  9
$TDUPDATE
 40
2459237.523468727
  9
$TDUUPDATE
 40
2459237.48180206
  9
$TDINDWG
 40
0.0000000116
  9
$TDUSRTIMER
 40
0.0000000116
  9
$USRTIMER
 70
     1
  9
$ANGBASE
 50
0.0
  9
$ANGDIR
 70
     0
  9
$PDMODE
 70
     0
  9
$PDSIZE
 40
-1.0
  9
$PLINEWID
 40
0.0
  9
$SPLFRAME
 70
     0
  9
$SPLINETYPE
 70
     6
  9
$SPLINESEGS
 70
     8
  9
$HANDSEED
  5
437
  9
$SURFTAB1
 70
     6
  9
$SURFTAB2
 70
     6
  9
$SURFTYPE
 70
     6
  9
$SURFU
 70
     6
  9
$SURFV
 70
     6
  9
$UCSBASE
  2

  9
$UCSNAME
  2

  9
$UCSORG
 10
0.0
 20
0.0
 30
0.0
  9
$UCSXDIR
 10
1.0
 20
0.0
 30
0.0
  9
$UCSYDIR
 10
0.0
 20
1.0
 30
0.0
  9
$UCSORTHOREF
  2

  9
$UCSORTHOVIEW
 70
     0
  9
$UCSORGTOP
 10
0.0
 20
0.0
 30
0.0
  9
$UCSORGBOTTOM
 10
0.0
 20
0.0
 30
0.0
  9
$UCSORGLEFT
 10
0.0
 20
0.0
 30
0.0
  9
$UCSORGRIGHT
 10
0.0
 20
0.0
 30
0.0
  9
$UCSORGFRONT
 10
0.0
 20
0.0
 30
0.0
  9
$UCSORGBACK
 10
0.0
 20
0.0
 30
0.0
  9
$PUCSBASE
  2

  9
$PUCSNAME
  2

  9
$PUCSORG
 10
0.0
 20
0.0
 30
0.0
  9
$PUCSXDIR
 10
1.0
 20
0.0
 30
0.0
  9
$PUCSYDIR
 10
0.0
 20
1.0
 30
0.0
  9
$PUCSORTHOREF
  2

  9
$PUCSORTHOVIEW
 70
     0
  9
$PUCSORGTOP
 10
0.0
 20
0.0
 30
0.0
  9
$PUCSORGBOTTOM
 10
0.0
 20
0.0
 30
0.0
  9
$PUCSORGLEFT
 10
0.0
 20
0.0
 30
0.0
  9
$PUCSORGRIGHT
 10
0.0
 20
0.0
 30
0.0
  9
$PUCSORGFRONT
 10
0.0
 20
0.0
 30
0.0
  9
$PUCSORGBACK
 10
0.0
 20
0.0
 30
0.0
  9
$USERI1
 70
     0
  9
$USERI2
 70
     0
  9
$USERI3
 70
     0
  9
$USERI4
 70
     0
  9
$USERI5
 70
     0
  9
$USERR1
 40
0.0
  9
$USERR2
 40
0.0
  9
$USERR3
 40
0.0
  9
$USERR4
 40
0.0
  9
$USERR5
 40
0.0
  9
$WORLDVIEW
 70
     1
  9
$SHADEDGE
 70
     3
  9
$SHADEDIF
 70
    70
  9
$TILEMODE
 70
     1
  9
$MAXACTVP
 70
    64
  9
$PINSBASE
 10
0.0
 20
0.0
 30
0.0
  9
$PLIMCHECK
 70
     0
  9
$PEXTMIN
 10
1.0000000000E+20
 20
1.0000000000E+20
 30
1.0000000000E+20
  9
$PEXTMAX
 10
-1.0000000000E+20
 20
-1.0000000000E+20
 30
-1.0000000000E+20
  9
$PLIMMIN
 10
0.0
 20
0.0
  9
$PLIMMAX
 10
420.0
 20
297.0
  9
$UNITMODE
 70
     0
  9
$VISRETAIN
 70
     1
  9
$PLINEGEN
 70
     0
  9
$PSLTSCALE
 70
     1
  9
$TREEDEPTH
 70
  3020
  9
$CMLSTYLE
  2
Standard
  9
$CMLJUST
 70
     0
  9
$CMLSCALE
 40
20.0
  9
$PROXYGRAPHICS
 70
     1
  9
$MEASUREMENT
 70
     1
  9
$CELWEIGHT
370
    -1
  9
$ENDCAPS
280
     0
  9
$JOINSTYLE
280
     0
  9
$LWDISPLAY
290
     1
  9
$INSUNITS
 70
     4
  9
$HYPERLINKBASE
  1

  9
$STYLESHEET
  1

  9
$XEDIT
290
     1
  9
$CEPSNTYPE
380
     0
  9
$PSTYLEMODE
290
     1
  9
$FINGERPRINTGUID
  2
{AE71DCD7-806E-433D-958B-08A9ACBF6C9C}
  9
$VERSIONGUID
  2
{FAEB1C32-E019-11D5-929B-00C0DF256EC4}
  9
$EXTNAMES
290
     1
  9
$PSVPSCALE
 40
0.0
  9
$OLESTARTUP
290
     0
  0
ENDSEC
  0
SECTION
  2
CLASSES
  0
CLASS
  1
ACDBDICTIONARYWDFLT
  2
AcDbDictionaryWithDefault
  3
ObjectDBX Classes
 90
        0
280
     0
281
     0
  0
CLASS
  1
VISUALSTYLE
  2
AcDbVisualStyle
  3
ObjectDBX Classes
 90
     4095
280
     0
281
     0
  0
CLASS
  1
MATERIAL
  2
AcDbMaterial
  3
ObjectDBX Classes
 90
     1153
280
     0
281
     0
  0
CLASS
  1
SCALE
  2
AcDbScale
  3
ObjectDBX Classes
 90
     1153
280
     0
281
     0
  0
CLASS
  1
SUN
  2
AcDbSun
  3
SCENEOE
 90
     1153
280
     0
281
     0
  0
CLASS
  1
ACDBPLACEHOLDER
  2
AcDbPlaceHolder
  3
ObjectDBX Classes
 90
        0
280
     0
281
     0
  0
CLASS
  1
LAYOUT
  2
AcDbLayout
  3
ObjectDBX Classes
 90
        0
280
     0
281
     0
  0
ENDSEC
  0
SECTION
  2
TABLES
  0
TABLE
  2
VPORT
  5
8
330
0
100
AcDbSymbolTable
 70
     1
  0
VPORT
  5
29
330
8
100
AcDbSymbolTableRecord
100
AcDbViewportTableRecord
  2
*Active
 70
     0
 10
0.0
 20
0.0
 11
1.0
 21
1.0
 12
80.0
 22
20.5
 13
0.0
 23
0.0
 14
10.0
 24
10.0
 15
10.0
 25
10.0
 16
0.0
 26
0.0
 36
1.0
 17
0.0
 27
0.0
 37
0.0
 40
41.82
 41
3.8780487805
 42
50.0
 43
0.0
 44
0.0
 50
0.0
 51
0.0
 71
     0
 72
   100
 73
     1
 74
     3
 75
     0
 76
     0
 77
     0
 78
     0
281
     0
 65
     1
110
0.0
120
0.0
130
0.0
111
1.0
121
0.0
131
0.0
112
0.0
122
1.0
132
0.0
 79
     0
146
0.0
  0
ENDTAB
  0
TABLE
  2
LTYPE
  5
5
330
0
100
AcDbSymbolTable
 70
     6
  0
LTYPE
  5
14
330
5
100
AcDbSymbolTableRecord
100
AcDbLinetypeTableRecord
  2
ByBlock
 70
     0
  3

 72
    65
 73
     0
 40
0.0
  0
LTYPE
  5
15
330
5
100
AcDbSymbolTableRecord
100
AcDbLinetypeTableRecord
  2
ByLayer
 70
     0
  3

 72
    65
 73
     0
 40
0.0
  0
LTYPE
  5
16
330
5
100
AcDbSymbolTableRecord
100
AcDbLinetypeTableRecord
  2
Continuous
 70
     0
  3
Solid line
 72
    65
 73
     0
 40
0.0
  0
LTYPE
  5
6A
330
5
100
AcDbSymbolTableRecord
100
AcDbLinetypeTableRecord
  2
HIDDEN
 70
     0
  3
Hidden __ __ __ __ __ __ __ __ __ __ __ __ __ __
 72
    65
 73
     2
 40
1.905
 49
1.27
 74
     0
 49
-0.635
 74
     0
  0
LTYPE
  5
6B
330
5
100
AcDbSymbolTableRecord
100
AcDbLinetypeTableRecord
  2
PHANTOM
 70
     0
  3
Phantom ______  __  __  ______  __  __  ______
 72
    65
 73
     6
 40
12.7
 49
6.35
 74
     0
 49
-1.27
 74
     0
 49
1.27
 74
     0
 49
-1.27
 74
     0
 49
1.27
 74
     0
 49
-1.27
 74
     0
  0
LTYPE
  5
6C
330
5
100
AcDbSymbolTableRecord
100
AcDbLinetypeTableRecord
  2
CENTER
 70
     0
  3
Center ____ _ ____ _ ____ _ ____ _ ____ _ ____
 72
    65
 73
     4
 40
10.16
 49
6.35
 74
     0
 49
-1.27
 74
     0
 49
1.27
 74
     0
 49
-1.27
 74
     0
  0
LTYPE
  5
6D
330
5
100
AcDbSymbolTableRecord
100
AcDbLinetypeTableRecord
  2
CENTERX2
 70
     0
  3
Center (2x) ________  __  ________  __  _____
 72
    65
 73
     4
 40
20.32
 49
12.7
 74
     0
 49
-2.54
 74
     0
 49
2.54
 74
     0
 49
-2.54
 74
     0
  0
LTYPE
  5
6E
330
5
100
AcDbSymbolTableRecord
100
AcDbLinetypeTableRecord
  2
DOT2
 70
     0
  3
Dot (.5x) ........................................
 72
    65
 73
     2
 40
0.635
 49
0.0
 74
     0
 49
-0.635
 74
     0
  0
ENDTAB
  0
TABLE
  2
LAYER
  5
2
330
0
100
AcDbSymbolTable
 70
     1
  0
LAYER
  5
10
330
2
100
AcDbSymbolTableRecord
100
AcDbLayerTableRecord
  2
0
 70
     0
 62
     7
  6
Continuous
370
    -3
390
F
  0
ENDTAB
  0
TABLE
  2
STYLE
  5
3
330
0
100
AcDbSymbolTable
 70
     1
  0
STYLE
  5
11
330
3
100
AcDbSymbolTableRecord
100
AcDbTextStyleTableRecord
  2
Standard
 70
     0
 40
0.0
 41
1.0
 50
0.0
 71
     0
 42
3.5
  3
txt
  4

  0
ENDTAB
  0
TABLE
  2
VIEW
  5
6
330
0
100
AcDbSymbolTable
 70
     0
  0
ENDTAB
  0
TABLE
  2
UCS
  5
7
330
0
100
AcDbSymbolTable
 70
     0
  0
ENDTAB
  0
TABLE
  2
APPID
  5
9
330
0
100
AcDbSymbolTable
 70
     1
  0
APPID
  5
12
330
9
100
AcDbSymbolTableRecord
100
AcDbRegAppTableRecord
  2
ACAD
 70
     0
  0
ENDTAB
  0
TABLE
  2
DIMSTYLE
  5
A
330
0
100
AcDbSymbolTable
 70
     1
100
AcDbDimStyleTable
  0
DIMSTYLE
105
27
330
A
100
AcDbSymbolTableRecord
100
AcDbDimStyleTableRecord
  2
ISO-25
 70
     0
 41
2.5
 42
0.625
 43
3.75
 44
1.25
 73
     0
 74
     0
 77
     1
 78
     8
140
2.5
141
2.5
143
0.0393700787
147
0.625
171
     3
172
     1
178
     0
271
     2
272
     2
274
     3
278
    44
283
     0
284
     8
340
11
  0
ENDTAB
  0
TABLE
  2
BLOCK_RECORD
  5
1
330
0
100
AcDbSymbolTable
 70
     1
  0
BLOCK_RECORD
  5
1F
330
1
100
AcDbSymbolTableRecord
100
AcDbBlockTableRecord
  2
*Model_Space
340
22
  0
BLOCK_RECORD
  5
1B
330
1
100
AcDbSymbolTableRecord
100
AcDbBlockTableRecord
  2
*Paper_Space
340
1E
  0
BLOCK_RECORD
  5
23
330
1
100
AcDbSymbolTableRecord
100
AcDbBlockTableRecord
  2
*Paper_Space0
340
26
  0
ENDTAB
  0
ENDSEC
  0
SECTION
  2
BLOCKS
  0
BLOCK
  5
20
330
1F
100
AcDbEntity
  8
0
100
AcDbBlockBegin
  2
*Model_Space
 70
     0
 10
0.0
 20
0.0
 30
0.0
  3
*Model_Space
  1
*Model_Space
  0
ENDBLK
  5
21
330
1F
100
AcDbEntity
  8
0
100
AcDbBlockEnd
  0
BLOCK
  5
1C
330
1B
100
AcDbEntity
 67
     1
  8
0
100
AcDbBlockBegin
  2
*Paper_Space
 70
     0
 10
0.0
 20
0.0
 30
0.0
  3
*Paper_Space
  1
*Paper_Space
  0
ENDBLK
  5
1D
330
1B
100
AcDbEntity
 67
     1
  8
0
100
AcDbBlockEnd
  0
BLOCK
  5
24
330
23
100
AcDbEntity
  8
0
100
AcDbBlockBegin
  2
*Paper_Space0
 70
     0
 10
0.0
 20
0.0
 30
0.0
  3
*Paper_Space0
  1
*Paper_Space0
  0
ENDBLK
  5
25
330
23
100
AcDbEntity
  8
0
100
AcDbBlockEnd
  0
ENDSEC
  0
SECTION
  2
ENTITIES
  0
SPLINE
  5
88
330
1F
100
AcDbEntity
  8
0
  6
Continuous
 62
     7
370
    15
100
AcDbSpline
210
0.0
220
0.0
230
1.0
 70
     8
 71
     3
 72
    15
 73
    11
 74
     0
 42
0.000000001
 43
0.00000001
 40
0.0
 40
0.0
 40
0.0
 40
0.0
 40
0.1279910255623769
 40
0.2530983915017067
 40
0.3761840584327941
 40
0.4989363124701191
 40
0.6215258806257332
 40
0.7457068938016933
 40
0.8715753502968622
 40
1.0
 40
1.0
 40
1.0
 40
1.0
 10
67.03044871794873
 20
17.98426073451762
 30
0.0
 10
67.06263303626939
 20
17.95965120371499
 30
0.0
 10
67.1262765547328
 20
17.9109865990336
 30
0.0
 10
67.22786546650073
 20
17.84861292482567
 30
0.0
 10
67.3324820418349
 20
17.79515246388737
 30
0.0
 10
67.44091574395401
 20
17.7519570438801
 30
0.0
 10
67.55293756645924
 20
17.71798025256549
 30
0.0
 10
67.66853214772446
 20
17.69418686429971
 30
0.0
 10
67.78753570000778
 20
17.67925445547985
 30
0.0
 10
67.86801147915715
 20
17.67746974975515
 30
0.0
 10
67.90865384615387
 20
17.67656842682531
 30
0.0
  0
SPLINE
  5
89
330
1F
100
AcDbEntity
  8
0
  6
Continuous
 62
     7
370
    15
100
AcDbSpline
210
0.0
220
0.0
230
1.0
 70
     8
 71
     3
 72
    23
 73
    19
 74
     0
 42
0.000000001
 43
0.00000001
 40
0.0
 40
0.0
 40
0.0
 40
0.0
 40
0.0657223151915618
 40
0.1295079307025843
 40
0.1917221026921606
 40
0.2531611245020878
 40
0.3143157037352565
 40
0.3759517397728627
 40
0.4386196008234077
 40
0.5029729018927774
 40
0.5671286457242657
 40
0.6295522895796732
 40
0.6904767824348732
 40
0.7510723384108289
 40
0.8116678943867819
 40
0.8729293555873902
 40
0.935501370715808
 40
1.0
 40
1.0
 40
1.0
 40
1.0
 10
69.97435897435899
 20
19.04916458067147
 30
0.0
 10
69.97248863156837
 20
18.97749496526833
 30
0.0
 10
69.96880306109183
 20
18.83626768868721
 30
0.0
 10
69.94032856152106
 20
18.6287211822056
 30
0.0
 10
69.892774638736
 20
18.42970177640409
 30
0.0
 10
69.82726164583644
 20
18.23875898638172
 30
0.0
 10
69.7413540057224
 20
18.05681767347488
 30
0.0
 10
69.63784538523508
 20
17.88271616774781
 30
0.0
 10
69.5140043886474
 20
17.71807017283081
 30
0.0
 10
69.37434798345508
 20
17.56296804402735
 30
0.0
 10
69.2205984011952
 20
17.42217958084942
 30
0.0
 10
69.05775318618201
 20
17.29810999080948
 30
0.0
 10
68.88656425697157
 20
17.19297810227214
 30
0.0
 10
68.70728217954095
 20
17.10683207073539
 30
0.0
 10
68.51952249207434
 20
17.0399773082244
 30
0.0
 10
68.32374898395742
 20
16.99280641537387
 30
0.0
 10
68.11997376959194
 20
16.96413971131386
 30
0.0
 10
67.98139674178174
 20
16.9604782145961
 30
0.0
 10
67.91105769230771
 20
16.95861970887659
 30
0.0
  0
SPLINE
  5
8A
330
1F
100
AcDbEntity
  8
0
  6
Continuous
 62
     7
370
    15
100
AcDbSpline
210
0.0
220
0.0
230
1.0
 70
     8
 71
     3
 72
    23
 73
    19
 74
     0
 42
0.000000001
 43
0.00000001
 40
0.0
 40
0.0
 40
0.0
 40
0.0
 40
0.0641474448766682
 40
0.1262121152536836
 40
0.186841289021689
 40
0.2469358694509751
 40
0.3072563614860037
 40
0.368150502200675
 40
0.430070766951654
 40
0.4938754417369517
 40
0.5579806818508444
 40
0.6208695259285348
 40
0.682524731375159
 40
0.7440356981057705
 40
0.8058886825781878
 40
0.8689681377436654
 40
0.9332474288479392
 40
1.0
 40
1.0
 40
1.0
 40
1.0
 10
67.90865384615387
 20
17.67656842682531
 30
0.0
 10
67.95465276523117
 20
17.67783492365586
 30
0.0
 10
68.04515708519733
 20
17.68032679600172
 30
0.0
 10
68.17812741729797
 20
17.69897747678836
 30
0.0
 10
68.30551703408534
 20
17.73054116253834
 30
0.0
 10
68.42811678108504
 20
17.77384220392679
 30
0.0
 10
68.54557313543447
 20
17.83013926678155
 30
0.0
 10
68.65731205583825
 20
17.89954671854318
 30
0.0
 10
68.76352945113042
 20
17.98121232507106
 30
0.0
 10
68.86386230447052
 20
18.07342846427064
 30
0.0
 10
68.95557127527397
 20
18.17524611111894
 30
0.0
 10
69.03558429941431
 20
18.28451260886439
 30
0.0
 10
69.1048157149897
 20
18.39882048955885
 30
0.0
 10
69.15984216195302
 20
18.5197876079182
 30
0.0
 10
69.20381583210725
 20
18.64627209096126
 30
0.0
 10
69.23358392282755
 20
18.77883411124542
 30
0.0
 10
69.25278627679533
 20
18.91692719777812
 30
0.0
 10
69.25518715733756
 20
19.01090442324815
 30
0.0
 10
69.25641025641028
 20
19.05877996528685
 30
0.0
  0
SPLINE
  5
8B
330
1F
100
AcDbEntity
  8
0
  6
Continuous
 62
     7
370
    15
100
AcDbSpline
210
0.0
220
0.0
230
1.0
 70
     8
 71
     3
 72
    31
 73
    27
 74
     0
 42
0.000000001
 43
0.00000001
 40
0.0
 40
0.0
 40
0.0
 40
0.0
 40
0.0431143456619732
 40
0.0856827648242093
 40
0.1275943241639275
 40
0.1690586225605479
 40
0.2104320288213095
 40
0.2518111664630532
 40
0.2934438397982395
 40
0.3353808532218257
 40
0.3774766059607936
 40
0.418688490676827
 40
0.4598730336711983
 40
0.5008729046253165
 40
0.5418727755794311
 40
0.5832117768673231
 40
0.6247632017340778
 40
0.6669876223820891
 40
0.7093697058942412
 40
0.7511026519448595
 40
0.7925683801202206
 40
0.8335451085502595
 40
0.874827422556525
 40
0.9160177232110677
 40
0.9578592039763034
 40
1.0
 40
1.0
 40
1.0
 40
1.0
 10
65.82051282051283
 20
19.06278637554326
 30
0.0
 10
65.82112288449889
 20
19.11010038183835
 30
0.0
 10
65.82233528766172
 20
19.20412929059317
 30
0.0
 10
65.83693996088586
 20
19.34347533362658
 30
0.0
 10
65.85796649136368
 20
19.48010152898807
 30
0.0
 10
65.8890637322473
 20
19.61346314605095
 30
0.0
 10
65.92683893179208
 20
19.74450098900983
 30
0.0
 10
65.97578203894852
 20
19.8719953251666
 30
0.0
 10
66.03149254005903
 20
19.99730814465158
 30
0.0
 10
66.09658501525
 20
20.11895934615171
 30
0.0
 10
66.16896155376665
 20
20.23582963695681
 30
0.0
 10
66.24793080117145
 20
20.34736771950304
 30
0.0
 10
66.33369132456312
 20
20.45222493531892
 30
0.0
 10
66.4259668608853
 20
20.55109036283884
 30
0.0
 10
66.52507540413049
 20
20.64331415243029
 30
0.0
 10
66.62971328378572
 20
20.73020186023271
 30
0.0
 10
66.74190986543918
 20
20.80944543977851
 30
0.0
 10
66.85920951794085
 20
20.88298017733107
 30
0.0
 10
66.98095093282568
 20
20.9494763652281
 30
0.0
 10
67.10663851210415
 20
21.00607593166403
 30
0.0
 10
67.23368284335584
 20
21.05550336895663
 30
0.0
 10
67.36378106750571
 20
21.09451368797384
 30
0.0
 10
67.49553895065951
 20
21.12628718468159
 30
0.0
 10
67.63036405890297
 20
21.14729954328707
 30
0.0
 10
67.76703832403045
 20
21.16190381206543
 30
0.0
 10
67.85920242813357
 20
21.16313175455085
 30
0.0
 10
67.90544871794873
 20
21.1637479140048
 30
0.0
  0
SPLINE
  5
8C
330
1F
100
AcDbEntity
  8
0
  6
Continuous
 62
     7
370
    15
100
AcDbSpline
210
0.0
220
0.0
230
1.0
 70
     8
 71
     3
 72
    15
 73
    11
 74
     0
 42
0.000000001
 43
0.00000001
 40
0.0
 40
0.0
 40
0.0
 40
0.0
 40
0.1348068327792188
 40
0.2641990558543172
 40
0.3884618167279446
 40
0.5099420983643709
 40
0.6304096106127708
 40
0.7506710345119797
 40
0.8734547255294238
 40
1.0
 40
1.0
 40
1.0
 40
1.0
 10
66.53846153846156
 20
19.05317099092787
 30
0.0
 10
66.54008636968518
 20
18.99834337221805
 30
0.0
 10
66.5432707696622
 20
18.89089032403615
 30
0.0
 10
66.56567659520995
 20
18.73414071242919
 30
0.0
 10
66.60401073238923
 20
18.58610626164943
 30
0.0
 10
66.65936448115596
 20
18.44751098607483
 30
0.0
 10
66.72801765185243
 20
18.31681588896005
 30
0.0
 10
66.81327399391661
 20
18.19562282450127
 30
0.0
 10
66.91375275819156
 20
18.08320614525042
 30
0.0
 10
66.99116078414752
 20
18.01757260542467
 30
0.0
 10
67.03044871794873
 20
17.98426073451762
 30
0.0
  0
SPLINE
  5
8D
330
1F
100
AcDbEntity
  8
0
  6
Continuous
 62
     7
370
    15
100
AcDbSpline
210
0.0
220
0.0
230
1.0
 70
     8
 71
     3
 72
    23
 73
    19
 74
     0
 42
0.000000001
 43
0.00000001
 40
0.0
 40
0.0
 40
0.0
 40
0.0
 40
0.0667486513092662
 40
0.1311519760901748
 40
0.1937321970570944
 40
0.2553255433785963
 40
0.3163881857773856
 40
0.3780268629068846
 40
0.4404056792054009
 40
0.5045574293240815
 40
0.5686582873620155
 40
0.6309861790900101
 40
0.692288134873298
 40
0.7526154469796391
 40
0.8131995384355626
 40
0.8740161248607802
 40
0.9361583555105307
 40
0.9999999999999999
 40
0.9999999999999999
 40
0.9999999999999999
 40
0.9999999999999999
 10
67.91105769230771
 20
16.95861970887659
 30
0.0
 10
67.83749148056512
 20
16.96028688011204
 30
0.0
 10
67.69294393010144
 20
16.96356264370758
 30
0.0
 10
67.481397942914
 20
16.99471366002672
 30
0.0
 10
67.2787186080809
 20
17.04163797256448
 30
0.0
 10
67.08660854871793
 20
17.11166999170191
 30
0.0
 10
66.90311128807313
 20
17.19921590438443
 30
0.0
 10
66.72957503440884
 20
17.3070339445726
 30
0.0
 10
66.56605810728752
 20
17.43494593462806
 30
0.0
 10
66.41349846660917
 20
17.57967600098928
 30
0.0
 10
66.27527906269066
 20
17.73804243768258
 30
0.0
 10
66.15327332689432
 20
17.90534253427008
 30
0.0
 10
66.05035878226816
 20
18.08029826513921
 30
0.0
 10
65.96653166336971
 20
18.26299151328533
 30
0.0
 10
65.90044573023442
 20
18.45228688463588
 30
0.0
 10
65.8538296131067
 20
18.64933724261319
 30
0.0
 10
65.82629236031839
 20
18.85366998891865
 30
0.0
 10
65.82245658090028
 20
18.99245687486324
 30
0.0
 10
65.82051282051283
 20
19.06278637554326
 30
0.0
  0
SPLINE
  5
8E
330
1F
100
AcDbEntity
  8
0
  6
Continuous
 62
     7
370
    15
100
AcDbSpline
210
0.0
220
0.0
230
1.0
 70
     8
 71
     3
 72
    23
 73
    19
 74
     0
 42
0.000000001
 43
0.00000001
 40
0.0
 40
0.0
 40
0.0
 40
0.0
 40
0.0633955966615918
 40
0.1251572666424218
 40
0.1856494665262548
 40
0.245976679340816
 40
0.3061083686579553
 40
0.367350588089176
 40
0.4299020782799129
 40
0.4945399581831947
 40
0.5593725826940468
 40
0.6224096858457374
 40
0.684357425819475
 40
0.7458066007722095
 40
0.8074302750159158
 40
0.8699955160697816
 40
0.9339278677192723
 40
1.0
 40
1.0
 40
1.0
 40
1.0
 10
67.90544871794873
 20
21.1637479140048
 30
0.0
 10
67.97499362019688
 20
21.16194727194511
 30
0.0
 10
68.11229100885868
 20
21.15839239668155
 30
0.0
 10
68.31420592208308
 20
21.1287597369161
 30
0.0
 10
68.50878827491076
 20
21.0804775660739
 30
0.0
 10
68.69595007776175
 20
21.01336185638324
 30
0.0
 10
68.87522269899634
 20
20.92559477335802
 30
0.0
 10
69.04723849317246
 20
20.81966457138918
 30
0.0
 10
69.21138130786831
 20
20.6935718813793
 30
0.0
 10
69.36596913913698
 20
20.55025823776009
 30
0.0
 10
69.50883617571738
 20
20.39441090806966
 30
0.0
 10
69.63263054635715
 20
20.2266135501823
 30
0.0
 10
69.73819784409993
 20
20.05121396220401
 30
0.0
 10
69.82569230291092
 20
19.86774215582634
 30
0.0
 10
69.89233561874335
 20
19.67492750129452
 30
0.0
 10
69.93910198997438
 20
19.47375309849687
 30
0.0
 10
69.96914706651408
 20
19.26427617971204
 30
0.0
 10
69.97260271259144
 20
19.12165095003861
 30
0.0
 10
69.97435897435899
 20
19.04916458067147
 30
0.0
  0
SPLINE
  5
8F
330
1F
100
AcDbEntity
  8
0
  6
Continuous
 62
     7
370
    15
100
AcDbSpline
210
0.0
220
0.0
230
1.0
 70
     8
 71
     3
 72
    23
 73
    19
 74
     0
 42
0.000000001
 43
0.00000001
 40
0.0
 40
0.0
 40
0.0
 40
0.0
 40
0.0659391240576587
 40
0.1297911093795341
 40
0.1921752363053283
 40
0.2536170442157553
 40
0.3147191079962368
 40
0.3762822754113743
 40
0.4389729923739106
 40
0.5031747018386414
 40
0.5673294646239453
 40
0.6296509938060328
 40
0.6906498673030962
 40
0.7512376127977869
 40
0.8117541138236078
 40
0.8727877774488515
 40
0.9355396326682288
 40
1.0
 40
1.0
 40
1.0
 40
1.0
 10
69.25641025641028
 20
19.05877996528685
 30
0.0
 10
69.25514483793926
 20
19.10638020974175
 30
0.0
 10
69.25265405466709
 20
19.20007403147248
 30
0.0
 10
69.23397054756359
 20
19.33781208162917
 30
0.0
 10
69.20260703053074
 20
19.46978887945976
 30
0.0
 10
69.15917596065343
 20
19.59621995701066
 30
0.0
 10
69.10371678426887
 20
19.7172292636649
 30
0.0
 10
69.03513588647941
 20
19.83239125917294
 30
0.0
 10
68.9536739091657
 20
19.94159461004251
 30
0.0
 10
68.86120569467712
 20
20.04409513719829
 30
0.0
 10
68.76055972642128
 20
20.1382865559336
 30
0.0
 10
68.65250622305926
 20
20.22002758512357
 30
0.0
 10
68.54006864289732
 20
20.29105794056563
 30
0.0
 10
68.42066711925911
 20
20.34670025286099
 30
0.0
 10
68.29674450736835
 20
20.3910303650332
 30
0.0
 10
68.1675446248644
 20
20.42367569574044
 30
0.0
 10
68.03257811927978
 20
20.44193214978803
 30
0.0
 10
67.94075761487409
 20
20.44449869073564
 30
0.0
 10
67.89423076923079
 20
20.44579919605608
 30
0.0
  0
SPLINE
  5
90
330
1F
100
AcDbEntity
  8
0
  6
Continuous
 62
     7
370
    15
100
AcDbSpline
210
0.0
220
0.0
230
1.0
 70
     8
 71
     3
 72
    23
 73
    19
 74
     0
 42
0.000000001
 43
0.00000001
 40
0.0
 40
0.0
 40
0.0
 40
0.0
 40
0.0646087354707738
 40
0.127511789723674
 40
0.188521308398647
 40
0.2487081790893725
 40
0.3085982651789115
 40
0.3688122491095555
 40
0.4298875018150768
 40
0.4928024479242463
 40
0.5557433321027926
 40
0.6174852948395643
 40
0.6789689634380393
 40
0.7401976913545553
 40
0.8023601016976082
 40
0.866244776442731
 40
0.9317068283956886
 40
1.0
 40
1.0
 40
1.0
 40
1.0
 10
67.89423076923079
 20
20.44579919605608
 30
0.0
 10
67.84742705921263
 20
20.44454334742934
 30
0.0
 10
67.75505526480072
 20
20.44206480478568
 30
0.0
 10
67.61956266479203
 20
20.42318166215808
 30
0.0
 10
67.4894849838104
 20
20.39302313700736
 30
0.0
 10
67.3655432939381
 20
20.34933888185905
 30
0.0
 10
67.24720042108584
 20
20.29373991216424
 30
0.0
 10
67.13424658000442
 20
20.22642049745894
 30
0.0
 10
67.02824594788629
 20
20.14506660818834
 30
0.0
 10
66.9277851087579
 20
20.05404577189833
 30
0.0
 10
66.83703527167783
 20
19.9526276423995
 30
0.0
 10
66.75685492773664
 20
19.84394086867737
 30
0.0
 10
66.68975689432956
 20
19.72816695584086
 30
0.0
 10
66.63356187101505
 20
19.60638141618044
 30
0.0
 10
66.59125947301904
 20
19.47721480351673
 30
0.0
 10
66.56112874326509
 20
19.34167889394399
 30
0.0
 10
66.5420872467661
 20
19.19954015232463
 30
0.0
 10
66.53968704247623
 20
19.1026443571917
 30
0.0
 10
66.53846153846156
 20
19.05317099092787
 30
0.0
  0
SPLINE
  5
91
330
1F
100
AcDbEntity
  8
0
  6
Continuous
 62
     7
370
    15
100
AcDbSpline
210
0.0
220
0.0
230
1.0
 70
     8
 71
     3
 72
    23
 73
    19
 74
     0
 42
0.000000001
 43
0.00000001
 40
0.0
 40
0.0
 40
0.0
 40
0.0
 40
0.1055399964402507
 40
0.2020864154635848
 40
0.2906848989424175
 40
0.3705526096211966
 40
0.4426702615663713
 40
0.5076749275738669
 40
0.5655732034810451
 40
0.6164546657486243
 40
0.6633313570051004
 40
0.7088620244966143
 40
0.7534118003496251
 40
0.7985150107871093
 40
0.8450643214401151
 40
0.8938731190084057
 40
0.944707806003651
 40
1.0
 40
1.0
 40
1.0
 40
1.0
 10
63.79246794871796
 20
19.52272227297916
 30
0.0
 10
63.82665717232825
 20
19.52310733499415
 30
0.0
 10
63.89212218919321
 20
19.52384464601337
 30
0.0
 10
63.98626948169897
 20
19.52726460014184
 30
0.0
 10
64.07177767622804
 20
19.53550499966852
 30
0.0
 10
64.14901397382425
 20
19.54591643649742
 30
0.0
 10
64.21836702051922
 20
19.55793794387009
 30
0.0
 10
64.27921821160342
 20
19.57516549381195
 30
0.0
 10
64.33250517105478
 20
19.59362524967852
 30
0.0
 10
64.37759644640843
 20
19.61656593772476
 30
0.0
 10
64.4161213959861
 20
19.642654475662
 30
0.0
 10
64.44938522417132
 20
19.67229170328386
 30
0.0
 10
64.47689917953235
 20
19.70659302047538
 30
0.0
 10
64.49954456819904
 20
19.74462626540162
 30
0.0
 10
64.51716021854641
 20
19.78672783274991
 30
0.0
 10
64.53001829377915
 20
19.832435542707
 30
0.0
 10
64.53720405639413
 20
19.88227006488385
 30
0.0
 10
64.53803080285968
 20
19.91666267080895
 30
0.0
 10
64.53846153846156
 20
19.93458124733814
 30
0.0
  0
SPLINE
  5
92
330
1F
100
AcDbEntity
  8
0
  6
Continuous
 62
     7
370
    15
100
AcDbSpline
210
0.0
220
0.0
230
1.0
 70
     8
 71
     3
 72
    23
 73
    19
 74
     0
 42
0.000000001
 43
0.00000001
 40
0.0
 40
0.0
 40
0.0
 40
0.0
 40
0.0637689599577415
 40
0.1252623047603753
 40
0.185413582666393
 40
0.2468067624960869
 40
0.3094223888497032
 40
0.3725326822170166
 40
0.4377332507368615
 40
0.5057495167426417
 40
0.5440132631112741
 40
0.5883695992066387
 40
0.6403890193945166
 40
0.6978974005877082
 40
0.7632716192950988
 40
0.8349786038393101
 40
0.9138736558434392
 40
1.0
 40
1.0
 40
1.0
 40
1.0
 10
64.53846153846156
 20
19.93458124733814
 30
0.0
 10
64.53764719334147
 20
19.9557802314939
 30
0.0
 10
64.53604756326003
 20
19.99742170746731
 30
0.0
 10
64.52017426331415
 20
20.05737083157134
 30
0.0
 10
64.49490739853299
 20
20.11285784755933
 30
0.0
 10
64.46027344735785
 20
20.16363205134753
 30
0.0
 10
64.41665648855665
 20
20.20814422342742
 30
0.0
 10
64.36660258706395
 20
20.24738205760568
 30
0.0
 10
64.30903145887387
 20
20.27840840093118
 30
0.0
 10
64.2557249264617
 20
20.29887304663807
 30
0.0
 10
64.20722844192167
 20
20.31111725527884
 30
0.0
 10
64.16346189466337
 20
20.32024153127286
 30
0.0
 10
64.1127799694304
 20
20.32670816756165
 30
0.0
 10
64.05514440413982
 20
20.33356718642191
 30
0.0
 10
63.99070211380891
 20
20.3380149129588
 30
0.0
 10
63.91910184941191
 20
20.3412608667914
 30
0.0
 10
63.840549246375
 20
20.3425889459675
 30
0.0
 10
63.78579062145033
 20
20.34301350947932
 30
0.0
 10
63.75721153846155
 20
20.34323509349198
 30
0.0
  0
SPLINE
  5
97
330
1F
100
AcDbEntity
  8
0
  6
Continuous
 62
     7
370
    15
100
AcDbSpline
210
0.0
220
0.0
230
1.0
 70
     8
 71
     3
 72
    31
 73
    27
 74
     0
 42
0.000000001
 43
0.00000001
 40
0.0
 40
0.0
 40
0.0
 40
0.0
 40
0.0728890266200375
 40
0.1401861299444901
 40
0.2022774341249539
 40
0.2588951317514596
 40
0.310482942465474
 40
0.3570952441313321
 40
0.3985135666534612
 40
0.4350375108701136
 40
0.4692514858292837
 40
0.5028050278902738
 40
0.5362104463185619
 40
0.5693793599392059
 40
0.6028014750483914
 40
0.6366657983367756
 40
0.6709286568940425
 40
0.7058030002293121
 40
0.7411890612458769
 40
0.7763043110764606
 40
0.8120043009129335
 40
0.8479689758088954
 40
0.8845217611964785
 40
0.9219741585442043
 40
0.9601981758096071
 40
1.0
 40
1.0
 40
1.0
 40
1.0
 10
63.63141025641027
 20
21.0611838114407
 30
0.0
 10
63.68670519407878
 20
21.06098754614671
 30
0.0
 10
63.79305293497643
 20
21.06061007270134
 30
0.0
 10
63.94640056873408
 20
21.05465454160558
 30
0.0
 10
64.08727145908136
 20
21.046366931275
 30
0.0
 10
64.21587417811342
 20
21.03371981794278
 30
0.0
 10
64.33215370746758
 20
21.01695127440534
 30
0.0
 10
64.43622658641016
 20
20.99718393640159
 30
0.0
 10
64.52808977299358
 20
20.97465481674784
 30
0.0
 10
64.60851800632629
 20
20.94658175616728
 30
0.0
 10
64.68110050981255
 20
20.91491576944434
 30
0.0
 10
64.74875749396341
 20
20.87853097005267
 30
0.0
 10
64.81298157245826
 20
20.83783251424034
 30
0.0
 10
64.87334347669642
 20
20.79174951547249
 30
0.0
 10
64.93036776581744
 20
20.74111099554392
 30
0.0
 10
64.98416201956167
 20
20.68586598181214
 30
0.0
 10
65.03396607526304
 20
20.6255460193143
 30
0.0
 10
65.07947154418704
 20
20.560532253666
 30
0.0
 10
65.12094611615747
 20
20.49213926305915
 30
0.0
 10
65.15760093906698
 20
20.42027314347127
 30
0.0
 10
65.18740870198123
 20
20.34488391680276
 30
0.0
 10
65.21374705583733
 20
20.26706112036658
 30
0.0
 10
65.23271771884778
 20
20.18569226201985
 30
0.0
 10
65.2459115374549
 20
20.10156948133404
 30
0.0
 10
65.255571535296
 20
20.01439665718952
 30
0.0
 10
65.25612693898942
 20
19.95517531089482
 30
0.0
 10
65.25641025641025
 20
19.92496586272275
 30
0.0
  0
SPLINE
  5
98
330
1F
100
AcDbEntity
  8
0
  6
Continuous
 62
     7
370
    15
100
AcDbSpline
210
0.0
220
0.0
230
1.0
 70
     8
 71
     3
 72
    23
 73
    19
 74
     0
 42
0.000000001
 43
0.00000001
 40
0.0
 40
0.0
 40
0.0
 40
0.0
 40
0.0687412630793642
 40
0.1347890881950348
 40
0.1985360495606912
 40
0.2603856506059208
 40
0.3209615782321956
 40
0.3799038495841472
 40
0.4385029357752687
 40
0.4961543439762716
 40
0.5542654832084982
 40
0.6127487608156936
 40
0.672513442526184
 40
0.7336464018979747
 40
0.7967896194814593
 40
0.861935699041024
 40
0.9293977347748993
 40
1.0
 40
1.0
 40
1.0
 40
1.0
 10
65.25641025641025
 20
19.92496586272275
 30
0.0
 10
65.25567429963564
 20
19.89343413862084
 30
0.0
 10
65.25423122253528
 20
19.83160617459279
 30
0.0
 10
65.24645802420662
 20
19.74078593809758
 30
0.0
 10
65.23225105946682
 20
19.65389548842024
 30
0.0
 10
65.21073254452567
 20
19.57118923010749
 30
0.0
 10
65.18599980661261
 20
19.49163778735461
 30
0.0
 10
65.15311160949163
 20
19.41670893402519
 30
0.0
 10
65.1159940284822
 20
19.3453129384995
 30
0.0
 10
65.07191056197867
 20
19.2784597241947
 30
0.0
 10
65.02353111111559
 20
19.21466434765498
 30
0.0
 10
64.9672668274515
 20
19.1563710464245
 30
0.0
 10
64.9067627723238
 20
19.10044677628325
 30
0.0
 10
64.83861779244191
 20
19.05039444377976
 30
0.0
 10
64.76583578182127
 20
19.00282969105608
 30
0.0
 10
64.68697063848575
 20
18.9597233581122
 30
0.0
 10
64.60253706340788
 20
18.91999185099201
 30
0.0
 10
64.54317607871441
 20
18.89783481810705
 30
0.0
 10
64.51282051282053
 20
18.88650432426121
 30
0.0
  0
SPLINE
  5
AC
330
1F
100
AcDbEntity
  8
0
  6
Continuous
 62
     7
370
    15
100
AcDbSpline
210
0.0
220
0.0
230
1.0
 70
     8
 71
     3
 72
    23
 73
    19
 74
     0
 42
0.000000001
 43
0.00000001
 40
0.0
 40
0.0
 40
0.0
 40
0.0
 40
0.1095674252695413
 40
0.2106570473717347
 40
0.3020024587326183
 40
0.3851432164195919
 40
0.4590126129308714
 40
0.5247192090460533
 40
0.5832266479388949
 40
0.6342083193258328
 40
0.681185727793256
 40
0.7262751343643206
 40
0.7701133344783277
 40
0.8140800070141069
 40
0.8579941680783126
 40
0.9033387195085207
 40
0.9505447828389814
 40
1.0
 40
1.0
 40
1.0
 40
1.0
 10
56.38621794871797
 20
17.77913252938942
 30
0.0
 10
56.42708888501316
 20
17.7793660235287
 30
0.0
 10
56.50566836009052
 20
17.77981494514786
 30
0.0
 10
56.61823331890505
 20
17.78523898589347
 30
0.0
 10
56.7205830077221
 20
17.79501486363042
 30
0.0
 10
56.81244623847974
 20
17.80721925949772
 30
0.0
 10
56.89396371710625
 20
17.82375430698062
 30
0.0
 10
56.96485989501196
 20
17.84477650077637
 30
0.0
 10
57.0261070213738
 20
17.86790457551077
 30
0.0
 10
57.07733785539081
 20
17.89647049386103
 30
0.0
 10
57.11919051191661
 20
17.92971413897235
 30
0.0
 10
57.1569581463537
 20
17.96368994283459
 30
0.0
 10
57.18775152210036
 20
18.00288424251014
 30
0.0
 10
57.21211581563927
 20
18.04561453534125
 30
0.0
 10
57.23320306867021
 20
18.09081937001078
 30
0.0
 10
57.24592141058906
 20
18.14026397904371
 30
0.0
 10
57.2556047097568
 20
18.19248294280376
 30
0.0
 10
57.25613760763124
 20
18.22860167076223
 30
0.0
 10
57.25641025641027
 20
18.24708124733813
 30
0.0
  0
SPLINE
  5
B1
330
1F
100
AcDbEntity
  8
0
  6
Continuous
 62
     7
370
    15
100
AcDbSpline
210
0.0
220
0.0
230
1.0
 70
     8
 71
     3
 72
    15
 73
    11
 74
     0
 42
0.000000001
 43
0.00000001
 40
0.0
 40
0.0
 40
0.0
 40
0.0
 40
0.1639957318060758
 40
0.3173286319587165
 40
0.458059894627542
 40
0.5891583945859027
 40
0.7079520097453088
 40
0.8163219998754467
 40
0.913584729600319
 40
0.9999999999999999
 40
0.9999999999999999
 40
0.9999999999999999
 40
0.9999999999999999
 10
56.10256410256412
 20
21.0611838114407
 30
0.0
 10
56.14743990559193
 20
21.06118893288043
 30
0.0
 10
56.23427373368021
 20
21.06119884276923
 30
0.0
 10
56.35955228603348
 20
21.05679947131511
 30
0.0
 10
56.47573756324782
 20
21.05110839148477
 30
0.0
 10
56.58245981874114
 20
21.04474139657672
 30
0.0
 10
56.67990070118415
 20
21.03376979223187
 30
0.0
 10
56.76791203582357
 20
21.02220691970179
 30
0.0
 10
56.84666966983852
 20
21.00826280811896
 30
0.0
 10
56.89536123529673
 20
20.99575450801073
 30
0.0
 10
56.91826923076925
 20
20.98986970887659
 30
0.0
  0
SPLINE
  5
B2
330
1F
100
AcDbEntity
  8
0
  6
Continuous
 62
     7
370
    15
100
AcDbSpline
210
0.0
220
0.0
230
1.0
 70
     8
 71
     3
 72
    15
 73
    11
 74
     0
 42
0.000000001
 43
0.00000001
 40
0.0
 40
0.0
 40
0.0
 40
0.0
 40
0.123269560600463
 40
0.2426409842839864
 40
0.3594273839391143
 40
0.4755502191345228
 40
0.5938976740482419
 40
0.7202015971643201
 40
0.854465314877661
 40
1.0
 40
1.0
 40
1.0
 40
1.0
 10
57.71794871794874
 20
20.01791458067147
 30
0.0
 10
57.7165798314158
 20
19.98046793042579
 30
0.0
 10
57.71388534646669
 20
19.90675880037381
 30
0.0
 10
57.69667279311218
 20
19.79849342386552
 30
0.0
 10
57.6643965737652
 20
19.69616708172203
 30
0.0
 10
57.62216392574856
 20
19.59789393805811
 30
0.0
 10
57.56474072815784
 20
19.50404055241217
 30
0.0
 10
57.49182437297821
 20
19.41465154946294
 30
0.0
 10
57.40459586632778
 20
19.32697450780098
 30
0.0
 10
57.33768678643244
 20
19.2744180354556
 30
0.0
 10
57.30288461538463
 20
19.24708124733813
 30
0.0
  0
SPLINE
  5
B3
330
1F
100
AcDbEntity
  8
0
  6
Continuous
 62
     7
370
    15
100
AcDbSpline
210
0.0
220
0.0
230
1.0
 70
     8
 71
     3
 72
    23
 73
    19
 74
     0
 42
0.000000001
 43
0.00000001
 40
0.0
 40
0.0
 40
0.0
 40
0.0
 40
0.0802588853381378
 40
0.1583905883453957
 40
0.2362576248303796
 40
0.3151047653520842
 40
0.3932216786245967
 40
0.4687312831158801
 40
0.542781263915581
 40
0.6177081693395512
 40
0.6563652025204885
 40
0.6970796727899433
 40
0.7406969496811642
 40
0.78672866545331
 40
0.8355790921841488
 40
0.8872495053564264
 40
0.9418976668361564
 40
1.0
 40
1.0
 40
1.0
 40
1.0
 10
57.97435897435899
 20
18.21903637554326
 30
0.0
 10
57.97210504938489
 20
18.16440453302027
 30
0.0
 10
57.96765693748765
 20
18.05658881089613
 30
0.0
 10
57.93513451373495
 20
17.89829056925527
 30
0.0
 10
57.87875096485632
 20
17.74820947853998
 30
0.0
 10
57.80303948538343
 20
17.60694202525387
 30
0.0
 10
57.70974837561584
 20
17.47857767024264
 30
0.0
 10
57.60249035228845
 20
17.36613160967107
 30
0.0
 10
57.48234525768423
 20
17.27094851572268
 30
0.0
 10
57.37149688643797
 20
17.2067073113675
 30
0.0
 10
57.27562177471233
 20
17.16359545590998
 30
0.0
 10
57.19621021096888
 20
17.13694098818287
 30
0.0
 10
57.11092387476003
 20
17.11224832956031
 30
0.0
 10
57.01820052523985
 20
17.0949086348236
 30
0.0
 10
56.91972111028268
 20
17.07903743948777
 30
0.0
 10
56.81452544936568
 20
17.06923823473835
 30
0.0
 10
56.7028101512787
 20
17.06259755512842
 30
0.0
 10
56.62607925545747
 20
17.06166458666583
 30
0.0
 10
56.58653846153848
 20
17.0611838114407
 30
0.0
  0
SPLINE
  5
B6
330
1F
100
AcDbEntity
  8
0
  6
Continuous
 62
     7
370
    15
100
AcDbSpline
210
0.0
220
0.0
230
1.0
 70
     8
 71
     3
 72
    19
 73
    15
 74
     0
 42
0.000000001
 43
0.00000001
 40
0.0
 40
0.0
 40
0.0
 40
0.0
 40
0.0887762289654545
 40
0.1713771372145569
 40
0.248113811366844
 40
0.3211611878976156
 40
0.3880331325497764
 40
0.4520913744364397
 40
0.5122677074822244
 40
0.5688662368266968
 40
0.6769360002929842
 40
0.7810117272007104
 40
0.886917646213263
 40
1.0
 40
1.0
 40
1.0
 40
1.0
 10
56.37019230769233
 20
19.47144022169711
 30
0.0
 10
56.39611084801975
 20
19.47166624117627
 30
0.0
 10
56.44614502151254
 20
19.47210255810191
 30
0.0
 10
56.51841407796246
 20
19.47772216859716
 30
0.0
 10
56.58561262942459
 20
19.48730957317051
 30
0.0
 10
56.64748580629442
 20
19.50068641428916
 30
0.0
 10
56.70460997968655
 20
19.51767305214301
 30
0.0
 10
56.75662022392529
 20
19.53811163575035
 30
0.0
 10
56.80328785937154
 20
19.56304892930198
 30
0.0
 10
56.85750485813416
 20
19.60019412850413
 30
0.0
 10
56.91481613560018
 20
19.65485495215286
 30
0.0
 10
56.96526660859498
 20
19.73382383716206
 30
0.0
 10
56.99498160030377
 20
19.82463775446405
 30
0.0
 10
56.99829104893822
 20
19.88868676075441
 30
0.0
 10
57.00000000000001
 20
19.92176073451762
 30
0.0
  0
SPLINE
  5
B9
330
1F
100
AcDbEntity
  8
0
  6
Continuous
 62
     7
370
    15
100
AcDbSpline
210
0.0
220
0.0
230
1.0
 70
     8
 71
     3
 72
    23
 73
    19
 74
     0
 42
0.000000001
 43
0.00000001
 40
0.0
 40
0.0
 40
0.0
 40
0.0
 40
0.068749766315284
 40
0.134909112145229
 40
0.1997210700545292
 40
0.2629736746369468
 40
0.3253570233490405
 40
0.3873361409887318
 40
0.4494074874297909
 40
0.5111175193516616
 40
0.5724725853513711
 40
0.633077171967722
 40
0.6928610080890976
 40
0.7525606967546162
 40
0.8127375856307913
 40
0.8734793127278785
 40
0.9357764600655787
 40
1.0
 40
1.0
 40
1.0
 40
1.0
 10
56.91826923076925
 20
20.98986970887659
 30
0.0
 10
56.94834975466856
 20
20.9815690948768
 30
0.0
 10
57.00737739926463
 20
20.96528062547549
 30
0.0
 10
57.09192382335877
 20
20.93238535758021
 30
0.0
 10
57.17212790018254
 20
20.89581993506252
 30
0.0
 10
57.24789170275601
 20
20.85410562679238
 30
0.0
 10
57.31875001114765
 20
20.80673882418246
 30
0.0
 10
57.38443353965117
 20
20.75334361003148
 30
0.0
 10
57.4463589194477
 20
20.69606326594084
 30
0.0
 10
57.5023273216746
 20
20.63330140496973
 30
0.0
 10
57.55291353580466
 20
20.56698187287849
 30
0.0
 10
57.59686388620922
 20
20.49712204719215
 30
0.0
 10
57.63505110760485
 20
20.42479013024809
 30
0.0
 10
57.66561088717305
 20
20.3490758729643
 30
0.0
 10
57.68863710695002
 20
20.27032795998139
 30
0.0
 10
57.70547838802827
 20
20.18888265707658
 30
0.0
 10
57.71639381868119
 20
20.10448225126503
 30
0.0
 10
57.71742518370257
 20
20.0470618965867
 30
0.0
 10
57.71794871794874
 20
20.01791458067147
 30
0.0
  0
SPLINE
  5
BA
330
1F
100
AcDbEntity
  8
0
  6
Continuous
 62
     7
370
    15
100
AcDbSpline
210
0.0
220
0.0
230
1.0
 70
     8
 71
     3
 72
    19
 73
    15
 74
     0
 42
0.000000001
 43
0.00000001
 40
0.0
 40
0.0
 40
0.0
 40
0.0
 40
0.1123318680474732
 40
0.217189152447907
 40
0.3207763822148927
 40
0.4294461252394107
 40
0.486889524848174
 40
0.5473481609653136
 40
0.6105516098532333
 40
0.6785404198027605
 40
0.7510057638701948
 40
0.8285633445446995
 40
0.911493803570982
 40
1.0
 40
1.0
 40
1.0
 40
1.0
 10
57.00000000000001
 20
19.92176073451762
 30
0.0
 10
56.99863252629596
 20
19.95274000613954
 30
0.0
 10
56.99598857084553
 20
20.01263718281762
 30
0.0
 10
56.96606939471563
 20
20.0967381533351
 30
0.0
 10
56.91959899925182
 20
20.17126882545904
 30
0.0
 10
56.86473416580603
 20
20.22227897547328
 30
0.0
 10
56.81306826397958
 20
20.25711740404174
 30
0.0
 10
56.76882874832194
 20
20.28005702568354
 30
0.0
 10
56.72027255793309
 20
20.30059234052107
 30
0.0
 10
56.66645969698121
 20
20.31629414273134
 30
0.0
 10
56.60769746641498
 20
20.32807622224798
 30
0.0
 10
56.54427130718174
 20
20.33672874864429
 30
0.0
 10
56.47607178727097
 20
20.34261802621422
 30
0.0
 10
56.4289662337665
 20
20.34302499239745
 30
0.0
 10
56.40464743589745
 20
20.34323509349198
 30
0.0
  0
SPLINE
  5
BB
330
1F
100
AcDbEntity
  8
0
  6
Continuous
 62
     7
370
    15
100
AcDbSpline
210
0.0
220
0.0
230
1.0
 70
     8
 71
     3
 72
    23
 73
    19
 74
     0
 42
0.000000001
 43
0.00000001
 40
0.0
 40
0.0
 40
0.0
 40
0.0
 40
0.0528263492812297
 40
0.1028915173965589
 40
0.1516981461048776
 40
0.1995775881235318
 40
0.2472235843729619
 40
0.2957231203836684
 40
0.3462538147999394
 40
0.3985071702228987
 40
0.4542901722394602
 40
0.5140415865121251
 40
0.5790927186074071
 40
0.6500371484472951
 40
0.7274510007645203
 40
0.8114520065892891
 40
0.9024758798237954
 40
1.0
 40
1.0
 40
1.0
 40
1.0
 10
57.25641025641027
 20
18.24708124733813
 30
0.0
 10
57.25580898760523
 20
18.26821293381042
 30
0.0
 10
57.25463787772246
 20
18.30937177434862
 30
0.0
 10
57.24507340909764
 20
18.36952981236231
 30
0.0
 10
57.22769164529963
 20
18.42569133234084
 30
0.0
 10
57.20579846572026
 20
18.47929246011209
 30
0.0
 10
57.17533294313132
 20
18.52841408859558
 30
0.0
 10
57.13912571067774
 20
18.57475613107776
 30
0.0
 10
57.09537813069449
 20
18.6167493029663
 30
0.0
 10
57.04618142484567
 20
18.65693350824835
 30
0.0
 10
56.98879833823645
 20
18.69211695705611
 30
0.0
 10
56.92320194837834
 20
18.72264483091886
 30
0.0
 10
56.84903589997948
 20
18.74814058694071
 30
0.0
 10
56.76607045585363
 20
18.76844032460964
 30
0.0
 10
56.67466933007035
 20
18.78566843138213
 30
0.0
 10
56.57416539482297
 20
18.79595551295972
 30
0.0
 10
56.46539568178844
 20
18.80360646762832
 30
0.0
 10
56.38997299262302
 20
18.80437568621815
 30
0.0
 10
56.35096153846155
 20
18.80477355503044
 30
0.0
  0
SPLINE
  5
BC
330
1F
100
AcDbEntity
  8
0
  6
Continuous
 62
     7
370
    15
100
AcDbSpline
210
0.0
220
0.0
230
1.0
 70
     8
 71
     3
 72
    23
 73
    19
 74
     0
 42
0.000000001
 43
0.00000001
 40
0.0
 40
0.0
 40
0.0
 40
0.0
 40
0.0727911822673713
 40
0.1427233695565051
 40
0.2094912699928579
 40
0.2747163184918683
 40
0.3368863886768227
 40
0.3976856020239929
 40
0.457053749776115
 40
0.5153125941662606
 40
0.5728222022221223
 40
0.6307760073985095
 40
0.6895054947089518
 40
0.7487432781628002
 40
0.8092253247292983
 40
0.8707153202239947
 40
0.9342652493244613
 40
1.0
 40
1.0
 40
1.0
 40
1.0
 10
57.30288461538463
 20
19.24708124733813
 30
0.0
 10
57.33108662520856
 20
19.23268436589256
 30
0.0
 10
57.38638296392651
 20
19.20445606451025
 30
0.0
 10
57.46488751977807
 20
19.1580571636733
 30
0.0
 10
57.53757416905543
 20
19.10870604802267
 30
0.0
 10
57.60476881665181
 20
19.05739568185452
 30
0.0
 10
57.66506197793476
 20
19.0019509443952
 30
0.0
 10
57.72094325876474
 20
18.94556663755797
 30
0.0
 10
57.7696557667913
 20
18.88501217504801
 30
0.0
 10
57.81321595963758
 20
18.8224458332209
 30
0.0
 10
57.85107777124981
 20
18.75696164419434
 30
0.0
 10
57.88405123411643
 20
18.68867019600842
 30
0.0
 10
57.91190273543383
 20
18.61733819021234
 30
0.0
 10
57.93548810711746
 20
18.54332864896175
 30
0.0
 10
57.95307808357258
 20
18.46638701406077
 30
0.0
 10
57.96454712228346
 20
18.38648576798164
 30
0.0
 10
57.97332853520933
 20
18.30389741460439
 30
0.0
 10
57.97401164660589
 20
18.24764029071127
 30
0.0
 10
57.97435897435899
 20
18.21903637554326
 30
0.0
  0
SPLINE
  5
BE
330
1F
100
AcDbEntity
  8
0
  6
Continuous
 62
     7
370
    15
100
AcDbSpline
210
0.0
220
0.0
230
1.0
 70
     8
 71
     3
 72
    15
 73
    11
 74
     0
 42
0.000000001
 43
0.00000001
 40
0.0
 40
0.0
 40
0.0
 40
0.0
 40
0.1624203072014369
 40
0.3118243397330493
 40
0.4484327667925782
 40
0.57338119688605
 40
0.6890771468735414
 40
0.7975729005012525
 40
0.9002930430775793
 40
0.9999999999999999
 40
0.9999999999999999
 40
0.9999999999999999
 40
0.9999999999999999
 10
42.57339743589743
 20
20.03554278579967
 30
0.0
 10
42.55040069943634
 20
20.06798207333379
 30
0.0
 10
42.50625017240833
 20
20.13026098162443
 30
0.0
 10
42.43468677318318
 20
20.21365390769161
 30
0.0
 10
42.36344651938634
 20
20.28479427965596
 30
0.0
 10
42.29186941339054
 20
20.3433849059027
 30
0.0
 10
42.2193210229685
 20
20.38906980479268
 30
0.0
 10
42.14592728152543
 20
20.42141521787975
 30
0.0
 10
42.07210427871372
 20
20.4419775039339
 30
0.0
 10
42.02250661646199
 20
20.44453800327195
 30
0.0
 10
41.99807692307692
 20
20.44579919605608
 30
0.0
  0
SPLINE
  5
BF
330
1F
100
AcDbEntity
  8
0
  6
Continuous
 62
     7
370
    15
100
AcDbSpline
210
0.0
220
0.0
230
1.0
 70
     8
 71
     3
 72
    15
 73
    11
 74
     0
 42
0.000000001
 43
0.00000001
 40
0.0
 40
0.0
 40
0.0
 40
0.0
 40
0.1481262583591528
 40
0.2859928874897002
 40
0.4166343935606197
 40
0.5473799458012549
 40
0.6715828376102096
 40
0.7844007386959884
 40
0.8932655763009587
 40
1.0
 40
1.0
 40
1.0
 40
1.0
 10
41.99807692307692
 20
20.44579919605608
 30
0.0
 10
41.97528960583058
 20
20.44500004645364
 30
0.0
 10
41.93129328316899
 20
20.44345709853292
 30
0.0
 10
41.86857326122249
 20
20.42812031120201
 30
0.0
 10
41.81288953251303
 20
20.40165126853074
 30
0.0
 10
41.76429644190138
 20
20.36704076849002
 30
0.0
 10
41.72580354481379
 20
20.32534313992532
 30
0.0
 10
41.69506995153085
 20
20.28161304892716
 30
0.0
 10
41.67776435599232
 20
20.23334491826808
 30
0.0
 10
41.67548659912492
 20
20.20019241902116
 30
0.0
 10
41.67435897435897
 20
20.18377996528685
 30
0.0
  0
SPLINE
  5
C0
330
1F
100
AcDbEntity
  8
0
  6
Continuous
 62
     7
370
    15
100
AcDbSpline
210
0.0
220
0.0
230
1.0
 70
     8
 71
     3
 72
    15
 73
    11
 74
     0
 42
0.000000001
 43
0.00000001
 40
0.0
 40
0.0
 40
0.0
 40
0.0
 40
0.0592341891229406
 40
0.1363492805279896
 40
0.2338052120618178
 40
0.3494112238568964
 40
0.4831791503491696
 40
0.6359668555591169
 40
0.8092433563675954
 40
1.0
 40
1.0
 40
1.0
 40
1.0
 10
41.74086538461538
 20
19.99227355503044
 30
0.0
 10
41.75006448474394
 20
19.98066012454788
 30
0.0
 10
41.77123959834993
 20
19.95392754131841
 30
0.0
 10
41.81161620307307
 20
19.91158729658442
 30
0.0
 10
41.86232073884099
 20
19.85971679067288
 30
0.0
 10
41.92530442289313
 20
19.80009969828723
 30
0.0
 10
41.99795262935179
 20
19.73059195562805
 30
0.0
 10
42.08363269636585
 20
19.65392593851306
 30
0.0
 10
42.17987837796443
 20
19.56772738949556
 30
0.0
 10
42.24828757862301
 20
19.50770184138597
 30
0.0
 10
42.2841346153846
 20
19.4762479140048
 30
0.0
  0
SPLINE
  5
C1
330
1F
100
AcDbEntity
  8
0
  6
Continuous
 62
     7
370
    15
100
AcDbSpline
210
0.0
220
0.0
230
1.0
 70
     8
 71
     3
 72
    15
 73
    11
 74
     0
 42
0.000000001
 43
0.00000001
 40
0.0
 40
0.0
 40
0.0
 40
0.0
 40
0.1929527021649379
 40
0.3661841413840586
 40
0.5204572982944609
 40
0.655012135190013
 40
0.7706242255760047
 40
0.8656771846793715
 40
0.9426745273198684
 40
1.0
 40
1.0
 40
1.0
 40
1.0
 10
42.2841346153846
 20
19.4762479140048
 30
0.0
 10
42.3177822159195
 20
19.44712761294121
 30
0.0
 10
42.38163837120139
 20
19.39186333147654
 30
0.0
 10
42.47249299949495
 20
19.31342455715576
 30
0.0
 10
42.55233908608098
 20
19.24285510449046
 30
0.0
 10
42.62233980623105
 20
19.18121406996033
 30
0.0
 10
42.68143401730928
 20
19.12785469798655
 30
0.0
 10
42.72987015157425
 20
19.08252193138928
 30
0.0
 10
42.76823977428992
 20
19.04609831576157
 30
0.0
 10
42.79005065821381
 20
19.0240984297646
 30
0.0
 10
42.79935897435897
 20
19.01470945246634
 30
0.0
  0
SPLINE
  5
C2
330
1F
100
AcDbEntity
  8
0
  6
Continuous
 62
     7
370
    15
100
AcDbSpline
210
0.0
220
0.0
230
1.0
 70
     8
 71
     3
 72
    15
 73
    11
 74
     0
 42
0.000000001
 43
0.00000001
 40
0.0
 40
0.0
 40
0.0
 40
0.0
 40
0.1508330973407567
 40
0.2899541833158778
 40
0.4171386481520551
 40
0.5352551839062618
 40
0.6487510952936697
 40
0.7624054615861229
 40
0.8798267012501036
 40
1.0
 40
1.0
 40
1.0
 40
1.0
 10
42.79935897435897
 20
19.01470945246634
 30
0.0
 10
42.83467278519041
 20
18.9764923460415
 30
0.0
 10
42.90255833126701
 20
18.90302564624236
 30
0.0
 10
42.99078560993644
 20
18.78917536635154
 30
0.0
 10
43.06339951414532
 20
18.6780342786399
 30
0.0
 10
43.11957500742639
 20
18.56751108325081
 30
0.0
 10
43.16200099934591
 20
18.45601115045578
 30
0.0
 10
43.19191188566886
 20
18.34079995045063
 30
0.0
 10
43.20982571450505
 20
18.22067359839524
 30
0.0
 10
43.21181456774867
 20
18.13870202770972
 30
0.0
 10
43.21282051282051
 20
18.09724150374839
 30
0.0
  0
SPLINE
  5
C3
330
1F
100
AcDbEntity
  8
0
  6
Continuous
 62
     7
370
    15
100
AcDbSpline
210
0.0
220
0.0
230
1.0
 70
     8
 71
     3
 72
    23
 73
    19
 74
     0
 42
0.000000001
 43
0.00000001
 40
0.0
 40
0.0
 40
0.0
 40
0.0
 40
0.0652008752881556
 40
0.1279265440230309
 40
0.189046910018968
 40
0.2485436930694606
 40
0.3076071270223472
 40
0.3672476600602129
 40
0.426963055721322
 40
0.4886171282353916
 40
0.550391854627126
 40
0.6113307342255613
 40
0.6725560854310856
 40
0.7340241906291943
 40
0.7973406208369381
 40
0.862249627316581
 40
0.9296254660746972
 40
1.0
 40
1.0
 40
1.0
 40
1.0
 10
43.21282051282051
 20
18.09724150374839
 30
0.0
 10
43.21210450687404
 20
18.05684330783598
 30
0.0
 10
43.21069967655809
 20
17.97758054387766
 30
0.0
 10
43.19349319923342
 20
17.86159129547329
 30
0.0
 10
43.16895777247753
 20
17.75058455075699
 30
0.0
 10
43.13102169844763
 20
17.64576822003728
 30
0.0
 10
43.08478543608118
 20
17.54542177519254
 30
0.0
 10
43.02682160339526
 20
17.45110829476679
 30
0.0
 10
42.95875102988861
 20
17.3618732877857
 30
0.0
 10
42.88073170092068
 20
17.27931193911745
 30
0.0
 10
42.79443305871436
 20
17.20439323771077
 30
0.0
 10
42.70186956327108
 20
17.13769884019709
 30
0.0
 10
42.60213608214131
 20
17.08263411975099
 30
0.0
 10
42.49608472247077
 20
17.03729225017712
 30
0.0
 10
42.38377225114788
 20
17.00236933595952
 30
0.0
 10
42.2653324661819
 20
16.97655804756291
 30
0.0
 10
42.14058420584352
 20
16.9610665191363
 30
0.0
 10
42.05527954778847
 20
16.95944706363406
 30
0.0
 10
42.01169871794871
 20
16.95861970887659
 30
0.0
  0
SPLINE
  5
C4
330
1F
100
AcDbEntity
  8
0
  6
Continuous
 62
     7
370
    15
100
AcDbSpline
210
0.0
220
0.0
230
1.0
 70
     8
 71
     3
 72
    23
 73
    19
 74
     0
 42
0.000000001
 43
0.00000001
 40
0.0
 40
0.0
 40
0.0
 40
0.0
 40
0.0635514822357805
 40
0.1258683816453882
 40
0.186240250213675
 40
0.2449766506319414
 40
0.3033576876770637
 40
0.3612303170408043
 40
0.4184890490283526
 40
0.4759367117285744
 40
0.534203743819121
 40
0.59405942896754
 40
0.6554686942598745
 40
0.718771684899888
 40
0.7849746072190587
 40
0.8535223163767042
 40
0.925182450771933
 40
1.0
 40
1.0
 40
1.0
 40
1.0
 10
42.01169871794871
 20
16.95861970887659
 30
0.0
 10
41.97748813764105
 20
16.95922662736166
 30
0.0
 10
41.90973156884068
 20
16.96042867403024
 30
0.0
 10
41.80986863002734
 20
16.97024238455363
 30
0.0
 10
41.71343967371809
 20
16.9860806691939
 30
0.0
 10
41.62055331851862
 20
17.00878166238488
 30
0.0
 10
41.53079109499626
 20
17.03754689965362
 30
0.0
 10
41.44414931674274
 20
17.07268253503907
 30
0.0
 10
41.36122610072002
 20
17.11473315772958
 30
0.0
 10
41.28139401056288
 20
17.16283403973108
 30
0.0
 10
41.20504112874552
 20
17.21868549976881
 30
0.0
 10
41.13120200310918
 20
17.28114567302002
 30
0.0
 10
41.06061007395873
 20
17.35117522489114
 30
0.0
 10
40.99292630257159
 20
17.42860853819955
 30
0.0
 10
40.92858374858769
 20
17.51366488548935
 30
0.0
 10
40.86547624933584
 20
17.60515969971864
 30
0.0
 10
40.80640849197935
 20
17.70479100042493
 30
0.0
 10
40.76991971074491
 20
17.77468316381983
 30
0.0
 10
40.75128205128205
 20
17.81038252938941
 30
0.0
  0
SPLINE
  5
C6
330
1F
100
AcDbEntity
  8
0
  6
Continuous
 62
     7
370
    15
100
AcDbSpline
210
0.0
220
0.0
230
1.0
 70
     8
 71
     3
 72
    15
 73
    11
 74
     0
 42
0.000000001
 43
0.00000001
 40
0.0
 40
0.0
 40
0.0
 40
0.0
 40
0.1604579205559369
 40
0.3076115473748586
 40
0.4421388877557719
 40
0.5662291941703317
 40
0.681222208015215
 40
0.7895580052436296
 40
0.8950288924051392
 40
0.9999999999999999
 40
0.9999999999999999
 40
0.9999999999999999
 40
0.9999999999999999
 10
41.38269230769231
 20
18.18938893964583
 30
0.0
 10
41.40600523413049
 20
18.1488654953092
 30
0.0
 10
41.45069810657107
 20
18.07117858914616
 30
0.0
 10
41.52643435712796
 20
17.96679638453864
 30
0.0
 10
41.60402227937347
 20
17.87741030470984
 30
0.0
 10
41.68525563655166
 20
17.80460025435438
 30
0.0
 10
41.76914666143507
 20
17.74739266951153
 30
0.0
 10
41.8561005671677
 20
17.70650816058954
 30
0.0
 10
41.94617844588968
 20
17.68120069581667
 30
0.0
 10
42.00753540468925
 20
17.67811006984228
 30
0.0
 10
42.03814102564102
 20
17.67656842682531
 30
0.0
  0
SPLINE
  5
C7
330
1F
100
AcDbEntity
  8
0
  6
Continuous
 62
     7
370
    15
100
AcDbSpline
210
0.0
220
0.0
230
1.0
 70
     8
 71
     3
 72
    19
 73
    15
 74
     0
 42
0.000000001
 43
0.00000001
 40
0.0
 40
0.0
 40
0.0
 40
0.0
 40
0.0763466063531728
 40
0.1550908218146649
 40
0.2383515612585584
 40
0.328404139932991
 40
0.3793838595513629
 40
0.4396176441748249
 40
0.5098314158313146
 40
0.5888746449969573
 40
0.6774363544094563
 40
0.7755467196196746
 40
0.8826358717258577
 40
1.0
 40
1.0
 40
1.0
 40
1.0
 10
42.49487179487179
 20
18.05557483708172
 30
0.0
 10
42.49355472024969
 20
18.07839970942873
 30
0.0
 10
42.49087920924416
 20
18.12476625247764
 30
0.0
 10
42.4711722197144
 20
18.19370584617538
 30
0.0
 10
42.44036418417147
 20
18.26261408756782
 30
0.0
 10
42.40391610561205
 20
18.31913449143505
 30
0.0
 10
42.36682562177265
 20
18.36645749346633
 30
0.0
 10
42.33135875344433
 20
18.40746073403961
 30
0.0
 10
42.28816948993867
 20
18.45276213652899
 30
0.0
 10
42.23736734017888
 20
18.50241868666325
 30
0.0
 10
42.17962353311805
 20
18.55686752361853
 30
0.0
 10
42.11488942708233
 20
18.61610331554981
 30
0.0
 10
42.04242374807674
 20
18.67960426597573
 30
0.0
 10
41.99120486317201
 20
18.72286048602993
 30
0.0
 10
41.96442307692308
 20
18.74547868323557
 30
0.0
  0
SPLINE
  5
C8
330
1F
100
AcDbEntity
  8
0
  6
Continuous
 62
     7
370
    15
100
AcDbSpline
210
0.0
220
0.0
230
1.0
 70
     8
 71
     3
 72
    19
 73
    15
 74
     0
 42
0.000000001
 43
0.00000001
 40
0.0
 40
0.0
 40
0.0
 40
0.0
 40
0.112124581279745
 40
0.2152010090762407
 40
0.309902452493477
 40
0.3959590963320921
 40
0.4734474940003322
 40
0.5421403275660306
 40
0.6025233330554105
 40
0.6547263328340142
 40
0.7478040553141025
 40
0.8352784168250095
 40
0.9189252427194498
 40
0.9999999999999999
 40
0.9999999999999999
 40
0.9999999999999999
 40
0.9999999999999999
 10
41.96442307692308
 20
18.74547868323557
 30
0.0
 10
41.91350983532359
 20
18.7885561678117
 30
0.0
 10
41.81579191439586
 20
18.8712348993034
 30
0.0
 10
41.67770409447106
 20
18.99334878295171
 30
0.0
 10
41.55327460450307
 20
19.10747539641535
 30
0.0
 10
41.44357815119763
 20
19.2150255941215
 30
0.0
 10
41.34721703203837
 20
19.31401317315361
 30
0.0
 10
41.2648438463933
 20
19.40524214849536
 30
0.0
 10
41.19736350116337
 20
19.48941622691459
 30
0.0
 10
41.12635498841752
 20
19.58911479000457
 30
0.0
 10
41.0588827040863
 20
19.71060433955929
 30
0.0
 10
41.0005675034174
 20
19.85677035147768
 30
0.0
 10
40.96273506253565
 20
20.00291781709656
 30
0.0
 10
40.95849646371713
 20
20.10103317583296
 30
0.0
 10
40.95641025641025
 20
20.14932483708172
 30
0.0
  0
SPLINE
  5
C9
330
1F
100
AcDbEntity
  8
0
  6
Continuous
 62
     7
370
    15
100
AcDbSpline
210
0.0
220
0.0
230
1.0
 70
     8
 71
     3
 72
    23
 73
    19
 74
     0
 42
0.000000001
 43
0.00000001
 40
0.0
 40
0.0
 40
0.0
 40
0.0
 40
0.0631728801065209
 40
0.1244573597770011
 40
0.1848409152554606
 40
0.2445668214643692
 40
0.3043191726186561
 40
0.3651997864614165
 40
0.4274209827764745
 40
0.4912616890772863
 40
0.5554990019310211
 40
0.6186045181428789
 40
0.6804947639253093
 40
0.7424733052606087
 40
0.8049906647647718
 40
0.8682519711837811
 40
0.9328872172654784
 40
1.0
 40
1.0
 40
1.0
 40
1.0
 10
40.95641025641025
 20
20.14932483708172
 30
0.0
 10
40.95727790724919
 20
20.18357069122976
 30
0.0
 10
40.9589872726041
 20
20.25103870255657
 30
0.0
 10
40.97423507526358
 20
20.35024058282965
 30
0.0
 10
40.99702349725006
 20
20.44596206201866
 30
0.0
 10
41.03011882832737
 20
20.53785390455959
 30
0.0
 10
41.07307257198499
 20
20.62580101222048
 30
0.0
 10
41.12523822518914
 20
20.71023392310889
 30
0.0
 10
41.1874258216788
 20
20.79037553578314
 30
0.0
 10
41.25750704463844
 20
20.86617272200402
 30
0.0
 10
41.33471860956441
 20
20.93544272454084
 30
0.0
 10
41.41722897886145
 20
20.99658044263815
 30
0.0
 10
41.50457113655197
 20
21.04821824833314
 30
0.0
 10
41.59621076754159
 20
21.09105555771307
 30
0.0
 10
41.69271572449285
 20
21.1238447968036
 30
0.0
 10
41.79337505980935
 20
21.14708744382252
 30
0.0
 10
41.89833315091205
 20
21.16091142905795
 30
0.0
 10
41.96972337891388
 20
21.1627906394343
 30
0.0
 10
42.00608974358973
 20
21.1637479140048
 30
0.0
  0
SPLINE
  5
CA
330
1F
100
AcDbEntity
  8
0
  6
Continuous
 62
     7
370
    15
100
AcDbSpline
210
0.0
220
0.0
230
1.0
 70
     8
 71
     3
 72
    19
 73
    15
 74
     0
 42
0.000000001
 43
0.00000001
 40
0.0
 40
0.0
 40
0.0
 40
0.0
 40
0.1069102197112031
 40
0.2129765276064964
 40
0.319776675957772
 40
0.4285562728491955
 40
0.4858568032784273
 40
0.5465586866406915
 40
0.6114314979175142
 40
0.679820910072492
 40
0.7531585046908267
 40
0.8307528691562656
 40
0.9131330746557025
 40
0.9999999999999999
 40
0.9999999999999999
 40
0.9999999999999999
 40
0.9999999999999999
 10
42.00608974358973
 20
21.1637479140048
 30
0.0
 10
42.05321875228938
 20
21.1620238344559
 30
0.0
 10
42.14710474980676
 20
21.158589284638
 30
0.0
 10
42.28591790497852
 20
21.13173222738619
 30
0.0
 10
42.421504791227
 20
21.08949667585978
 30
0.0
 10
42.53076324520158
 20
21.03854412967826
 30
0.0
 10
42.61769815760331
 20
20.98918637408221
 30
0.0
 10
42.68432564712725
 20
20.94374397019134
 30
0.0
 10
42.7521227040336
 20
20.89168725416786
 30
0.0
 10
42.82163606953042
 20
20.83285218155942
 30
0.0
 10
42.89157407764787
 20
20.76613022232916
 30
0.0
 10
42.96392540042526
 20
20.69310974524106
 30
0.0
 10
43.03770416265353
 20
20.61315968260464
 30
0.0
 10
43.08564866021769
 20
20.55604372857659
 30
0.0
 10
43.11025641025641
 20
20.52672868323558
 30
0.0
  0
SPLINE
  5
CB
330
1F
100
AcDbEntity
  8
0
  6
Continuous
 62
     7
370
    15
100
AcDbSpline
210
0.0
220
0.0
230
1.0
 70
     8
 71
     3
 72
    15
 73
    11
 74
     0
 42
0.000000001
 43
0.00000001
 40
0.0
 40
0.0
 40
0.0
 40
0.0
 40
0.1419858925296691
 40
0.2754733105502101
 40
0.4043458426631384
 40
0.5354297108606308
 40
0.6614274010622528
 40
0.7778668404627646
 40
0.8882797492818449
 40
1.0
 40
1.0
 40
1.0
 40
1.0
 10
42.03814102564102
 20
17.67656842682531
 30
0.0
 10
42.06927132386118
 20
17.67782741610372
 30
0.0
 10
42.12966863627256
 20
17.68027003866496
 30
0.0
 10
42.21587807100703
 20
17.70283180681552
 30
0.0
 10
42.29491814500369
 20
17.73825543795136
 30
0.0
 10
42.36323980121187
 20
17.78880007477444
 30
0.0
 10
42.42109027202888
 20
17.8471362678767
 30
0.0
 10
42.46378724011442
 20
17.91203795007564
 30
0.0
 10
42.49060976345224
 20
17.98226000354542
 30
0.0
 10
42.49344555447966
 20
18.03104086099392
 30
0.0
 10
42.49487179487179
 20
18.05557483708172
 30
0.0
  0
SPLINE
  5
CC
330
1F
100
AcDbEntity
  8
0
  6
Continuous
 62
     7
370
    15
100
AcDbSpline
210
0.0
220
0.0
230
1.0
 70
     8
 71
     3
 72
    11
 73
     7
 74
     0
 42
0.000000001
 43
0.00000001
 40
0.0
 40
0.0
 40
0.0
 40
0.0
 40
0.2418813747501763
 40
0.4871154746783586
 40
0.7378378396464004
 40
1.0
 40
1.0
 40
1.0
 40
1.0
 10
41.67435897435897
 20
20.18377996528685
 30
0.0
 10
41.67506559963876
 20
20.16713083666065
 30
0.0
 10
41.67648864475308
 20
20.13360180532409
 30
0.0
 10
41.69023332345056
 20
20.08446083420412
 30
0.0
 10
41.71095047885661
 20
20.03644438497879
 30
0.0
 10
41.73074656665842
 20
20.00721448751606
 30
0.0
 10
41.74086538461538
 20
19.99227355503044
 30
0.0
  0
CIRCLE
  5
107
330
1F
100
AcDbEntity
  8
0
  6
Continuous
 62
     7
370
    15
100
AcDbCircle
 10
138.32
 20
13.0
 30
0.0
 40
4.299999999999955
  0
SPLINE
  5
14C
330
1F
100
AcDbEntity
  8
0
  6
Continuous
 62
     7
370
    15
100
AcDbSpline
210
0.0
220
0.0
230
1.0
 70
     8
 71
     3
 72
    15
 73
    11
 74
     0
 42
0.000000001
 43
0.00000001
 40
0.0
 40
0.0
 40
0.0
 40
0.0
 40
0.0592341891229406
 40
0.1363492805279896
 40
0.2338052120618178
 40
0.3494112238568964
 40
0.4831791503491696
 40
0.6359668555591169
 40
0.8092433563675954
 40
1.0
 40
1.0
 40
1.0
 40
1.0
 10
41.74086538461538
 20
19.99227355503044
 30
0.0
 10
41.75006448474394
 20
19.98066012454788
 30
0.0
 10
41.77123959834993
 20
19.95392754131841
 30
0.0
 10
41.81161620307307
 20
19.91158729658442
 30
0.0
 10
41.86232073884099
 20
19.85971679067288
 30
0.0
 10
41.92530442289313
 20
19.80009969828723
 30
0.0
 10
41.99795262935179
 20
19.73059195562805
 30
0.0
 10
42.08363269636585
 20
19.65392593851306
 30
0.0
 10
42.17987837796443
 20
19.56772738949556
 30
0.0
 10
42.24828757862301
 20
19.50770184138597
 30
0.0
 10
42.2841346153846
 20
19.4762479140048
 30
0.0
  0
SPLINE
  5
14D
330
1F
100
AcDbEntity
  8
0
  6
Continuous
 62
     7
370
    15
100
AcDbSpline
210
0.0
220
0.0
230
1.0
 70
     8
 71
     3
 72
    19
 73
    15
 74
     0
 42
0.000000001
 43
0.00000001
 40
0.0
 40
0.0
 40
0.0
 40
0.0
 40
0.1069102197112031
 40
0.2129765276064964
 40
0.319776675957772
 40
0.4285562728491955
 40
0.4858568032784273
 40
0.5465586866406915
 40
0.6114314979175142
 40
0.679820910072492
 40
0.7531585046908267
 40
0.8307528691562656
 40
0.9131330746557025
 40
0.9999999999999999
 40
0.9999999999999999
 40
0.9999999999999999
 40
0.9999999999999999
 10
42.00608974358973
 20
21.1637479140048
 30
0.0
 10
42.05321875228938
 20
21.1620238344559
 30
0.0
 10
42.14710474980676
 20
21.158589284638
 30
0.0
 10
42.28591790497852
 20
21.13173222738619
 30
0.0
 10
42.421504791227
 20
21.08949667585978
 30
0.0
 10
42.53076324520158
 20
21.03854412967826
 30
0.0
 10
42.61769815760331
 20
20.98918637408221
 30
0.0
 10
42.68432564712725
 20
20.94374397019134
 30
0.0
 10
42.7521227040336
 20
20.89168725416786
 30
0.0
 10
42.82163606953042
 20
20.83285218155942
 30
0.0
 10
42.89157407764787
 20
20.76613022232916
 30
0.0
 10
42.96392540042526
 20
20.69310974524106
 30
0.0
 10
43.03770416265353
 20
20.61315968260464
 30
0.0
 10
43.08564866021769
 20
20.55604372857659
 30
0.0
 10
43.11025641025641
 20
20.52672868323558
 30
0.0
  0
SPLINE
  5
14E
330
1F
100
AcDbEntity
  8
0
  6
Continuous
 62
     7
370
    15
100
AcDbSpline
210
0.0
220
0.0
230
1.0
 70
     8
 71
     3
 72
    15
 73
    11
 74
     0
 42
0.000000001
 43
0.00000001
 40
0.0
 40
0.0
 40
0.0
 40
0.0
 40
0.123269560600463
 40
0.2426409842839864
 40
0.3594273839391143
 40
0.4755502191345228
 40
0.5938976740482419
 40
0.7202015971643201
 40
0.854465314877661
 40
1.0
 40
1.0
 40
1.0
 40
1.0
 10
57.71794871794874
 20
20.01791458067147
 30
0.0
 10
57.7165798314158
 20
19.98046793042579
 30
0.0
 10
57.71388534646669
 20
19.90675880037381
 30
0.0
 10
57.69667279311218
 20
19.79849342386552
 30
0.0
 10
57.6643965737652
 20
19.69616708172203
 30
0.0
 10
57.62216392574856
 20
19.59789393805811
 30
0.0
 10
57.56474072815784
 20
19.50404055241217
 30
0.0
 10
57.49182437297821
 20
19.41465154946294
 30
0.0
 10
57.40459586632778
 20
19.32697450780098
 30
0.0
 10
57.33768678643244
 20
19.2744180354556
 30
0.0
 10
57.30288461538463
 20
19.24708124733813
 30
0.0
  0
SPLINE
  5
14F
330
1F
100
AcDbEntity
  8
0
  6
Continuous
 62
     7
370
    15
100
AcDbSpline
210
0.0
220
0.0
230
1.0
 70
     8
 71
     3
 72
    23
 73
    19
 74
     0
 42
0.000000001
 43
0.00000001
 40
0.0
 40
0.0
 40
0.0
 40
0.0
 40
0.0802588853381378
 40
0.1583905883453957
 40
0.2362576248303796
 40
0.3151047653520842
 40
0.3932216786245967
 40
0.4687312831158801
 40
0.542781263915581
 40
0.6177081693395512
 40
0.6563652025204885
 40
0.6970796727899433
 40
0.7406969496811642
 40
0.78672866545331
 40
0.8355790921841488
 40
0.8872495053564264
 40
0.9418976668361564
 40
1.0
 40
1.0
 40
1.0
 40
1.0
 10
57.97435897435899
 20
18.21903637554326
 30
0.0
 10
57.97210504938489
 20
18.16440453302027
 30
0.0
 10
57.96765693748765
 20
18.05658881089613
 30
0.0
 10
57.93513451373495
 20
17.89829056925527
 30
0.0
 10
57.87875096485632
 20
17.74820947853998
 30
0.0
 10
57.80303948538343
 20
17.60694202525387
 30
0.0
 10
57.70974837561584
 20
17.47857767024264
 30
0.0
 10
57.60249035228845
 20
17.36613160967107
 30
0.0
 10
57.48234525768423
 20
17.27094851572268
 30
0.0
 10
57.37149688643797
 20
17.2067073113675
 30
0.0
 10
57.27562177471233
 20
17.16359545590998
 30
0.0
 10
57.19621021096888
 20
17.13694098818287
 30
0.0
 10
57.11092387476003
 20
17.11224832956031
 30
0.0
 10
57.01820052523985
 20
17.0949086348236
 30
0.0
 10
56.91972111028268
 20
17.07903743948777
 30
0.0
 10
56.81452544936568
 20
17.06923823473835
 30
0.0
 10
56.7028101512787
 20
17.06259755512842
 30
0.0
 10
56.62607925545747
 20
17.06166458666583
 30
0.0
 10
56.58653846153848
 20
17.0611838114407
 30
0.0
  0
SPLINE
  5
150
330
1F
100
AcDbEntity
  8
0
  6
Continuous
 62
     7
370
    15
100
AcDbSpline
210
0.0
220
0.0
230
1.0
 70
     8
 71
     3
 72
    23
 73
    19
 74
     0
 42
0.000000001
 43
0.00000001
 40
0.0
 40
0.0
 40
0.0
 40
0.0
 40
0.0635514822357805
 40
0.1258683816453882
 40
0.186240250213675
 40
0.2449766506319414
 40
0.3033576876770637
 40
0.3612303170408043
 40
0.4184890490283526
 40
0.4759367117285744
 40
0.534203743819121
 40
0.59405942896754
 40
0.6554686942598745
 40
0.718771684899888
 40
0.7849746072190587
 40
0.8535223163767042
 40
0.925182450771933
 40
1.0
 40
1.0
 40
1.0
 40
1.0
 10
42.01169871794871
 20
16.95861970887659
 30
0.0
 10
41.97748813764105
 20
16.95922662736166
 30
0.0
 10
41.90973156884068
 20
16.96042867403024
 30
0.0
 10
41.80986863002734
 20
16.97024238455363
 30
0.0
 10
41.71343967371809
 20
16.9860806691939
 30
0.0
 10
41.62055331851862
 20
17.00878166238488
 30
0.0
 10
41.53079109499626
 20
17.03754689965362
 30
0.0
 10
41.44414931674274
 20
17.07268253503907
 30
0.0
 10
41.36122610072002
 20
17.11473315772958
 30
0.0
 10
41.28139401056288
 20
17.16283403973108
 30
0.0
 10
41.20504112874552
 20
17.21868549976881
 30
0.0
 10
41.13120200310918
 20
17.28114567302002
 30
0.0
 10
41.06061007395873
 20
17.35117522489114
 30
0.0
 10
40.99292630257159
 20
17.42860853819955
 30
0.0
 10
40.92858374858769
 20
17.51366488548935
 30
0.0
 10
40.86547624933584
 20
17.60515969971864
 30
0.0
 10
40.80640849197935
 20
17.70479100042493
 30
0.0
 10
40.76991971074491
 20
17.77468316381983
 30
0.0
 10
40.75128205128205
 20
17.81038252938941
 30
0.0
  0
SPLINE
  5
151
330
1F
100
AcDbEntity
  8
0
  6
Continuous
 62
     7
370
    15
100
AcDbSpline
210
0.0
220
0.0
230
1.0
 70
     8
 71
     3
 72
    15
 73
    11
 74
     0
 42
0.000000001
 43
0.00000001
 40
0.0
 40
0.0
 40
0.0
 40
0.0
 40
0.1508330973407567
 40
0.2899541833158778
 40
0.4171386481520551
 40
0.5352551839062618
 40
0.6487510952936697
 40
0.7624054615861229
 40
0.8798267012501036
 40
1.0
 40
1.0
 40
1.0
 40
1.0
 10
42.79935897435897
 20
19.01470945246634
 30
0.0
 10
42.83467278519041
 20
18.9764923460415
 30
0.0
 10
42.90255833126701
 20
18.90302564624236
 30
0.0
 10
42.99078560993644
 20
18.78917536635154
 30
0.0
 10
43.06339951414532
 20
18.6780342786399
 30
0.0
 10
43.11957500742639
 20
18.56751108325081
 30
0.0
 10
43.16200099934591
 20
18.45601115045578
 30
0.0
 10
43.19191188566886
 20
18.34079995045063
 30
0.0
 10
43.20982571450505
 20
18.22067359839524
 30
0.0
 10
43.21181456774867
 20
18.13870202770972
 30
0.0
 10
43.21282051282051
 20
18.09724150374839
 30
0.0
  0
SPLINE
  5
152
330
1F
100
AcDbEntity
  8
0
  6
Continuous
 62
     7
370
    15
100
AcDbSpline
210
0.0
220
0.0
230
1.0
 70
     8
 71
     3
 72
    23
 73
    19
 74
     0
 42
0.000000001
 43
0.00000001
 40
0.0
 40
0.0
 40
0.0
 40
0.0
 40
0.0631728801065209
 40
0.1244573597770011
 40
0.1848409152554606
 40
0.2445668214643692
 40
0.3043191726186561
 40
0.3651997864614165
 40
0.4274209827764745
 40
0.4912616890772863
 40
0.5554990019310211
 40
0.6186045181428789
 40
0.6804947639253093
 40
0.7424733052606087
 40
0.8049906647647718
 40
0.8682519711837811
 40
0.9328872172654784
 40
1.0
 40
1.0
 40
1.0
 40
1.0
 10
40.95641025641025
 20
20.14932483708172
 30
0.0
 10
40.95727790724919
 20
20.18357069122976
 30
0.0
 10
40.9589872726041
 20
20.25103870255657
 30
0.0
 10
40.97423507526358
 20
20.35024058282965
 30
0.0
 10
40.99702349725006
 20
20.44596206201866
 30
0.0
 10
41.03011882832737
 20
20.53785390455959
 30
0.0
 10
41.07307257198499
 20
20.62580101222048
 30
0.0
 10
41.12523822518914
 20
20.71023392310889
 30
0.0
 10
41.1874258216788
 20
20.79037553578314
 30
0.0
 10
41.25750704463844
 20
20.86617272200402
 30
0.0
 10
41.33471860956441
 20
20.93544272454084
 30
0.0
 10
41.41722897886145
 20
20.99658044263815
 30
0.0
 10
41.50457113655197
 20
21.04821824833314
 30
0.0
 10
41.59621076754159
 20
21.09105555771307
 30
0.0
 10
41.69271572449285
 20
21.1238447968036
 30
0.0
 10
41.79337505980935
 20
21.14708744382252
 30
0.0
 10
41.89833315091205
 20
21.16091142905795
 30
0.0
 10
41.96972337891388
 20
21.1627906394343
 30
0.0
 10
42.00608974358973
 20
21.1637479140048
 30
0.0
  0
SPLINE
  5
153
330
1F
100
AcDbEntity
  8
0
  6
Continuous
 62
     7
370
    15
100
AcDbSpline
210
0.0
220
0.0
230
1.0
 70
     8
 71
     3
 72
    15
 73
    11
 74
     0
 42
0.000000001
 43
0.00000001
 40
0.0
 40
0.0
 40
0.0
 40
0.0
 40
0.1624203072014369
 40
0.3118243397330493
 40
0.4484327667925782
 40
0.57338119688605
 40
0.6890771468735414
 40
0.7975729005012525
 40
0.9002930430775793
 40
0.9999999999999999
 40
0.9999999999999999
 40
0.9999999999999999
 40
0.9999999999999999
 10
42.57339743589743
 20
20.03554278579967
 30
0.0
 10
42.55040069943634
 20
20.06798207333379
 30
0.0
 10
42.50625017240833
 20
20.13026098162443
 30
0.0
 10
42.43468677318318
 20
20.21365390769161
 30
0.0
 10
42.36344651938634
 20
20.28479427965596
 30
0.0
 10
42.29186941339054
 20
20.3433849059027
 30
0.0
 10
42.2193210229685
 20
20.38906980479268
 30
0.0
 10
42.14592728152543
 20
20.42141521787975
 30
0.0
 10
42.07210427871372
 20
20.4419775039339
 30
0.0
 10
42.02250661646199
 20
20.44453800327195
 30
0.0
 10
41.99807692307692
 20
20.44579919605608
 30
0.0
  0
SPLINE
  5
154
330
1F
100
AcDbEntity
  8
0
  6
Continuous
 62
     7
370
    15
100
AcDbSpline
210
0.0
220
0.0
230
1.0
 70
     8
 71
     3
 72
    15
 73
    11
 74
     0
 42
0.000000001
 43
0.00000001
 40
0.0
 40
0.0
 40
0.0
 40
0.0
 40
0.1639957318060758
 40
0.3173286319587165
 40
0.458059894627542
 40
0.5891583945859027
 40
0.7079520097453088
 40
0.8163219998754467
 40
0.913584729600319
 40
0.9999999999999999
 40
0.9999999999999999
 40
0.9999999999999999
 40
0.9999999999999999
 10
56.10256410256412
 20
21.0611838114407
 30
0.0
 10
56.14743990559193
 20
21.06118893288043
 30
0.0
 10
56.23427373368021
 20
21.06119884276923
 30
0.0
 10
56.35955228603348
 20
21.05679947131511
 30
0.0
 10
56.47573756324782
 20
21.05110839148477
 30
0.0
 10
56.58245981874114
 20
21.04474139657672
 30
0.0
 10
56.67990070118415
 20
21.03376979223187
 30
0.0
 10
56.76791203582357
 20
21.02220691970179
 30
0.0
 10
56.84666966983852
 20
21.00826280811896
 30
0.0
 10
56.89536123529673
 20
20.99575450801073
 30
0.0
 10
56.91826923076925
 20
20.98986970887659
 30
0.0
  0
SPLINE
  5
155
330
1F
100
AcDbEntity
  8
0
  6
Continuous
 62
     7
370
    15
100
AcDbSpline
210
0.0
220
0.0
230
1.0
 70
     8
 71
     3
 72
    15
 73
    11
 74
     0
 42
0.000000001
 43
0.00000001
 40
0.0
 40
0.0
 40
0.0
 40
0.0
 40
0.1604579205559369
 40
0.3076115473748586
 40
0.4421388877557719
 40
0.5662291941703317
 40
0.681222208015215
 40
0.7895580052436296
 40
0.8950288924051392
 40
0.9999999999999999
 40
0.9999999999999999
 40
0.9999999999999999
 40
0.9999999999999999
 10
41.38269230769231
 20
18.18938893964583
 30
0.0
 10
41.40600523413049
 20
18.1488654953092
 30
0.0
 10
41.45069810657107
 20
18.07117858914616
 30
0.0
 10
41.52643435712796
 20
17.96679638453864
 30
0.0
 10
41.60402227937347
 20
17.87741030470984
 30
0.0
 10
41.68525563655166
 20
17.80460025435438
 30
0.0
 10
41.76914666143507
 20
17.74739266951153
 30
0.0
 10
41.8561005671677
 20
17.70650816058954
 30
0.0
 10
41.94617844588968
 20
17.68120069581667
 30
0.0
 10
42.00753540468925
 20
17.67811006984228
 30
0.0
 10
42.03814102564102
 20
17.67656842682531
 30
0.0
  0
SPLINE
  5
156
330
1F
100
AcDbEntity
  8
0
  6
Continuous
 62
     7
370
    15
100
AcDbSpline
210
0.0
220
0.0
230
1.0
 70
     8
 71
     3
 72
    23
 73
    19
 74
     0
 42
0.000000001
 43
0.00000001
 40
0.0
 40
0.0
 40
0.0
 40
0.0
 40
0.068749766315284
 40
0.134909112145229
 40
0.1997210700545292
 40
0.2629736746369468
 40
0.3253570233490405
 40
0.3873361409887318
 40
0.4494074874297909
 40
0.5111175193516616
 40
0.5724725853513711
 40
0.633077171967722
 40
0.6928610080890976
 40
0.7525606967546162
 40
0.8127375856307913
 40
0.8734793127278785
 40
0.9357764600655787
 40
1.0
 40
1.0
 40
1.0
 40
1.0
 10
56.91826923076925
 20
20.98986970887659
 30
0.0
 10
56.94834975466856
 20
20.9815690948768
 30
0.0
 10
57.00737739926463
 20
20.96528062547549
 30
0.0
 10
57.09192382335877
 20
20.93238535758021
 30
0.0
 10
57.17212790018254
 20
20.89581993506252
 30
0.0
 10
57.24789170275601
 20
20.85410562679238
 30
0.0
 10
57.31875001114765
 20
20.80673882418246
 30
0.0
 10
57.38443353965117
 20
20.75334361003148
 30
0.0
 10
57.4463589194477
 20
20.69606326594084
 30
0.0
 10
57.5023273216746
 20
20.63330140496973
 30
0.0
 10
57.55291353580466
 20
20.56698187287849
 30
0.0
 10
57.59686388620922
 20
20.49712204719215
 30
0.0
 10
57.63505110760485
 20
20.42479013024809
 30
0.0
 10
57.66561088717305
 20
20.3490758729643
 30
0.0
 10
57.68863710695002
 20
20.27032795998139
 30
0.0
 10
57.70547838802827
 20
20.18888265707658
 30
0.0
 10
57.71639381868119
 20
20.10448225126503
 30
0.0
 10
57.71742518370257
 20
20.0470618965867
 30
0.0
 10
57.71794871794874
 20
20.01791458067147
 30
0.0
  0
SPLINE
  5
157
330
1F
100
AcDbEntity
  8
0
  6
Continuous
 62
     7
370
    15
100
AcDbSpline
210
0.0
220
0.0
230
1.0
 70
     8
 71
     3
 72
    23
 73
    19
 74
     0
 42
0.000000001
 43
0.00000001
 40
0.0
 40
0.0
 40
0.0
 40
0.0
 40
0.0667486513092662
 40
0.1311519760901748
 40
0.1937321970570944
 40
0.2553255433785963
 40
0.3163881857773856
 40
0.3780268629068846
 40
0.4404056792054009
 40
0.5045574293240815
 40
0.5686582873620155
 40
0.6309861790900101
 40
0.692288134873298
 40
0.7526154469796391
 40
0.8131995384355626
 40
0.8740161248607802
 40
0.9361583555105307
 40
0.9999999999999999
 40
0.9999999999999999
 40
0.9999999999999999
 40
0.9999999999999999
 10
67.91105769230771
 20
16.95861970887659
 30
0.0
 10
67.83749148056512
 20
16.96028688011204
 30
0.0
 10
67.69294393010144
 20
16.96356264370758
 30
0.0
 10
67.481397942914
 20
16.99471366002672
 30
0.0
 10
67.2787186080809
 20
17.04163797256448
 30
0.0
 10
67.08660854871793
 20
17.11166999170191
 30
0.0
 10
66.90311128807313
 20
17.19921590438443
 30
0.0
 10
66.72957503440884
 20
17.3070339445726
 30
0.0
 10
66.56605810728752
 20
17.43494593462806
 30
0.0
 10
66.41349846660917
 20
17.57967600098928
 30
0.0
 10
66.27527906269066
 20
17.73804243768258
 30
0.0
 10
66.15327332689432
 20
17.90534253427008
 30
0.0
 10
66.05035878226816
 20
18.08029826513921
 30
0.0
 10
65.96653166336971
 20
18.26299151328533
 30
0.0
 10
65.90044573023442
 20
18.45228688463588
 30
0.0
 10
65.8538296131067
 20
18.64933724261319
 30
0.0
 10
65.82629236031839
 20
18.85366998891865
 30
0.0
 10
65.82245658090028
 20
18.99245687486324
 30
0.0
 10
65.82051282051283
 20
19.06278637554326
 30
0.0
  0
SPLINE
  5
158
330
1F
100
AcDbEntity
  8
0
  6
Continuous
 62
     7
370
    15
100
AcDbSpline
210
0.0
220
0.0
230
1.0
 70
     8
 71
     3
 72
    19
 73
    15
 74
     0
 42
0.000000001
 43
0.00000001
 40
0.0
 40
0.0
 40
0.0
 40
0.0
 40
0.0763466063531728
 40
0.1550908218146649
 40
0.2383515612585584
 40
0.328404139932991
 40
0.3793838595513629
 40
0.4396176441748249
 40
0.5098314158313146
 40
0.5888746449969573
 40
0.6774363544094563
 40
0.7755467196196746
 40
0.8826358717258577
 40
1.0
 40
1.0
 40
1.0
 40
1.0
 10
42.49487179487179
 20
18.05557483708172
 30
0.0
 10
42.49355472024969
 20
18.07839970942873
 30
0.0
 10
42.49087920924416
 20
18.12476625247764
 30
0.0
 10
42.4711722197144
 20
18.19370584617538
 30
0.0
 10
42.44036418417147
 20
18.26261408756782
 30
0.0
 10
42.40391610561205
 20
18.31913449143505
 30
0.0
 10
42.36682562177265
 20
18.36645749346633
 30
0.0
 10
42.33135875344433
 20
18.40746073403961
 30
0.0
 10
42.28816948993867
 20
18.45276213652899
 30
0.0
 10
42.23736734017888
 20
18.50241868666325
 30
0.0
 10
42.17962353311805
 20
18.55686752361853
 30
0.0
 10
42.11488942708233
 20
18.61610331554981
 30
0.0
 10
42.04242374807674
 20
18.67960426597573
 30
0.0
 10
41.99120486317201
 20
18.72286048602993
 30
0.0
 10
41.96442307692308
 20
18.74547868323557
 30
0.0
  0
SPLINE
  5
159
330
1F
100
AcDbEntity
  8
0
  6
Continuous
 62
     7
370
    15
100
AcDbSpline
210
0.0
220
0.0
230
1.0
 70
     8
 71
     3
 72
    31
 73
    27
 74
     0
 42
0.000000001
 43
0.00000001
 40
0.0
 40
0.0
 40
0.0
 40
0.0
 40
0.0431143456619732
 40
0.0856827648242093
 40
0.1275943241639275
 40
0.1690586225605479
 40
0.2104320288213095
 40
0.2518111664630532
 40
0.2934438397982395
 40
0.3353808532218257
 40
0.3774766059607936
 40
0.418688490676827
 40
0.4598730336711983
 40
0.5008729046253165
 40
0.5418727755794311
 40
0.5832117768673231
 40
0.6247632017340778
 40
0.6669876223820891
 40
0.7093697058942412
 40
0.7511026519448595
 40
0.7925683801202206
 40
0.8335451085502595
 40
0.874827422556525
 40
0.9160177232110677
 40
0.9578592039763034
 40
1.0
 40
1.0
 40
1.0
 40
1.0
 10
65.82051282051283
 20
19.06278637554326
 30
0.0
 10
65.82112288449889
 20
19.11010038183835
 30
0.0
 10
65.82233528766172
 20
19.20412929059317
 30
0.0
 10
65.83693996088586
 20
19.34347533362658
 30
0.0
 10
65.85796649136368
 20
19.48010152898807
 30
0.0
 10
65.8890637322473
 20
19.61346314605095
 30
0.0
 10
65.92683893179208
 20
19.74450098900983
 30
0.0
 10
65.97578203894852
 20
19.8719953251666
 30
0.0
 10
66.03149254005903
 20
19.99730814465158
 30
0.0
 10
66.09658501525
 20
20.11895934615171
 30
0.0
 10
66.16896155376665
 20
20.23582963695681
 30
0.0
 10
66.24793080117145
 20
20.34736771950304
 30
0.0
 10
66.33369132456312
 20
20.45222493531892
 30
0.0
 10
66.4259668608853
 20
20.55109036283884
 30
0.0
 10
66.52507540413049
 20
20.64331415243029
 30
0.0
 10
66.62971328378572
 20
20.73020186023271
 30
0.0
 10
66.74190986543918
 20
20.80944543977851
 30
0.0
 10
66.85920951794085
 20
20.88298017733107
 30
0.0
 10
66.98095093282568
 20
20.9494763652281
 30
0.0
 10
67.10663851210415
 20
21.00607593166403
 30
0.0
 10
67.23368284335584
 20
21.05550336895663
 30
0.0
 10
67.36378106750571
 20
21.09451368797384
 30
0.0
 10
67.49553895065951
 20
21.12628718468159
 30
0.0
 10
67.63036405890297
 20
21.14729954328707
 30
0.0
 10
67.76703832403045
 20
21.16190381206543
 30
0.0
 10
67.85920242813357
 20
21.16313175455085
 30
0.0
 10
67.90544871794873
 20
21.1637479140048
 30
0.0
  0
SPLINE
  5
15A
330
1F
100
AcDbEntity
  8
0
  6
Continuous
 62
     7
370
    15
100
AcDbSpline
210
0.0
220
0.0
230
1.0
 70
     8
 71
     3
 72
    23
 73
    19
 74
     0
 42
0.000000001
 43
0.00000001
 40
0.0
 40
0.0
 40
0.0
 40
0.0
 40
0.0633955966615918
 40
0.1251572666424218
 40
0.1856494665262548
 40
0.245976679340816
 40
0.3061083686579553
 40
0.367350588089176
 40
0.4299020782799129
 40
0.4945399581831947
 40
0.5593725826940468
 40
0.6224096858457374
 40
0.684357425819475
 40
0.7458066007722095
 40
0.8074302750159158
 40
0.8699955160697816
 40
0.9339278677192723
 40
1.0
 40
1.0
 40
1.0
 40
1.0
 10
67.90544871794873
 20
21.1637479140048
 30
0.0
 10
67.97499362019688
 20
21.16194727194511
 30
0.0
 10
68.11229100885868
 20
21.15839239668155
 30
0.0
 10
68.31420592208308
 20
21.1287597369161
 30
0.0
 10
68.50878827491076
 20
21.0804775660739
 30
0.0
 10
68.69595007776175
 20
21.01336185638324
 30
0.0
 10
68.87522269899634
 20
20.92559477335802
 30
0.0
 10
69.04723849317246
 20
20.81966457138918
 30
0.0
 10
69.21138130786831
 20
20.6935718813793
 30
0.0
 10
69.36596913913698
 20
20.55025823776009
 30
0.0
 10
69.50883617571738
 20
20.39441090806966
 30
0.0
 10
69.63263054635715
 20
20.2266135501823
 30
0.0
 10
69.73819784409993
 20
20.05121396220401
 30
0.0
 10
69.82569230291092
 20
19.86774215582634
 30
0.0
 10
69.89233561874335
 20
19.67492750129452
 30
0.0
 10
69.93910198997438
 20
19.47375309849687
 30
0.0
 10
69.96914706651408
 20
19.26427617971204
 30
0.0
 10
69.97260271259144
 20
19.12165095003861
 30
0.0
 10
69.97435897435899
 20
19.04916458067147
 30
0.0
  0
SPLINE
  5
15B
330
1F
100
AcDbEntity
  8
0
  6
Continuous
 62
     7
370
    15
100
AcDbSpline
210
0.0
220
0.0
230
1.0
 70
     8
 71
     3
 72
    23
 73
    19
 74
     0
 42
0.000000001
 43
0.00000001
 40
0.0
 40
0.0
 40
0.0
 40
0.0
 40
0.0652008752881556
 40
0.1279265440230309
 40
0.189046910018968
 40
0.2485436930694606
 40
0.3076071270223472
 40
0.3672476600602129
 40
0.426963055721322
 40
0.4886171282353916
 40
0.550391854627126
 40
0.6113307342255613
 40
0.6725560854310856
 40
0.7340241906291943
 40
0.7973406208369381
 40
0.862249627316581
 40
0.9296254660746972
 40
1.0
 40
1.0
 40
1.0
 40
1.0
 10
43.21282051282051
 20
18.09724150374839
 30
0.0
 10
43.21210450687404
 20
18.05684330783598
 30
0.0
 10
43.21069967655809
 20
17.97758054387766
 30
0.0
 10
43.19349319923342
 20
17.86159129547329
 30
0.0
 10
43.16895777247753
 20
17.75058455075699
 30
0.0
 10
43.13102169844763
 20
17.64576822003728
 30
0.0
 10
43.08478543608118
 20
17.54542177519254
 30
0.0
 10
43.02682160339526
 20
17.45110829476679
 30
0.0
 10
42.95875102988861
 20
17.3618732877857
 30
0.0
 10
42.88073170092068
 20
17.27931193911745
 30
0.0
 10
42.79443305871436
 20
17.20439323771077
 30
0.0
 10
42.70186956327108
 20
17.13769884019709
 30
0.0
 10
42.60213608214131
 20
17.08263411975099
 30
0.0
 10
42.49608472247077
 20
17.03729225017712
 30
0.0
 10
42.38377225114788
 20
17.00236933595952
 30
0.0
 10
42.2653324661819
 20
16.97655804756291
 30
0.0
 10
42.14058420584352
 20
16.9610665191363
 30
0.0
 10
42.05527954778847
 20
16.95944706363406
 30
0.0
 10
42.01169871794871
 20
16.95861970887659
 30
0.0
  0
SPLINE
  5
15C
330
1F
100
AcDbEntity
  8
0
  6
Continuous
 62
     7
370
    15
100
AcDbSpline
210
0.0
220
0.0
230
1.0
 70
     8
 71
     3
 72
    31
 73
    27
 74
     0
 42
0.000000001
 43
0.00000001
 40
0.0
 40
0.0
 40
0.0
 40
0.0
 40
0.0728890266200375
 40
0.1401861299444901
 40
0.2022774341249539
 40
0.2588951317514596
 40
0.310482942465474
 40
0.3570952441313321
 40
0.3985135666534612
 40
0.4350375108701136
 40
0.4692514858292837
 40
0.5028050278902738
 40
0.5362104463185619
 40
0.5693793599392059
 40
0.6028014750483914
 40
0.6366657983367756
 40
0.6709286568940425
 40
0.7058030002293121
 40
0.7411890612458769
 40
0.7763043110764606
 40
0.8120043009129335
 40
0.8479689758088954
 40
0.8845217611964785
 40
0.9219741585442043
 40
0.9601981758096071
 40
1.0
 40
1.0
 40
1.0
 40
1.0
 10
63.63141025641027
 20
21.0611838114407
 30
0.0
 10
63.68670519407878
 20
21.06098754614671
 30
0.0
 10
63.79305293497643
 20
21.06061007270134
 30
0.0
 10
63.94640056873408
 20
21.05465454160558
 30
0.0
 10
64.08727145908136
 20
21.046366931275
 30
0.0
 10
64.21587417811342
 20
21.03371981794278
 30
0.0
 10
64.33215370746758
 20
21.01695127440534
 30
0.0
 10
64.43622658641016
 20
20.99718393640159
 30
0.0
 10
64.52808977299358
 20
20.97465481674784
 30
0.0
 10
64.60851800632629
 20
20.94658175616728
 30
0.0
 10
64.68110050981255
 20
20.91491576944434
 30
0.0
 10
64.74875749396341
 20
20.87853097005267
 30
0.0
 10
64.81298157245826
 20
20.83783251424034
 30
0.0
 10
64.87334347669642
 20
20.79174951547249
 30
0.0
 10
64.93036776581744
 20
20.74111099554392
 30
0.0
 10
64.98416201956167
 20
20.68586598181214
 30
0.0
 10
65.03396607526304
 20
20.6255460193143
 30
0.0
 10
65.07947154418704
 20
20.560532253666
 30
0.0
 10
65.12094611615747
 20
20.49213926305915
 30
0.0
 10
65.15760093906698
 20
20.42027314347127
 30
0.0
 10
65.18740870198123
 20
20.34488391680276
 30
0.0
 10
65.21374705583733
 20
20.26706112036658
 30
0.0
 10
65.23271771884778
 20
20.18569226201985
 30
0.0
 10
65.2459115374549
 20
20.10156948133404
 30
0.0
 10
65.255571535296
 20
20.01439665718952
 30
0.0
 10
65.25612693898942
 20
19.95517531089482
 30
0.0
 10
65.25641025641025
 20
19.92496586272275
 30
0.0
  0
SPLINE
  5
15D
330
1F
100
AcDbEntity
  8
0
  6
Continuous
 62
     7
370
    15
100
AcDbSpline
210
0.0
220
0.0
230
1.0
 70
     8
 71
     3
 72
    19
 73
    15
 74
     0
 42
0.000000001
 43
0.00000001
 40
0.0
 40
0.0
 40
0.0
 40
0.0
 40
0.112124581279745
 40
0.2152010090762407
 40
0.309902452493477
 40
0.3959590963320921
 40
0.4734474940003322
 40
0.5421403275660306
 40
0.6025233330554105
 40
0.6547263328340142
 40
0.7478040553141025
 40
0.8352784168250095
 40
0.9189252427194498
 40
0.9999999999999999
 40
0.9999999999999999
 40
0.9999999999999999
 40
0.9999999999999999
 10
41.96442307692308
 20
18.74547868323557
 30
0.0
 10
41.91350983532359
 20
18.7885561678117
 30
0.0
 10
41.81579191439586
 20
18.8712348993034
 30
0.0
 10
41.67770409447106
 20
18.99334878295171
 30
0.0
 10
41.55327460450307
 20
19.10747539641535
 30
0.0
 10
41.44357815119763
 20
19.2150255941215
 30
0.0
 10
41.34721703203837
 20
19.31401317315361
 30
0.0
 10
41.2648438463933
 20
19.40524214849536
 30
0.0
 10
41.19736350116337
 20
19.48941622691459
 30
0.0
 10
41.12635498841752
 20
19.58911479000457
 30
0.0
 10
41.0588827040863
 20
19.71060433955929
 30
0.0
 10
41.0005675034174
 20
19.85677035147768
 30
0.0
 10
40.96273506253565
 20
20.00291781709656
 30
0.0
 10
40.95849646371713
 20
20.10103317583296
 30
0.0
 10
40.95641025641025
 20
20.14932483708172
 30
0.0
  0
SPLINE
  5
15E
330
1F
100
AcDbEntity
  8
0
  6
Continuous
 62
     7
370
    15
100
AcDbSpline
210
0.0
220
0.0
230
1.0
 70
     8
 71
     3
 72
    15
 73
    11
 74
     0
 42
0.000000001
 43
0.00000001
 40
0.0
 40
0.0
 40
0.0
 40
0.0
 40
0.1481262583591528
 40
0.2859928874897002
 40
0.4166343935606197
 40
0.5473799458012549
 40
0.6715828376102096
 40
0.7844007386959884
 40
0.8932655763009587
 40
1.0
 40
1.0
 40
1.0
 40
1.0
 10
41.99807692307692
 20
20.44579919605608
 30
0.0
 10
41.97528960583058
 20
20.44500004645364
 30
0.0
 10
41.93129328316899
 20
20.44345709853292
 30
0.0
 10
41.86857326122249
 20
20.42812031120201
 30
0.0
 10
41.81288953251303
 20
20.40165126853074
 30
0.0
 10
41.76429644190138
 20
20.36704076849002
 30
0.0
 10
41.72580354481379
 20
20.32534313992532
 30
0.0
 10
41.69506995153085
 20
20.28161304892716
 30
0.0
 10
41.67776435599232
 20
20.23334491826808
 30
0.0
 10
41.67548659912492
 20
20.20019241902116
 30
0.0
 10
41.67435897435897
 20
20.18377996528685
 30
0.0
  0
SPLINE
  5
15F
330
1F
100
AcDbEntity
  8
0
  6
Continuous
 62
     7
370
    15
100
AcDbSpline
210
0.0
220
0.0
230
1.0
 70
     8
 71
     3
 72
    23
 73
    19
 74
     0
 42
0.000000001
 43
0.00000001
 40
0.0
 40
0.0
 40
0.0
 40
0.0
 40
0.0657223151915618
 40
0.1295079307025843
 40
0.1917221026921606
 40
0.2531611245020878
 40
0.3143157037352565
 40
0.3759517397728627
 40
0.4386196008234077
 40
0.5029729018927774
 40
0.5671286457242657
 40
0.6295522895796732
 40
0.6904767824348732
 40
0.7510723384108289
 40
0.8116678943867819
 40
0.8729293555873902
 40
0.935501370715808
 40
1.0
 40
1.0
 40
1.0
 40
1.0
 10
69.97435897435899
 20
19.04916458067147
 30
0.0
 10
69.97248863156837
 20
18.97749496526833
 30
0.0
 10
69.96880306109183
 20
18.83626768868721
 30
0.0
 10
69.94032856152106
 20
18.6287211822056
 30
0.0
 10
69.892774638736
 20
18.42970177640409
 30
0.0
 10
69.82726164583644
 20
18.23875898638172
 30
0.0
 10
69.7413540057224
 20
18.05681767347488
 30
0.0
 10
69.63784538523508
 20
17.88271616774781
 30
0.0
 10
69.5140043886474
 20
17.71807017283081
 30
0.0
 10
69.37434798345508
 20
17.56296804402735
 30
0.0
 10
69.2205984011952
 20
17.42217958084942
 30
0.0
 10
69.05775318618201
 20
17.29810999080948
 30
0.0
 10
68.88656425697157
 20
17.19297810227214
 30
0.0
 10
68.70728217954095
 20
17.10683207073539
 30
0.0
 10
68.51952249207434
 20
17.0399773082244
 30
0.0
 10
68.32374898395742
 20
16.99280641537387
 30
0.0
 10
68.11997376959194
 20
16.96413971131386
 30
0.0
 10
67.98139674178174
 20
16.9604782145961
 30
0.0
 10
67.91105769230771
 20
16.95861970887659
 30
0.0
  0
SPLINE
  5
160
330
1F
100
AcDbEntity
  8
0
  6
Continuous
 62
     7
370
    15
100
AcDbSpline
210
0.0
220
0.0
230
1.0
 70
     8
 71
     3
 72
    23
 73
    19
 74
     0
 42
0.000000001
 43
0.00000001
 40
0.0
 40
0.0
 40
0.0
 40
0.0
 40
0.0687412630793642
 40
0.1347890881950348
 40
0.1985360495606912
 40
0.2603856506059208
 40
0.3209615782321956
 40
0.3799038495841472
 40
0.4385029357752687
 40
0.4961543439762716
 40
0.5542654832084982
 40
0.6127487608156936
 40
0.672513442526184
 40
0.7336464018979747
 40
0.7967896194814593
 40
0.861935699041024
 40
0.9293977347748993
 40
1.0
 40
1.0
 40
1.0
 40
1.0
 10
65.25641025641025
 20
19.92496586272275
 30
0.0
 10
65.25567429963564
 20
19.89343413862084
 30
0.0
 10
65.25423122253528
 20
19.83160617459279
 30
0.0
 10
65.24645802420662
 20
19.74078593809758
 30
0.0
 10
65.23225105946682
 20
19.65389548842024
 30
0.0
 10
65.21073254452567
 20
19.57118923010749
 30
0.0
 10
65.18599980661261
 20
19.49163778735461
 30
0.0
 10
65.15311160949163
 20
19.41670893402519
 30
0.0
 10
65.1159940284822
 20
19.3453129384995
 30
0.0
 10
65.07191056197867
 20
19.2784597241947
 30
0.0
 10
65.02353111111559
 20
19.21466434765498
 30
0.0
 10
64.9672668274515
 20
19.1563710464245
 30
0.0
 10
64.9067627723238
 20
19.10044677628325
 30
0.0
 10
64.83861779244191
 20
19.05039444377976
 30
0.0
 10
64.76583578182127
 20
19.00282969105608
 30
0.0
 10
64.68697063848575
 20
18.9597233581122
 30
0.0
 10
64.60253706340788
 20
18.91999185099201
 30
0.0
 10
64.54317607871441
 20
18.89783481810705
 30
0.0
 10
64.51282051282053
 20
18.88650432426121
 30
0.0
  0
SPLINE
  5
161
330
1F
100
AcDbEntity
  8
0
  6
Continuous
 62
     7
370
    15
100
AcDbSpline
210
0.0
220
0.0
230
1.0
 70
     8
 71
     3
 72
    23
 73
    19
 74
     0
 42
0.000000001
 43
0.00000001
 40
0.0
 40
0.0
 40
0.0
 40
0.0
 40
0.0727911822673713
 40
0.1427233695565051
 40
0.2094912699928579
 40
0.2747163184918683
 40
0.3368863886768227
 40
0.3976856020239929
 40
0.457053749776115
 40
0.5153125941662606
 40
0.5728222022221223
 40
0.6307760073985095
 40
0.6895054947089518
 40
0.7487432781628002
 40
0.8092253247292983
 40
0.8707153202239947
 40
0.9342652493244613
 40
1.0
 40
1.0
 40
1.0
 40
1.0
 10
57.30288461538463
 20
19.24708124733813
 30
0.0
 10
57.33108662520856
 20
19.23268436589256
 30
0.0
 10
57.38638296392651
 20
19.20445606451025
 30
0.0
 10
57.46488751977807
 20
19.1580571636733
 30
0.0
 10
57.53757416905543
 20
19.10870604802267
 30
0.0
 10
57.60476881665181
 20
19.05739568185452
 30
0.0
 10
57.66506197793476
 20
19.0019509443952
 30
0.0
 10
57.72094325876474
 20
18.94556663755797
 30
0.0
 10
57.7696557667913
 20
18.88501217504801
 30
0.0
 10
57.81321595963758
 20
18.8224458332209
 30
0.0
 10
57.85107777124981
 20
18.75696164419434
 30
0.0
 10
57.88405123411643
 20
18.68867019600842
 30
0.0
 10
57.91190273543383
 20
18.61733819021234
 30
0.0
 10
57.93548810711746
 20
18.54332864896175
 30
0.0
 10
57.95307808357258
 20
18.46638701406077
 30
0.0
 10
57.96454712228346
 20
18.38648576798164
 30
0.0
 10
57.97332853520933
 20
18.30389741460439
 30
0.0
 10
57.97401164660589
 20
18.24764029071127
 30
0.0
 10
57.97435897435899
 20
18.21903637554326
 30
0.0
  0
SPLINE
  5
162
330
1F
100
AcDbEntity
  8
0
  6
Continuous
 62
     7
370
    15
100
AcDbSpline
210
0.0
220
0.0
230
1.0
 70
     8
 71
     3
 72
    15
 73
    11
 74
     0
 42
0.000000001
 43
0.00000001
 40
0.0
 40
0.0
 40
0.0
 40
0.0
 40
0.1419858925296691
 40
0.2754733105502101
 40
0.4043458426631384
 40
0.5354297108606308
 40
0.6614274010622528
 40
0.7778668404627646
 40
0.8882797492818449
 40
1.0
 40
1.0
 40
1.0
 40
1.0
 10
42.03814102564102
 20
17.67656842682531
 30
0.0
 10
42.06927132386118
 20
17.67782741610372
 30
0.0
 10
42.12966863627256
 20
17.68027003866496
 30
0.0
 10
42.21587807100703
 20
17.70283180681552
 30
0.0
 10
42.29491814500369
 20
17.73825543795136
 30
0.0
 10
42.36323980121187
 20
17.78880007477444
 30
0.0
 10
42.42109027202888
 20
17.8471362678767
 30
0.0
 10
42.46378724011442
 20
17.91203795007564
 30
0.0
 10
42.49060976345224
 20
17.98226000354542
 30
0.0
 10
42.49344555447966
 20
18.03104086099392
 30
0.0
 10
42.49487179487179
 20
18.05557483708172
 30
0.0
  0
SPLINE
  5
174
330
1F
100
AcDbEntity
  8
0
  6
Continuous
 62
     7
370
    15
100
AcDbSpline
210
0.0
220
0.0
230
1.0
 70
     8
 71
     3
 72
    19
 73
    15
 74
     0
 42
0.000000001
 43
0.00000001
 40
0.0
 40
0.0
 40
0.0
 40
0.0
 40
0.0887762289654545
 40
0.1713771372145569
 40
0.248113811366844
 40
0.3211611878976156
 40
0.3880331325497764
 40
0.4520913744364397
 40
0.5122677074822244
 40
0.5688662368266968
 40
0.6769360002929842
 40
0.7810117272007104
 40
0.886917646213263
 40
1.0
 40
1.0
 40
1.0
 40
1.0
 10
56.37019230769233
 20
19.47144022169711
 30
0.0
 10
56.39611084801975
 20
19.47166624117627
 30
0.0
 10
56.44614502151254
 20
19.47210255810191
 30
0.0
 10
56.51841407796246
 20
19.47772216859716
 30
0.0
 10
56.58561262942459
 20
19.48730957317051
 30
0.0
 10
56.64748580629442
 20
19.50068641428916
 30
0.0
 10
56.70460997968655
 20
19.51767305214301
 30
0.0
 10
56.75662022392529
 20
19.53811163575035
 30
0.0
 10
56.80328785937154
 20
19.56304892930198
 30
0.0
 10
56.85750485813416
 20
19.60019412850413
 30
0.0
 10
56.91481613560018
 20
19.65485495215286
 30
0.0
 10
56.96526660859498
 20
19.73382383716206
 30
0.0
 10
56.99498160030377
 20
19.82463775446405
 30
0.0
 10
56.99829104893822
 20
19.88868676075441
 30
0.0
 10
57.00000000000001
 20
19.92176073451762
 30
0.0
  0
SPLINE
  5
185
330
1F
100
AcDbEntity
  8
0
  6
Continuous
 62
     7
370
    15
100
AcDbSpline
210
0.0
220
0.0
230
1.0
 70
     8
 71
     3
 72
    15
 73
    11
 74
     0
 42
0.000000001
 43
0.00000001
 40
0.0
 40
0.0
 40
0.0
 40
0.0
 40
0.1279910255623769
 40
0.2530983915017067
 40
0.3761840584327941
 40
0.4989363124701191
 40
0.6215258806257332
 40
0.7457068938016933
 40
0.8715753502968622
 40
1.0
 40
1.0
 40
1.0
 40
1.0
 10
67.03044871794873
 20
17.98426073451762
 30
0.0
 10
67.06263303626939
 20
17.95965120371499
 30
0.0
 10
67.1262765547328
 20
17.9109865990336
 30
0.0
 10
67.22786546650073
 20
17.84861292482567
 30
0.0
 10
67.3324820418349
 20
17.79515246388737
 30
0.0
 10
67.44091574395401
 20
17.7519570438801
 30
0.0
 10
67.55293756645924
 20
17.71798025256549
 30
0.0
 10
67.66853214772446
 20
17.69418686429971
 30
0.0
 10
67.78753570000778
 20
17.67925445547985
 30
0.0
 10
67.86801147915715
 20
17.67746974975515
 30
0.0
 10
67.90865384615387
 20
17.67656842682531
 30
0.0
  0
SPLINE
  5
186
330
1F
100
AcDbEntity
  8
0
  6
Continuous
 62
     7
370
    15
100
AcDbSpline
210
0.0
220
0.0
230
1.0
 70
     8
 71
     3
 72
    15
 73
    11
 74
     0
 42
0.000000001
 43
0.00000001
 40
0.0
 40
0.0
 40
0.0
 40
0.0
 40
0.1348068327792188
 40
0.2641990558543172
 40
0.3884618167279446
 40
0.5099420983643709
 40
0.6304096106127708
 40
0.7506710345119797
 40
0.8734547255294238
 40
1.0
 40
1.0
 40
1.0
 40
1.0
 10
66.53846153846156
 20
19.05317099092787
 30
0.0
 10
66.54008636968518
 20
18.99834337221805
 30
0.0
 10
66.5432707696622
 20
18.89089032403615
 30
0.0
 10
66.56567659520995
 20
18.73414071242919
 30
0.0
 10
66.60401073238923
 20
18.58610626164943
 30
0.0
 10
66.65936448115596
 20
18.44751098607483
 30
0.0
 10
66.72801765185243
 20
18.31681588896005
 30
0.0
 10
66.81327399391661
 20
18.19562282450127
 30
0.0
 10
66.91375275819156
 20
18.08320614525042
 30
0.0
 10
66.99116078414752
 20
18.01757260542467
 30
0.0
 10
67.03044871794873
 20
17.98426073451762
 30
0.0
  0
SPLINE
  5
187
330
1F
100
AcDbEntity
  8
0
  6
Continuous
 62
     7
370
    15
100
AcDbSpline
210
0.0
220
0.0
230
1.0
 70
     8
 71
     3
 72
    23
 73
    19
 74
     0
 42
0.000000001
 43
0.00000001
 40
0.0
 40
0.0
 40
0.0
 40
0.0
 40
0.0659391240576587
 40
0.1297911093795341
 40
0.1921752363053283
 40
0.2536170442157553
 40
0.3147191079962368
 40
0.3762822754113743
 40
0.4389729923739106
 40
0.5031747018386414
 40
0.5673294646239453
 40
0.6296509938060328
 40
0.6906498673030962
 40
0.7512376127977869
 40
0.8117541138236078
 40
0.8727877774488515
 40
0.9355396326682288
 40
1.0
 40
1.0
 40
1.0
 40
1.0
 10
69.25641025641028
 20
19.05877996528685
 30
0.0
 10
69.25514483793926
 20
19.10638020974175
 30
0.0
 10
69.25265405466709
 20
19.20007403147248
 30
0.0
 10
69.23397054756359
 20
19.33781208162917
 30
0.0
 10
69.20260703053074
 20
19.46978887945976
 30
0.0
 10
69.15917596065343
 20
19.59621995701066
 30
0.0
 10
69.10371678426887
 20
19.7172292636649
 30
0.0
 10
69.03513588647941
 20
19.83239125917294
 30
0.0
 10
68.9536739091657
 20
19.94159461004251
 30
0.0
 10
68.86120569467712
 20
20.04409513719829
 30
0.0
 10
68.76055972642128
 20
20.1382865559336
 30
0.0
 10
68.65250622305926
 20
20.22002758512357
 30
0.0
 10
68.54006864289732
 20
20.29105794056563
 30
0.0
 10
68.42066711925911
 20
20.34670025286099
 30
0.0
 10
68.29674450736835
 20
20.3910303650332
 30
0.0
 10
68.1675446248644
 20
20.42367569574044
 30
0.0
 10
68.03257811927978
 20
20.44193214978803
 30
0.0
 10
67.94075761487409
 20
20.44449869073564
 30
0.0
 10
67.89423076923079
 20
20.44579919605608
 30
0.0
  0
SPLINE
  5
188
330
1F
100
AcDbEntity
  8
0
  6
Continuous
 62
     7
370
    15
100
AcDbSpline
210
0.0
220
0.0
230
1.0
 70
     8
 71
     3
 72
    23
 73
    19
 74
     0
 42
0.000000001
 43
0.00000001
 40
0.0
 40
0.0
 40
0.0
 40
0.0
 40
0.0641474448766682
 40
0.1262121152536836
 40
0.186841289021689
 40
0.2469358694509751
 40
0.3072563614860037
 40
0.368150502200675
 40
0.430070766951654
 40
0.4938754417369517
 40
0.5579806818508444
 40
0.6208695259285348
 40
0.682524731375159
 40
0.7440356981057705
 40
0.8058886825781878
 40
0.8689681377436654
 40
0.9332474288479392
 40
1.0
 40
1.0
 40
1.0
 40
1.0
 10
67.90865384615387
 20
17.67656842682531
 30
0.0
 10
67.95465276523117
 20
17.67783492365586
 30
0.0
 10
68.04515708519733
 20
17.68032679600172
 30
0.0
 10
68.17812741729797
 20
17.69897747678836
 30
0.0
 10
68.30551703408534
 20
17.73054116253834
 30
0.0
 10
68.42811678108504
 20
17.77384220392679
 30
0.0
 10
68.54557313543447
 20
17.83013926678155
 30
0.0
 10
68.65731205583825
 20
17.89954671854318
 30
0.0
 10
68.76352945113042
 20
17.98121232507106
 30
0.0
 10
68.86386230447052
 20
18.07342846427064
 30
0.0
 10
68.95557127527397
 20
18.17524611111894
 30
0.0
 10
69.03558429941431
 20
18.28451260886439
 30
0.0
 10
69.1048157149897
 20
18.39882048955885
 30
0.0
 10
69.15984216195302
 20
18.5197876079182
 30
0.0
 10
69.20381583210725
 20
18.64627209096126
 30
0.0
 10
69.23358392282755
 20
18.77883411124542
 30
0.0
 10
69.25278627679533
 20
18.91692719777812
 30
0.0
 10
69.25518715733756
 20
19.01090442324815
 30
0.0
 10
69.25641025641028
 20
19.05877996528685
 30
0.0
  0
SPLINE
  5
189
330
1F
100
AcDbEntity
  8
0
  6
Continuous
 62
     7
370
    15
100
AcDbSpline
210
0.0
220
0.0
230
1.0
 70
     8
 71
     3
 72
    23
 73
    19
 74
     0
 42
0.000000001
 43
0.00000001
 40
0.0
 40
0.0
 40
0.0
 40
0.0
 40
0.0646087354707738
 40
0.127511789723674
 40
0.188521308398647
 40
0.2487081790893725
 40
0.3085982651789115
 40
0.3688122491095555
 40
0.4298875018150768
 40
0.4928024479242463
 40
0.5557433321027926
 40
0.6174852948395643
 40
0.6789689634380393
 40
0.7401976913545553
 40
0.8023601016976082
 40
0.866244776442731
 40
0.9317068283956886
 40
1.0
 40
1.0
 40
1.0
 40
1.0
 10
67.89423076923079
 20
20.44579919605608
 30
0.0
 10
67.84742705921263
 20
20.44454334742934
 30
0.0
 10
67.75505526480072
 20
20.44206480478568
 30
0.0
 10
67.61956266479203
 20
20.42318166215808
 30
0.0
 10
67.4894849838104
 20
20.39302313700736
 30
0.0
 10
67.3655432939381
 20
20.34933888185905
 30
0.0
 10
67.24720042108584
 20
20.29373991216424
 30
0.0
 10
67.13424658000442
 20
20.22642049745894
 30
0.0
 10
67.02824594788629
 20
20.14506660818834
 30
0.0
 10
66.9277851087579
 20
20.05404577189833
 30
0.0
 10
66.83703527167783
 20
19.9526276423995
 30
0.0
 10
66.75685492773664
 20
19.84394086867737
 30
0.0
 10
66.68975689432956
 20
19.72816695584086
 30
0.0
 10
66.63356187101505
 20
19.60638141618044
 30
0.0
 10
66.59125947301904
 20
19.47721480351673
 30
0.0
 10
66.56112874326509
 20
19.34167889394399
 30
0.0
 10
66.5420872467661
 20
19.19954015232463
 30
0.0
 10
66.53968704247623
 20
19.1026443571917
 30
0.0
 10
66.53846153846156
 20
19.05317099092787
 30
0.0
  0
CIRCLE
  5
1A0
330
1F
100
AcDbEntity
  8
0
  6
Continuous
 62
     7
370
    15
100
AcDbCircle
 10
138.32
 20
13.0
 30
0.0
 40
3.999999999999972
  0
SPLINE
  5
1F3
330
1F
100
AcDbEntity
  8
0
  6
HIDDEN
 62
     7
370
     0
100
AcDbSpline
210
0.0
220
0.0
230
1.0
 70
     8
 71
     3
 72
    19
 73
    15
 74
     0
 42
0.000000001
 43
0.00000001
 40
0.0
 40
0.0
 40
0.0
 40
0.0
 40
0.1123318680474732
 40
0.217189152447907
 40
0.3207763822148927
 40
0.4294461252394107
 40
0.486889524848174
 40
0.5473481609653136
 40
0.6105516098532333
 40
0.6785404198027605
 40
0.7510057638701948
 40
0.8285633445446995
 40
0.911493803570982
 40
1.0
 40
1.0
 40
1.0
 40
1.0
 10
57.00000000000001
 20
19.92176073451762
 30
0.0
 10
56.99863252629596
 20
19.95274000613954
 30
0.0
 10
56.99598857084553
 20
20.01263718281762
 30
0.0
 10
56.96606939471563
 20
20.0967381533351
 30
0.0
 10
56.91959899925182
 20
20.17126882545904
 30
0.0
 10
56.86473416580603
 20
20.22227897547328
 30
0.0
 10
56.81306826397958
 20
20.25711740404174
 30
0.0
 10
56.76882874832194
 20
20.28005702568354
 30
0.0
 10
56.72027255793309
 20
20.30059234052107
 30
0.0
 10
56.66645969698121
 20
20.31629414273134
 30
0.0
 10
56.60769746641498
 20
20.32807622224798
 30
0.0
 10
56.54427130718174
 20
20.33672874864429
 30
0.0
 10
56.47607178727097
 20
20.34261802621422
 30
0.0
 10
56.4289662337665
 20
20.34302499239745
 30
0.0
 10
56.40464743589745
 20
20.34323509349198
 30
0.0
  0
SPLINE
  5
1F4
330
1F
100
AcDbEntity
  8
0
  6
HIDDEN
 62
     7
370
     0
100
AcDbSpline
210
0.0
220
0.0
230
1.0
 70
     8
 71
     3
 72
    23
 73
    19
 74
     0
 42
0.000000001
 43
0.00000001
 40
0.0
 40
0.0
 40
0.0
 40
0.0
 40
0.0637689599577415
 40
0.1252623047603753
 40
0.185413582666393
 40
0.2468067624960869
 40
0.3094223888497032
 40
0.3725326822170166
 40
0.4377332507368615
 40
0.5057495167426417
 40
0.5440132631112741
 40
0.5883695992066387
 40
0.6403890193945166
 40
0.6978974005877082
 40
0.7632716192950988
 40
0.8349786038393101
 40
0.9138736558434392
 40
1.0
 40
1.0
 40
1.0
 40
1.0
 10
64.53846153846156
 20
19.93458124733814
 30
0.0
 10
64.53764719334147
 20
19.9557802314939
 30
0.0
 10
64.53604756326003
 20
19.99742170746731
 30
0.0
 10
64.52017426331415
 20
20.05737083157134
 30
0.0
 10
64.49490739853299
 20
20.11285784755933
 30
0.0
 10
64.46027344735785
 20
20.16363205134753
 30
0.0
 10
64.41665648855665
 20
20.20814422342742
 30
0.0
 10
64.36660258706395
 20
20.24738205760568
 30
0.0
 10
64.30903145887387
 20
20.27840840093118
 30
0.0
 10
64.2557249264617
 20
20.29887304663807
 30
0.0
 10
64.20722844192167
 20
20.31111725527884
 30
0.0
 10
64.16346189466337
 20
20.32024153127286
 30
0.0
 10
64.1127799694304
 20
20.32670816756165
 30
0.0
 10
64.05514440413982
 20
20.33356718642191
 30
0.0
 10
63.99070211380891
 20
20.3380149129588
 30
0.0
 10
63.91910184941191
 20
20.3412608667914
 30
0.0
 10
63.840549246375
 20
20.3425889459675
 30
0.0
 10
63.78579062145033
 20
20.34301350947932
 30
0.0
 10
63.75721153846155
 20
20.34323509349198
 30
0.0
  0
SPLINE
  5
1F5
330
1F
100
AcDbEntity
  8
0
  6
HIDDEN
 62
     7
370
     0
100
AcDbSpline
210
0.0
220
0.0
230
1.0
 70
     8
 71
     3
 72
    23
 73
    19
 74
     0
 42
0.000000001
 43
0.00000001
 40
0.0
 40
0.0
 40
0.0
 40
0.0
 40
0.1055399964402507
 40
0.2020864154635848
 40
0.2906848989424175
 40
0.3705526096211966
 40
0.4426702615663713
 40
0.5076749275738669
 40
0.5655732034810451
 40
0.6164546657486243
 40
0.6633313570051004
 40
0.7088620244966143
 40
0.7534118003496251
 40
0.7985150107871093
 40
0.8450643214401151
 40
0.8938731190084057
 40
0.944707806003651
 40
1.0
 40
1.0
 40
1.0
 40
1.0
 10
63.79246794871796
 20
19.52272227297916
 30
0.0
 10
63.82665717232825
 20
19.52310733499415
 30
0.0
 10
63.89212218919321
 20
19.52384464601337
 30
0.0
 10
63.98626948169897
 20
19.52726460014184
 30
0.0
 10
64.07177767622804
 20
19.53550499966852
 30
0.0
 10
64.14901397382425
 20
19.54591643649742
 30
0.0
 10
64.21836702051922
 20
19.55793794387009
 30
0.0
 10
64.27921821160342
 20
19.57516549381195
 30
0.0
 10
64.33250517105478
 20
19.59362524967852
 30
0.0
 10
64.37759644640843
 20
19.61656593772476
 30
0.0
 10
64.4161213959861
 20
19.642654475662
 30
0.0
 10
64.44938522417132
 20
19.67229170328386
 30
0.0
 10
64.47689917953235
 20
19.70659302047538
 30
0.0
 10
64.49954456819904
 20
19.74462626540162
 30
0.0
 10
64.51716021854641
 20
19.78672783274991
 30
0.0
 10
64.53001829377915
 20
19.832435542707
 30
0.0
 10
64.53720405639413
 20
19.88227006488385
 30
0.0
 10
64.53803080285968
 20
19.91666267080895
 30
0.0
 10
64.53846153846156
 20
19.93458124733814
 30
0.0
  0
SPLINE
  5
1F6
330
1F
100
AcDbEntity
  8
0
  6
HIDDEN
 62
     7
370
     0
100
AcDbSpline
210
0.0
220
0.0
230
1.0
 70
     8
 71
     3
 72
    23
 73
    19
 74
     0
 42
0.000000001
 43
0.00000001
 40
0.0
 40
0.0
 40
0.0
 40
0.0
 40
0.1095674252695413
 40
0.2106570473717347
 40
0.3020024587326183
 40
0.3851432164195919
 40
0.4590126129308714
 40
0.5247192090460533
 40
0.5832266479388949
 40
0.6342083193258328
 40
0.681185727793256
 40
0.7262751343643206
 40
0.7701133344783277
 40
0.8140800070141069
 40
0.8579941680783126
 40
0.9033387195085207
 40
0.9505447828389814
 40
1.0
 40
1.0
 40
1.0
 40
1.0
 10
56.38621794871797
 20
17.77913252938942
 30
0.0
 10
56.42708888501316
 20
17.7793660235287
 30
0.0
 10
56.50566836009052
 20
17.77981494514786
 30
0.0
 10
56.61823331890505
 20
17.78523898589347
 30
0.0
 10
56.7205830077221
 20
17.79501486363042
 30
0.0
 10
56.81244623847974
 20
17.80721925949772
 30
0.0
 10
56.89396371710625
 20
17.82375430698062
 30
0.0
 10
56.96485989501196
 20
17.84477650077637
 30
0.0
 10
57.0261070213738
 20
17.86790457551077
 30
0.0
 10
57.07733785539081
 20
17.89647049386103
 30
0.0
 10
57.11919051191661
 20
17.92971413897235
 30
0.0
 10
57.1569581463537
 20
17.96368994283459
 30
0.0
 10
57.18775152210036
 20
18.00288424251014
 30
0.0
 10
57.21211581563927
 20
18.04561453534125
 30
0.0
 10
57.23320306867021
 20
18.09081937001078
 30
0.0
 10
57.24592141058906
 20
18.14026397904371
 30
0.0
 10
57.2556047097568
 20
18.19248294280376
 30
0.0
 10
57.25613760763124
 20
18.22860167076223
 30
0.0
 10
57.25641025641027
 20
18.24708124733813
 30
0.0
  0
SPLINE
  5
1F7
330
1F
100
AcDbEntity
  8
0
  6
HIDDEN
 62
     7
370
     0
100
AcDbSpline
210
0.0
220
0.0
230
1.0
 70
     8
 71
     3
 72
    23
 73
    19
 74
     0
 42
0.000000001
 43
0.00000001
 40
0.0
 40
0.0
 40
0.0
 40
0.0
 40
0.0528263492812297
 40
0.1028915173965589
 40
0.1516981461048776
 40
0.1995775881235318
 40
0.2472235843729619
 40
0.2957231203836684
 40
0.3462538147999394
 40
0.3985071702228987
 40
0.4542901722394602
 40
0.5140415865121251
 40
0.5790927186074071
 40
0.6500371484472951
 40
0.7274510007645203
 40
0.8114520065892891
 40
0.9024758798237954
 40
1.0
 40
1.0
 40
1.0
 40
1.0
 10
57.25641025641027
 20
18.24708124733813
 30
0.0
 10
57.25580898760523
 20
18.26821293381042
 30
0.0
 10
57.25463787772246
 20
18.30937177434862
 30
0.0
 10
57.24507340909764
 20
18.36952981236231
 30
0.0
 10
57.22769164529963
 20
18.42569133234084
 30
0.0
 10
57.20579846572026
 20
18.47929246011209
 30
0.0
 10
57.17533294313132
 20
18.52841408859558
 30
0.0
 10
57.13912571067774
 20
18.57475613107776
 30
0.0
 10
57.09537813069449
 20
18.6167493029663
 30
0.0
 10
57.04618142484567
 20
18.65693350824835
 30
0.0
 10
56.98879833823645
 20
18.69211695705611
 30
0.0
 10
56.92320194837834
 20
18.72264483091886
 30
0.0
 10
56.84903589997948
 20
18.74814058694071
 30
0.0
 10
56.76607045585363
 20
18.76844032460964
 30
0.0
 10
56.67466933007035
 20
18.78566843138213
 30
0.0
 10
56.57416539482297
 20
18.79595551295972
 30
0.0
 10
56.46539568178844
 20
18.80360646762832
 30
0.0
 10
56.38997299262302
 20
18.80437568621815
 30
0.0
 10
56.35096153846155
 20
18.80477355503044
 30
0.0
  0
CIRCLE
  5
1FA
330
1F
100
AcDbEntity
  8
0
  6
HIDDEN
 62
     7
370
     0
100
AcDbCircle
 10
103.5282601942
 20
18.6359201548
 30
0.0
 40
2.499999999999986
  0
CIRCLE
  5
204
330
1F
100
AcDbEntity
  8
0
  6
HIDDEN
 62
     7
370
     0
100
AcDbCircle
 10
73.2995868209
 20
18.6359201548
 30
0.0
 40
1.25
  0
CIRCLE
  5
205
330
1F
100
AcDbEntity
  8
0
  6
HIDDEN
 62
     7
370
     0
100
AcDbCircle
 10
45.9287535132
 20
18.6359201548
 30
0.0
 40
1.249999999999993
  0
CIRCLE
  5
20C
330
1F
100
AcDbEntity
  8
0
  6
HIDDEN
 62
     7
370
     0
100
AcDbCircle
 10
103.5282601942
 20
18.6359201548
 30
0.0
 40
1.250000000000014
  0
CIRCLE
  5
213
330
1F
100
AcDbEntity
  8
0
  6
HIDDEN
 62
     7
370
     0
100
AcDbCircle
 10
24.9816842701
 20
6.75
 30
0.0
 40
2.500000000000004
  0
CIRCLE
  5
215
330
1F
100
AcDbEntity
  8
0
  6
HIDDEN
 62
     7
370
     0
100
AcDbCircle
 10
24.9816842701
 20
6.75
 30
0.0
 40
1.250000000000004
  0
CIRCLE
  5
216
330
1F
100
AcDbEntity
  8
0
  6
HIDDEN
 62
     7
370
     0
100
AcDbCircle
 10
9.1215047581
 20
34.4248731094
 30
0.0
 40
1.250000000000004
  0
CIRCLE
  5
217
330
1F
100
AcDbEntity
  8
0
  6
HIDDEN
 62
     7
370
     0
100
AcDbCircle
 10
9.1215047581
 20
34.4248731094
 30
0.0
 40
2.499999999999991
  0
CIRCLE
  5
241
330
1F
100
AcDbEntity
  8
0
  6
HIDDEN
 62
     7
370
     0
100
AcDbCircle
 10
138.2461590368
 20
33.0670847243
 30
0.0
 40
2.500000000000028
  0
CIRCLE
  5
24E
330
1F
100
AcDbEntity
  8
0
  6
HIDDEN
 62
     7
370
     0
100
AcDbCircle
 10
152.1831954845
 20
6.75
 30
0.0
 40
2.5
  0
CIRCLE
  5
252
330
1F
100
AcDbEntity
  8
0
  6
HIDDEN
 62
     7
370
     0
100
AcDbCircle
 10
138.2461590368
 20
33.0670847243
 30
0.0
 40
1.25
  0
CIRCLE
  5
261
330
1F
100
AcDbEntity
  8
0
  6
HIDDEN
 62
     7
370
     0
100
AcDbCircle
 10
152.1831954845
 20
6.75
 30
0.0
 40
1.250000000000057
  0
LINE
  5
27F
330
1F
100
AcDbEntity
  8
0
  6
Continuous
 62
     7
370
    15
100
AcDbLine
 10
80.9057692308
 20
18.5996453499
 30
0.0
 11
82.1044871795
 21
18.5996453499
 31
0.0
  0
LINE
  5
280
330
1F
100
AcDbEntity
  8
0
  6
Continuous
 62
     7
370
    15
100
AcDbLine
 10
82.6870192308
 20
17.0611838114
 30
0.0
 11
82.3761217949
 21
17.881696632
 31
0.0
  0
LINE
  5
281
330
1F
100
AcDbEntity
  8
0
  6
Continuous
 62
     7
370
    15
100
AcDbLine
 10
82.3761217949
 20
17.881696632
 30
0.0
 11
80.6333333333
 21
17.881696632
 31
0.0
  0
LINE
  5
282
330
1F
100
AcDbEntity
  8
0
  6
Continuous
 62
     7
370
    15
100
AcDbLine
 10
80.6333333333
 20
17.881696632
 30
0.0
 11
80.3224358974
 21
17.0611838114
 31
0.0
  0
LINE
  5
283
330
1F
100
AcDbEntity
  8
0
  6
Continuous
 62
     7
370
    15
100
AcDbLine
 10
80.3224358974
 20
17.0611838114
 30
0.0
 11
79.5564102564
 21
17.0611838114
 31
0.0
  0
LINE
  5
284
330
1F
100
AcDbEntity
  8
0
  6
Continuous
 62
     7
370
    15
100
AcDbLine
 10
79.5564102564
 20
17.0611838114
 30
0.0
 11
81.1725961538
 21
21.0611838114
 31
0.0
  0
LINE
  5
285
330
1F
100
AcDbEntity
  8
0
  6
Continuous
 62
     7
370
    15
100
AcDbLine
 10
81.5051282051
 20
19.9882671448
 30
0.0
 11
80.9057692308
 21
18.5996453499
 31
0.0
  0
LINE
  5
286
330
1F
100
AcDbEntity
  8
0
  6
Continuous
 62
     7
370
    15
100
AcDbLine
 10
81.1725961538
 20
21.0611838114
 30
0.0
 11
81.8384615385
 21
21.0611838114
 31
0.0
  0
LINE
  5
287
330
1F
100
AcDbEntity
  8
0
  6
Continuous
 62
     7
370
    15
100
AcDbLine
 10
83.4538461538
 20
17.0611838114
 30
0.0
 11
82.6870192308
 21
17.0611838114
 31
0.0
  0
LINE
  5
288
330
1F
100
AcDbEntity
  8
0
  6
Continuous
 62
     7
370
    15
100
AcDbLine
 10
82.1044871795
 20
18.5996453499
 30
0.0
 11
81.5051282051
 21
19.9882671448
 31
0.0
  0
LINE
  5
289
330
1F
100
AcDbEntity
  8
0
  6
Continuous
 62
     7
370
    15
100
AcDbLine
 10
81.8384615385
 20
21.0611838114
 30
0.0
 11
83.4538461538
 21
17.0611838114
 31
0.0
  0
LINE
  5
28A
330
1F
100
AcDbEntity
  8
0
  6
Continuous
 62
     7
370
    15
100
AcDbLine
 10
84.7615384615
 20
21.0611838114
 30
0.0
 11
84.7615384615
 21
17.7791325294
 31
0.0
  0
LINE
  5
28B
330
1F
100
AcDbEntity
  8
0
  6
Continuous
 62
     7
370
    15
100
AcDbLine
 10
84.0435897436
 20
17.0611838114
 30
0.0
 11
84.0435897436
 21
21.0611838114
 31
0.0
  0
LINE
  5
28C
330
1F
100
AcDbEntity
  8
0
  6
Continuous
 62
     7
370
    15
100
AcDbLine
 10
84.0435897436
 20
21.0611838114
 30
0.0
 11
84.7615384615
 21
21.0611838114
 31
0.0
  0
LINE
  5
28D
330
1F
100
AcDbEntity
  8
0
  6
Continuous
 62
     7
370
    15
100
AcDbLine
 10
84.7615384615
 20
17.7791325294
 30
0.0
 11
85.8897435897
 21
17.7791325294
 31
0.0
  0
LINE
  5
28E
330
1F
100
AcDbEntity
  8
0
  6
Continuous
 62
     7
370
    15
100
AcDbLine
 10
85.8897435897
 20
17.7791325294
 30
0.0
 11
85.8897435897
 21
17.0611838114
 31
0.0
  0
LINE
  5
28F
330
1F
100
AcDbEntity
  8
0
  6
Continuous
 62
     7
370
    15
100
AcDbLine
 10
85.8897435897
 20
17.0611838114
 30
0.0
 11
84.0435897436
 21
17.0611838114
 31
0.0
  0
LINE
  5
290
330
1F
100
AcDbEntity
  8
0
  6
Continuous
 62
     7
370
    15
100
AcDbLine
 10
86.0948717949
 20
21.0611838114
 30
0.0
 11
88.2487179487
 21
21.0611838114
 31
0.0
  0
LINE
  5
291
330
1F
100
AcDbEntity
  8
0
  6
Continuous
 62
     7
370
    15
100
AcDbLine
 10
88.2487179487
 20
20.3432350935
 30
0.0
 11
87.5307692308
 21
20.3432350935
 31
0.0
  0
LINE
  5
292
330
1F
100
AcDbEntity
  8
0
  6
Continuous
 62
     7
370
    15
100
AcDbLine
 10
87.5307692308
 20
17.0611838114
 30
0.0
 11
86.8128205128
 21
17.0611838114
 31
0.0
  0
LINE
  5
293
330
1F
100
AcDbEntity
  8
0
  6
Continuous
 62
     7
370
    15
100
AcDbLine
 10
86.8128205128
 20
20.3432350935
 30
0.0
 11
86.0948717949
 21
20.3432350935
 31
0.0
  0
LINE
  5
294
330
1F
100
AcDbEntity
  8
0
  6
Continuous
 62
     7
370
    15
100
AcDbLine
 10
86.0948717949
 20
20.3432350935
 30
0.0
 11
86.0948717949
 21
21.0611838114
 31
0.0
  0
LINE
  5
295
330
1F
100
AcDbEntity
  8
0
  6
Continuous
 62
     7
370
    15
100
AcDbLine
 10
88.2487179487
 20
21.0611838114
 30
0.0
 11
88.2487179487
 21
20.3432350935
 31
0.0
  0
LINE
  5
296
330
1F
100
AcDbEntity
  8
0
  6
Continuous
 62
     7
370
    15
100
AcDbLine
 10
86.8128205128
 20
17.0611838114
 30
0.0
 11
86.8128205128
 21
20.3432350935
 31
0.0
  0
LINE
  5
297
330
1F
100
AcDbEntity
  8
0
  6
Continuous
 62
     7
370
    15
100
AcDbLine
 10
87.5307692308
 20
20.3432350935
 30
0.0
 11
87.5307692308
 21
17.0611838114
 31
0.0
  0
LINE
  5
298
330
1F
100
AcDbEntity
  8
0
  6
Continuous
 62
     7
370
    15
100
AcDbLine
 10
63.7572115385
 20
20.3432350935
 30
0.0
 11
63.5128205128
 21
20.3432350935
 31
0.0
  0
LINE
  5
299
330
1F
100
AcDbEntity
  8
0
  6
Continuous
 62
     7
370
    15
100
AcDbLine
 10
63.5128205128
 20
20.3432350935
 30
0.0
 11
63.5128205128
 21
19.522722273
 31
0.0
  0
LINE
  5
29A
330
1F
100
AcDbEntity
  8
0
  6
Continuous
 62
     7
370
    15
100
AcDbLine
 10
63.5128205128
 20
19.522722273
 30
0.0
 11
63.7924679487
 21
19.522722273
 31
0.0
  0
LINE
  5
29B
330
1F
100
AcDbEntity
  8
0
  6
Continuous
 62
     7
370
    15
100
AcDbLine
 10
62.7948717949
 20
21.0611838114
 30
0.0
 11
63.6314102564
 21
21.0611838114
 31
0.0
  0
LINE
  5
29C
330
1F
100
AcDbEntity
  8
0
  6
Continuous
 62
     7
370
    15
100
AcDbLine
 10
64.5128205128
 20
18.8865043243
 30
0.0
 11
65.4358974359
 21
17.0611838114
 31
0.0
  0
LINE
  5
29D
330
1F
100
AcDbEntity
  8
0
  6
Continuous
 62
     7
370
    15
100
AcDbLine
 10
65.4358974359
 20
17.0611838114
 30
0.0
 11
64.6378205128
 21
17.0611838114
 31
0.0
  0
LINE
  5
29E
330
1F
100
AcDbEntity
  8
0
  6
Continuous
 62
     7
370
    15
100
AcDbLine
 10
64.6378205128
 20
17.0611838114
 30
0.0
 11
63.7564102564
 21
18.804773555
 31
0.0
  0
LINE
  5
29F
330
1F
100
AcDbEntity
  8
0
  6
Continuous
 62
     7
370
    15
100
AcDbLine
 10
63.7564102564
 20
18.804773555
 30
0.0
 11
63.5128205128
 21
18.804773555
 31
0.0
  0
LINE
  5
2A0
330
1F
100
AcDbEntity
  8
0
  6
Continuous
 62
     7
370
    15
100
AcDbLine
 10
63.5128205128
 20
18.804773555
 30
0.0
 11
63.5128205128
 21
17.0611838114
 31
0.0
  0
LINE
  5
2A1
330
1F
100
AcDbEntity
  8
0
  6
Continuous
 62
     7
370
    15
100
AcDbLine
 10
63.5128205128
 20
17.0611838114
 30
0.0
 11
62.7948717949
 21
17.0611838114
 31
0.0
  0
LINE
  5
2A2
330
1F
100
AcDbEntity
  8
0
  6
Continuous
 62
     7
370
    15
100
AcDbLine
 10
62.7948717949
 20
17.0611838114
 30
0.0
 11
62.7948717949
 21
21.0611838114
 31
0.0
  0
LINE
  5
2A3
330
1F
100
AcDbEntity
  8
0
  6
Continuous
 62
     7
370
    15
100
AcDbLine
 10
60.2564102564
 20
19.9882671448
 30
0.0
 11
59.6570512821
 21
18.5996453499
 31
0.0
  0
LINE
  5
2A4
330
1F
100
AcDbEntity
  8
0
  6
Continuous
 62
     7
370
    15
100
AcDbLine
 10
59.6570512821
 20
18.5996453499
 30
0.0
 11
60.8557692308
 21
18.5996453499
 31
0.0
  0
LINE
  5
2A5
330
1F
100
AcDbEntity
  8
0
  6
Continuous
 62
     7
370
    15
100
AcDbLine
 10
60.8557692308
 20
18.5996453499
 30
0.0
 11
60.2564102564
 21
19.9882671448
 31
0.0
  0
LINE
  5
2A6
330
1F
100
AcDbEntity
  8
0
  6
Continuous
 62
     7
370
    15
100
AcDbLine
 10
59.9238782051
 20
21.0611838114
 30
0.0
 11
60.5897435897
 21
21.0611838114
 31
0.0
  0
LINE
  5
2A7
330
1F
100
AcDbEntity
  8
0
  6
Continuous
 62
     7
370
    15
100
AcDbLine
 10
60.5897435897
 20
21.0611838114
 30
0.0
 11
62.2051282051
 21
17.0611838114
 31
0.0
  0
LINE
  5
2A8
330
1F
100
AcDbEntity
  8
0
  6
Continuous
 62
     7
370
    15
100
AcDbLine
 10
62.2051282051
 20
17.0611838114
 30
0.0
 11
61.4383012821
 21
17.0611838114
 31
0.0
  0
LINE
  5
2A9
330
1F
100
AcDbEntity
  8
0
  6
Continuous
 62
     7
370
    15
100
AcDbLine
 10
61.4383012821
 20
17.0611838114
 30
0.0
 11
61.1274038462
 21
17.881696632
 31
0.0
  0
LINE
  5
2AA
330
1F
100
AcDbEntity
  8
0
  6
Continuous
 62
     7
370
    15
100
AcDbLine
 10
61.1274038462
 20
17.881696632
 30
0.0
 11
59.3846153846
 21
17.881696632
 31
0.0
  0
LINE
  5
2AB
330
1F
100
AcDbEntity
  8
0
  6
Continuous
 62
     7
370
    15
100
AcDbLine
 10
59.3846153846
 20
17.881696632
 30
0.0
 11
59.0737179487
 21
17.0611838114
 31
0.0
  0
LINE
  5
2AC
330
1F
100
AcDbEntity
  8
0
  6
Continuous
 62
     7
370
    15
100
AcDbLine
 10
59.0737179487
 20
17.0611838114
 30
0.0
 11
58.3076923077
 21
17.0611838114
 31
0.0
  0
LINE
  5
2AD
330
1F
100
AcDbEntity
  8
0
  6
Continuous
 62
     7
370
    15
100
AcDbLine
 10
58.3076923077
 20
17.0611838114
 30
0.0
 11
59.9238782051
 21
21.0611838114
 31
0.0
  0
LINE
  5
2AE
330
1F
100
AcDbEntity
  8
0
  6
Continuous
 62
     7
370
    15
100
AcDbLine
 10
56.1794871795
 20
17.7791325294
 30
0.0
 11
56.3862179487
 21
17.7791325294
 31
0.0
  0
LINE
  5
2AF
330
1F
100
AcDbEntity
  8
0
  6
Continuous
 62
     7
370
    15
100
AcDbLine
 10
56.3509615385
 20
18.804773555
 30
0.0
 11
56.1794871795
 21
18.804773555
 31
0.0
  0
LINE
  5
2B0
330
1F
100
AcDbEntity
  8
0
  6
Continuous
 62
     7
370
    15
100
AcDbLine
 10
56.1794871795
 20
18.804773555
 30
0.0
 11
56.1794871795
 21
17.7791325294
 31
0.0
  0
LINE
  5
2B1
330
1F
100
AcDbEntity
  8
0
  6
Continuous
 62
     7
370
    15
100
AcDbLine
 10
55.4615384615
 20
17.0611838114
 30
0.0
 11
55.4615384615
 21
21.0611838114
 31
0.0
  0
LINE
  5
2B2
330
1F
100
AcDbEntity
  8
0
  6
Continuous
 62
     7
370
    15
100
AcDbLine
 10
55.4615384615
 20
21.0611838114
 30
0.0
 11
56.1025641026
 21
21.0611838114
 31
0.0
  0
LINE
  5
2B3
330
1F
100
AcDbEntity
  8
0
  6
Continuous
 62
     7
370
    15
100
AcDbLine
 10
56.5865384615
 20
17.0611838114
 30
0.0
 11
55.4615384615
 21
17.0611838114
 31
0.0
  0
LINE
  5
2B4
330
1F
100
AcDbEntity
  8
0
  6
Continuous
 62
     7
370
    15
100
AcDbLine
 10
56.1794871795
 20
19.4714402217
 30
0.0
 11
56.3701923077
 21
19.4714402217
 31
0.0
  0
LINE
  5
2B5
330
1F
100
AcDbEntity
  8
0
  6
Continuous
 62
     7
370
    15
100
AcDbLine
 10
56.4046474359
 20
20.3432350935
 30
0.0
 11
56.1794871795
 21
20.3432350935
 31
0.0
  0
LINE
  5
2B6
330
1F
100
AcDbEntity
  8
0
  6
Continuous
 62
     7
370
    15
100
AcDbLine
 10
56.1794871795
 20
20.3432350935
 30
0.0
 11
56.1794871795
 21
19.4714402217
 31
0.0
  0
LINE
  5
2B7
330
1F
100
AcDbEntity
  8
0
  6
Continuous
 62
     7
370
    15
100
AcDbLine
 10
43.1102564103
 20
20.5267286832
 30
0.0
 11
42.5733974359
 21
20.0355427858
 31
0.0
  0
LINE
  5
2B8
330
1F
100
AcDbEntity
  8
0
  6
Continuous
 62
     7
370
    15
100
AcDbLine
 10
40.7512820513
 20
17.8103825294
 30
0.0
 11
41.3826923077
 21
18.1893889396
 31
0.0
  0
LINE
  5
2B9
330
1F
100
AcDbEntity
  8
0
  6
Continuous
 62
     7
370
    15
100
AcDbLine
 10
37.5950320513
 20
21.0611838114
 30
0.0
 11
38.6230769231
 21
18.2198376576
 31
0.0
  0
LINE
  5
2BA
330
1F
100
AcDbEntity
  8
0
  6
Continuous
 62
     7
370
    15
100
AcDbLine
 10
39.653525641
 20
21.0611838114
 30
0.0
 11
40.4179487179
 21
21.0611838114
 31
0.0
  0
LINE
  5
2BB
330
1F
100
AcDbEntity
  8
0
  6
Continuous
 62
     7
370
    15
100
AcDbLine
 10
40.4179487179
 20
21.0611838114
 30
0.0
 11
38.9676282051
 21
17.0611838114
 31
0.0
  0
LINE
  5
2BC
330
1F
100
AcDbEntity
  8
0
  6
Continuous
 62
     7
370
    15
100
AcDbLine
 10
38.6230769231
 20
18.2198376576
 30
0.0
 11
39.653525641
 21
21.0611838114
 31
0.0
  0
LINE
  5
2BD
330
1F
100
AcDbEntity
  8
0
  6
Continuous
 62
     7
370
    15
100
AcDbLine
 10
38.9676282051
 20
17.0611838114
 30
0.0
 11
38.2761217949
 21
17.0611838114
 31
0.0
  0
LINE
  5
2BE
330
1F
100
AcDbEntity
  8
0
  6
Continuous
 62
     7
370
    15
100
AcDbLine
 10
38.2761217949
 20
17.0611838114
 30
0.0
 11
36.8282051282
 21
21.0611838114
 31
0.0
  0
LINE
  5
2BF
330
1F
100
AcDbEntity
  8
0
  6
Continuous
 62
     7
370
    15
100
AcDbLine
 10
36.8282051282
 20
21.0611838114
 30
0.0
 11
37.5950320513
 21
21.0611838114
 31
0.0
  0
LINE
  5
2C0
330
1F
100
AcDbEntity
  8
0
  6
Continuous
 62
     7
370
    15
100
AcDbLine
 10
78.4301940358
 20
9.25
 30
0.0
 11
78.4301940358
 21
4.25
 31
0.0
  0
LINE
  5
2C1
330
1F
100
AcDbEntity
  8
0
  6
Continuous
 62
     7
370
    15
100
AcDbLine
 10
78.4301940358
 20
4.25
 30
0.0
 11
78.1301940358
 21
4.25
 31
0.0
  0
LINE
  5
2C2
330
1F
100
AcDbEntity
  8
0
  6
Continuous
 62
     7
370
    15
100
AcDbLine
 10
78.1301940358
 20
4.25
 30
0.0
 11
78.1301940358
 21
9.25
 31
0.0
  0
LINE
  5
2C3
330
1F
100
AcDbEntity
  8
0
  6
Continuous
 62
     7
370
    15
100
AcDbLine
 10
78.1301940358
 20
9.25
 30
0.0
 11
78.4301940358
 21
9.25
 31
0.0
  0
LINE
  5
2C4
330
1F
100
AcDbEntity
  8
0
  6
Continuous
 62
     7
370
    15
100
AcDbLine
 10
104.4301940358
 20
4.25
 30
0.0
 11
104.4301940358
 21
9.25
 31
0.0
  0
LINE
  5
2C5
330
1F
100
AcDbEntity
  8
0
  6
Continuous
 62
     7
370
    15
100
AcDbLine
 10
104.7301940358
 20
9.25
 30
0.0
 11
104.4301940358
 21
9.25
 31
0.0
  0
LINE
  5
2C6
330
1F
100
AcDbEntity
  8
0
  6
Continuous
 62
     7
370
    15
100
AcDbLine
 10
104.7301940358
 20
9.25
 30
0.0
 11
104.7301940358
 21
4.25
 31
0.0
  0
LINE
  5
2C7
330
1F
100
AcDbEntity
  8
0
  6
Continuous
 62
     7
370
    15
100
AcDbLine
 10
104.4301940358
 20
4.25
 30
0.0
 11
104.7301940358
 21
4.25
 31
0.0
  0
LINE
  5
2C8
330
1F
100
AcDbEntity
  8
0
  6
Continuous
 62
     7
370
    15
100
AcDbLine
 10
64.4301940358
 20
3.25
 30
0.0
 11
64.4301940358
 21
2.95
 31
0.0
  0
LINE
  5
2C9
330
1F
100
AcDbEntity
  8
0
  6
Continuous
 62
     7
370
    15
100
AcDbLine
 10
63.4301940358
 20
4.25
 30
0.0
 11
63.1301940358
 21
4.25
 31
0.0
  0
LINE
  5
2CA
330
1F
100
AcDbEntity
  8
0
  6
Continuous
 62
     7
370
    15
100
AcDbLine
 10
103.4301940358
 20
10.55
 30
0.0
 11
103.4301940358
 21
10.25
 31
0.0
  0
LINE
  5
2CB
330
1F
100
AcDbEntity
  8
0
  6
Continuous
 62
     7
370
    15
100
AcDbLine
 10
122.4540943701
 20
16.25
 30
0.0
 11
122.7540943701
 21
16.25
 31
0.0
  0
LINE
  5
2CC
330
1F
100
AcDbEntity
  8
0
  6
Continuous
 62
     7
370
    15
100
AcDbLine
 10
121.4540943701
 20
15.25
 30
0.0
 11
121.4540943701
 21
14.95
 31
0.0
  0
LINE
  5
2CD
330
1F
100
AcDbEntity
  8
0
  6
Continuous
 62
     7
370
    15
100
AcDbLine
 10
122.7540943701
 20
21.25
 30
0.0
 11
122.4540943701
 21
21.25
 31
0.0
  0
LINE
  5
2CE
330
1F
100
AcDbEntity
  8
0
  6
Continuous
 62
     7
370
    15
100
AcDbLine
 10
121.4540943701
 20
22.55
 30
0.0
 11
121.4540943701
 21
22.25
 31
0.0
  0
LINE
  5
2CF
330
1F
100
AcDbEntity
  8
0
  6
Continuous
 62
     7
370
    15
100
AcDbLine
 10
93.4301940358
 20
9.25
 30
0.0
 11
93.4301940358
 21
4.25
 31
0.0
  0
LINE
  5
2D0
330
1F
100
AcDbEntity
  8
0
  6
Continuous
 62
     7
370
    15
100
AcDbLine
 10
93.4301940358
 20
4.25
 30
0.0
 11
93.1301940358
 21
4.25
 31
0.0
  0
LINE
  5
2D1
330
1F
100
AcDbEntity
  8
0
  6
Continuous
 62
     7
370
    15
100
AcDbLine
 10
93.1301940358
 20
4.25
 30
0.0
 11
93.1301940358
 21
9.25
 31
0.0
  0
LINE
  5
2D2
330
1F
100
AcDbEntity
  8
0
  6
Continuous
 62
     7
370
    15
100
AcDbLine
 10
93.1301940358
 20
9.25
 30
0.0
 11
93.4301940358
 21
9.25
 31
0.0
  0
LINE
  5
2D3
330
1F
100
AcDbEntity
  8
0
  6
Continuous
 62
     7
370
    15
100
AcDbLine
 10
111.4540943701
 20
9.25
 30
0.0
 11
111.4540943701
 21
4.25
 31
0.0
  0
LINE
  5
2D4
330
1F
100
AcDbEntity
  8
0
  6
Continuous
 62
     7
370
    15
100
AcDbLine
 10
111.4540943701
 20
4.25
 30
0.0
 11
111.1540943701
 21
4.25
 31
0.0
  0
LINE
  5
2D5
330
1F
100
AcDbEntity
  8
0
  6
Continuous
 62
     7
370
    15
100
AcDbLine
 10
111.1540943701
 20
4.25
 30
0.0
 11
111.1540943701
 21
9.25
 31
0.0
  0
LINE
  5
2D6
330
1F
100
AcDbEntity
  8
0
  6
Continuous
 62
     7
370
    15
100
AcDbLine
 10
111.1540943701
 20
9.25
 30
0.0
 11
111.4540943701
 21
9.25
 31
0.0
  0
LINE
  5
2D7
330
1F
100
AcDbEntity
  8
0
  6
Continuous
 62
     7
370
    15
100
AcDbLine
 10
112.4540943701
 20
3.25
 30
0.0
 11
112.4540943701
 21
2.95
 31
0.0
  0
LINE
  5
2D8
330
1F
100
AcDbEntity
  8
0
  6
Continuous
 62
     7
370
    15
100
AcDbLine
 10
112.4540943701
 20
10.55
 30
0.0
 11
112.4540943701
 21
10.25
 31
0.0
  0
LINE
  5
2D9
330
1F
100
AcDbEntity
  8
0
  6
Continuous
 62
     7
370
    15
100
AcDbLine
 10
112.4540943701
 20
3.25
 30
0.0
 11
121.4540943701
 21
3.25
 31
0.0
  0
LINE
  5
2DA
330
1F
100
AcDbEntity
  8
0
  6
Continuous
 62
     7
370
    15
100
AcDbLine
 10
121.4540943701
 20
3.25
 30
0.0
 11
121.4540943701
 21
2.95
 31
0.0
  0
LINE
  5
2DB
330
1F
100
AcDbEntity
  8
0
  6
Continuous
 62
     7
370
    15
100
AcDbLine
 10
121.4540943701
 20
2.95
 30
0.0
 11
112.4540943701
 21
2.95
 31
0.0
  0
LINE
  5
2DC
330
1F
100
AcDbEntity
  8
0
  6
Continuous
 62
     7
370
    15
100
AcDbLine
 10
112.4540943701
 20
10.55
 30
0.0
 11
121.4540943701
 21
10.55
 31
0.0
  0
LINE
  5
2DD
330
1F
100
AcDbEntity
  8
0
  6
Continuous
 62
     7
370
    15
100
AcDbLine
 10
121.4540943701
 20
10.55
 30
0.0
 11
121.4540943701
 21
10.25
 31
0.0
  0
LINE
  5
2DE
330
1F
100
AcDbEntity
  8
0
  6
Continuous
 62
     7
370
    15
100
AcDbLine
 10
121.4540943701
 20
10.25
 30
0.0
 11
112.4540943701
 21
10.25
 31
0.0
  0
LINE
  5
2DF
330
1F
100
AcDbEntity
  8
0
  6
Continuous
 62
     7
370
    15
100
AcDbLine
 10
145.25
 20
38.8
 30
0.0
 11
154.25
 21
38.8
 31
0.0
  0
LINE
  5
2E0
330
1F
100
AcDbEntity
  8
0
  6
Continuous
 62
     7
370
    15
100
AcDbLine
 10
143.95
 20
32.5
 30
0.0
 11
143.95
 21
37.5
 31
0.0
  0
LINE
  5
2E1
330
1F
100
AcDbEntity
  8
0
  6
Continuous
 62
     7
370
    15
100
AcDbLine
 10
154.25
 20
31.2
 30
0.0
 11
145.25
 21
31.2
 31
0.0
  0
LINE
  5
2E2
330
1F
100
AcDbEntity
  8
0
  6
Continuous
 62
     7
370
    15
100
AcDbLine
 10
155.55
 20
37.5
 30
0.0
 11
155.55
 21
32.5
 31
0.0
  0
LINE
  5
2E3
330
1F
100
AcDbEntity
  8
0
  6
Continuous
 62
     7
370
    15
100
AcDbLine
 10
122.3895854918
 20
38.8
 30
0.0
 11
131.3895854918
 21
38.8
 31
0.0
  0
LINE
  5
2E4
330
1F
100
AcDbEntity
  8
0
  6
Continuous
 62
     7
370
    15
100
AcDbLine
 10
121.0895854918
 20
32.5
 30
0.0
 11
121.0895854918
 21
37.5
 31
0.0
  0
LINE
  5
2E5
330
1F
100
AcDbEntity
  8
0
  6
Continuous
 62
     7
370
    15
100
AcDbLine
 10
131.3895854918
 20
31.2
 30
0.0
 11
122.3895854918
 21
31.2
 31
0.0
  0
LINE
  5
2E6
330
1F
100
AcDbEntity
  8
0
  6
Continuous
 62
     7
370
    15
100
AcDbLine
 10
132.6895854918
 20
37.5
 30
0.0
 11
132.6895854918
 21
32.5
 31
0.0
  0
LINE
  5
2E7
330
1F
100
AcDbEntity
  8
0
  6
Continuous
 62
     7
370
    15
100
AcDbLine
 10
112.4540943701
 20
22.55
 30
0.0
 11
121.4540943701
 21
22.55
 31
0.0
  0
LINE
  5
2E8
330
1F
100
AcDbEntity
  8
0
  6
Continuous
 62
     7
370
    15
100
AcDbLine
 10
111.1540943701
 20
16.25
 30
0.0
 11
111.1540943701
 21
21.25
 31
0.0
  0
LINE
  5
2E9
330
1F
100
AcDbEntity
  8
0
  6
Continuous
 62
     7
370
    15
100
AcDbLine
 10
121.4540943701
 20
14.95
 30
0.0
 11
112.4540943701
 21
14.95
 31
0.0
  0
LINE
  5
2EA
330
1F
100
AcDbEntity
  8
0
  6
Continuous
 62
     7
370
    15
100
AcDbLine
 10
122.7540943701
 20
21.25
 30
0.0
 11
122.7540943701
 21
16.25
 31
0.0
  0
LINE
  5
2EB
330
1F
100
AcDbEntity
  8
0
  6
Continuous
 62
     7
370
    15
100
AcDbLine
 10
122.7540943701
 20
9.25
 30
0.0
 11
122.7540943701
 21
4.25
 31
0.0
  0
LINE
  5
2EC
330
1F
100
AcDbEntity
  8
0
  6
Continuous
 62
     7
370
    15
100
AcDbLine
 10
94.4301940358
 20
10.55
 30
0.0
 11
103.4301940358
 21
10.55
 31
0.0
  0
LINE
  5
2ED
330
1F
100
AcDbEntity
  8
0
  6
Continuous
 62
     7
370
    15
100
AcDbLine
 10
103.4301940358
 20
2.95
 30
0.0
 11
94.4301940358
 21
2.95
 31
0.0
  0
LINE
  5
2EE
330
1F
100
AcDbEntity
  8
0
  6
Continuous
 62
     7
370
    15
100
AcDbLine
 10
79.4301940358
 20
10.55
 30
0.0
 11
88.4301940358
 21
10.55
 31
0.0
  0
LINE
  5
2EF
330
1F
100
AcDbEntity
  8
0
  6
Continuous
 62
     7
370
    15
100
AcDbLine
 10
88.4301940358
 20
2.95
 30
0.0
 11
79.4301940358
 21
2.95
 31
0.0
  0
LINE
  5
2F0
330
1F
100
AcDbEntity
  8
0
  6
Continuous
 62
     7
370
    15
100
AcDbLine
 10
89.7301940358
 20
9.25
 30
0.0
 11
89.7301940358
 21
4.25
 31
0.0
  0
LINE
  5
2F1
330
1F
100
AcDbEntity
  8
0
  6
Continuous
 62
     7
370
    15
100
AcDbLine
 10
64.4301940358
 20
10.55
 30
0.0
 11
73.4301940358
 21
10.55
 31
0.0
  0
LINE
  5
2F2
330
1F
100
AcDbEntity
  8
0
  6
Continuous
 62
     7
370
    15
100
AcDbLine
 10
63.1301940358
 20
4.25
 30
0.0
 11
63.1301940358
 21
9.25
 31
0.0
  0
LINE
  5
2F3
330
1F
100
AcDbEntity
  8
0
  6
Continuous
 62
     7
370
    15
100
AcDbLine
 10
73.4301940358
 20
2.95
 30
0.0
 11
64.4301940358
 21
2.95
 31
0.0
  0
LINE
  5
2F4
330
1F
100
AcDbEntity
  8
0
  6
Continuous
 62
     7
370
    15
100
AcDbLine
 10
74.7301940358
 20
9.25
 30
0.0
 11
74.7301940358
 21
4.25
 31
0.0
  0
LINE
  5
2F5
330
1F
100
AcDbEntity
  8
0
  6
Continuous
 62
     7
370
    15
100
AcDbLine
 10
31.7
 20
22.7
 30
0.0
 11
31.7
 21
38.3
 31
0.0
  0
LINE
  5
2F6
330
1F
100
AcDbEntity
  8
0
  6
Continuous
 62
     7
370
    15
100
AcDbLine
 10
93.3
 20
22.7
 30
0.0
 11
31.7
 21
22.7
 31
0.0
  0
LINE
  5
2F7
330
1F
100
AcDbEntity
  8
0
  6
Continuous
 62
     7
370
    15
100
AcDbLine
 10
93.3
 20
38.3
 30
0.0
 11
93.3
 21
22.7
 31
0.0
  0
LINE
  5
2F8
330
1F
100
AcDbEntity
  8
0
  6
Continuous
 62
     7
370
    15
100
AcDbLine
 10
31.7
 20
38.3
 30
0.0
 11
93.3
 21
38.3
 31
0.0
  0
LINE
  5
2F9
330
1F
100
AcDbEntity
  8
0
  6
Continuous
 62
     7
370
    15
100
AcDbLine
 10
49.4301940358
 20
10.55
 30
0.0
 11
58.4301940358
 21
10.55
 31
0.0
  0
LINE
  5
2FA
330
1F
100
AcDbEntity
  8
0
  6
Continuous
 62
     7
370
    15
100
AcDbLine
 10
48.1301940358
 20
4.25
 30
0.0
 11
48.1301940358
 21
9.25
 31
0.0
  0
LINE
  5
2FB
330
1F
100
AcDbEntity
  8
0
  6
Continuous
 62
     7
370
    15
100
AcDbLine
 10
58.4301940358
 20
2.95
 30
0.0
 11
49.4301940358
 21
2.95
 31
0.0
  0
LINE
  5
2FC
330
1F
100
AcDbEntity
  8
0
  6
Continuous
 62
     7
370
    15
100
AcDbLine
 10
59.7301940358
 20
9.25
 30
0.0
 11
59.7301940358
 21
4.25
 31
0.0
  0
LINE
  5
2FD
330
1F
100
AcDbEntity
  8
0
  6
Continuous
 62
     7
370
    15
100
AcDbLine
 10
34.4301940358
 20
10.55
 30
0.0
 11
43.4301940358
 21
10.55
 31
0.0
  0
LINE
  5
2FE
330
1F
100
AcDbEntity
  8
0
  6
Continuous
 62
     7
370
    15
100
AcDbLine
 10
33.1301940358
 20
4.25
 30
0.0
 11
33.1301940358
 21
9.25
 31
0.0
  0
LINE
  5
2FF
330
1F
100
AcDbEntity
  8
0
  6
Continuous
 62
     7
370
    15
100
AcDbLine
 10
43.4301940358
 20
2.95
 30
0.0
 11
34.4301940358
 21
2.95
 31
0.0
  0
LINE
  5
300
330
1F
100
AcDbEntity
  8
0
  6
Continuous
 62
     7
370
    15
100
AcDbLine
 10
44.7301940358
 20
9.25
 30
0.0
 11
44.7301940358
 21
4.25
 31
0.0
  0
LINE
  5
301
330
1F
100
AcDbEntity
  8
0
  6
Continuous
 62
     7
370
    15
100
AcDbLine
 10
7.5
 20
10.55
 30
0.0
 11
16.5
 21
10.55
 31
0.0
  0
LINE
  5
302
330
1F
100
AcDbEntity
  8
0
  6
Continuous
 62
     7
370
    15
100
AcDbLine
 10
6.2
 20
4.25
 30
0.0
 11
6.2
 21
9.25
 31
0.0
  0
LINE
  5
303
330
1F
100
AcDbEntity
  8
0
  6
Continuous
 62
     7
370
    15
100
AcDbLine
 10
16.5
 20
2.95
 30
0.0
 11
7.5
 21
2.95
 31
0.0
  0
LINE
  5
304
330
1F
100
AcDbEntity
  8
0
  6
Continuous
 62
     7
370
    15
100
AcDbLine
 10
17.8
 20
9.25
 30
0.0
 11
17.8
 21
4.25
 31
0.0
  0
LINE
  5
305
330
1F
100
AcDbEntity
  8
0
  6
Continuous
 62
     7
370
    15
100
AcDbLine
 10
0.5
 20
0.0
 30
0.0
 11
0.5
 21
41.0
 31
0.0
  0
LINE
  5
306
330
1F
100
AcDbEntity
  8
0
  6
Continuous
 62
     7
370
    15
100
AcDbLine
 10
159.5
 20
41.0
 30
0.0
 11
0.5
 21
41.0
 31
0.0
  0
LINE
  5
307
330
1F
100
AcDbEntity
  8
0
  6
Continuous
 62
     7
370
    15
100
AcDbLine
 10
159.5
 20
41.0
 30
0.0
 11
159.5
 21
0.0
 31
0.0
  0
LINE
  5
308
330
1F
100
AcDbEntity
  8
0
  6
Continuous
 62
     7
370
    15
100
AcDbLine
 10
0.5
 20
0.0
 30
0.0
 11
159.5
 21
0.0
 31
0.0
  0
LINE
  5
309
330
1F
100
AcDbEntity
  8
0
  6
Continuous
 62
     7
370
    15
100
AcDbLine
 10
59.7301940358
 20
9.25
 30
0.0
 11
59.4301940358
 21
9.25
 31
0.0
  0
LINE
  5
30A
330
1F
100
AcDbEntity
  8
0
  6
Continuous
 62
     7
370
    15
100
AcDbLine
 10
58.4301940358
 20
10.55
 30
0.0
 11
58.4301940358
 21
10.25
 31
0.0
  0
LINE
  5
30B
330
1F
100
AcDbEntity
  8
0
  6
Continuous
 62
     7
370
    15
100
AcDbLine
 10
122.4540943701
 20
4.25
 30
0.0
 11
122.4540943701
 21
9.25
 31
0.0
  0
LINE
  5
30C
330
1F
100
AcDbEntity
  8
0
  6
Continuous
 62
     7
370
    15
100
AcDbLine
 10
122.7540943701
 20
9.25
 30
0.0
 11
122.4540943701
 21
9.25
 31
0.0
  0
LINE
  5
30D
330
1F
100
AcDbEntity
  8
0
  6
Continuous
 62
     7
370
    15
100
AcDbLine
 10
122.4540943701
 20
4.25
 30
0.0
 11
122.7540943701
 21
4.25
 31
0.0
  0
LINE
  5
30E
330
1F
100
AcDbEntity
  8
0
  6
Continuous
 62
     7
370
    15
100
AcDbLine
 10
94.4301940358
 20
3.25
 30
0.0
 11
94.4301940358
 21
2.95
 31
0.0
  0
LINE
  5
30F
330
1F
100
AcDbEntity
  8
0
  6
Continuous
 62
     7
370
    15
100
AcDbLine
 10
103.4301940358
 20
10.25
 30
0.0
 11
94.4301940358
 21
10.25
 31
0.0
  0
LINE
  5
310
330
1F
100
AcDbEntity
  8
0
  6
Continuous
 62
     7
370
    15
100
AcDbLine
 10
94.4301940358
 20
10.55
 30
0.0
 11
94.4301940358
 21
10.25
 31
0.0
  0
LINE
  5
311
330
1F
100
AcDbEntity
  8
0
  6
Continuous
 62
     7
370
    15
100
AcDbLine
 10
103.4301940358
 20
3.25
 30
0.0
 11
103.4301940358
 21
2.95
 31
0.0
  0
LINE
  5
312
330
1F
100
AcDbEntity
  8
0
  6
Continuous
 62
     7
370
    15
100
AcDbLine
 10
44.4301940358
 20
4.25
 30
0.0
 11
44.4301940358
 21
9.25
 31
0.0
  0
LINE
  5
313
330
1F
100
AcDbEntity
  8
0
  6
Continuous
 62
     7
370
    15
100
AcDbLine
 10
44.7301940358
 20
9.25
 30
0.0
 11
44.4301940358
 21
9.25
 31
0.0
  0
LINE
  5
314
330
1F
100
AcDbEntity
  8
0
  6
Continuous
 62
     7
370
    15
100
AcDbLine
 10
44.4301940358
 20
4.25
 30
0.0
 11
44.7301940358
 21
4.25
 31
0.0
  0
LINE
  5
315
330
1F
100
AcDbEntity
  8
0
  6
Continuous
 62
     7
370
    15
100
AcDbLine
 10
122.4540943701
 20
16.25
 30
0.0
 11
122.4540943701
 21
21.25
 31
0.0
  0
LINE
  5
316
330
1F
100
AcDbEntity
  8
0
  6
Continuous
 62
     7
370
    15
100
AcDbLine
 10
112.4540943701
 20
15.25
 30
0.0
 11
112.4540943701
 21
14.95
 31
0.0
  0
LINE
  5
317
330
1F
100
AcDbEntity
  8
0
  6
Continuous
 62
     7
370
    15
100
AcDbLine
 10
111.4540943701
 20
16.25
 30
0.0
 11
111.1540943701
 21
16.25
 31
0.0
  0
LINE
  5
318
330
1F
100
AcDbEntity
  8
0
  6
Continuous
 62
     7
370
    15
100
AcDbLine
 10
112.4540943701
 20
22.55
 30
0.0
 11
112.4540943701
 21
22.25
 31
0.0
  0
LINE
  5
319
330
1F
100
AcDbEntity
  8
0
  6
Continuous
 62
     7
370
    15
100
AcDbLine
 10
111.1540943701
 20
21.25
 30
0.0
 11
111.4540943701
 21
21.25
 31
0.0
  0
LINE
  5
31A
330
1F
100
AcDbEntity
  8
0
  6
Continuous
 62
     7
370
    15
100
AcDbLine
 10
112.4540943701
 20
15.25
 30
0.0
 11
121.4540943701
 21
15.25
 31
0.0
  0
LINE
  5
31B
330
1F
100
AcDbEntity
  8
0
  6
Continuous
 62
     7
370
    15
100
AcDbLine
 10
145.25
 20
38.8
 30
0.0
 11
145.25
 21
38.5
 31
0.0
  0
LINE
  5
31C
330
1F
100
AcDbEntity
  8
0
  6
Continuous
 62
     7
370
    15
100
AcDbLine
 10
143.95
 20
37.5
 30
0.0
 11
144.25
 21
37.5
 31
0.0
  0
LINE
  5
31D
330
1F
100
AcDbEntity
  8
0
  6
Continuous
 62
     7
370
    15
100
AcDbLine
 10
79.4301940358
 20
3.25
 30
0.0
 11
79.4301940358
 21
2.95
 31
0.0
  0
LINE
  5
31E
330
1F
100
AcDbEntity
  8
0
  6
Continuous
 62
     7
370
    15
100
AcDbLine
 10
131.3895854918
 20
38.8
 30
0.0
 11
131.3895854918
 21
38.5
 31
0.0
  0
LINE
  5
31F
330
1F
100
AcDbEntity
  8
0
  6
Continuous
 62
     7
370
    15
100
AcDbLine
 10
131.3895854918
 20
38.5
 30
0.0
 11
122.3895854918
 21
38.5
 31
0.0
  0
LINE
  5
320
330
1F
100
AcDbEntity
  8
0
  6
Continuous
 62
     7
370
    15
100
AcDbLine
 10
122.3895854918
 20
38.8
 30
0.0
 11
122.3895854918
 21
38.5
 31
0.0
  0
LINE
  5
321
330
1F
100
AcDbEntity
  8
0
  6
Continuous
 62
     7
370
    15
100
AcDbLine
 10
93.3
 20
38.3
 30
0.0
 11
93.0
 21
38.0
 31
0.0
  0
LINE
  5
322
330
1F
100
AcDbEntity
  8
0
  6
Continuous
 62
     7
370
    15
100
AcDbLine
 10
93.0
 20
38.0
 30
0.0
 11
32.0
 21
38.0
 31
0.0
  0
LINE
  5
323
330
1F
100
AcDbEntity
  8
0
  6
Continuous
 62
     7
370
    15
100
AcDbLine
 10
31.7
 20
38.3
 30
0.0
 11
32.0
 21
38.0
 31
0.0
  0
LINE
  5
324
330
1F
100
AcDbEntity
  8
0
  6
Continuous
 62
     7
370
    15
100
AcDbLine
 10
58.4301940358
 20
10.25
 30
0.0
 11
49.4301940358
 21
10.25
 31
0.0
  0
LINE
  5
325
330
1F
100
AcDbEntity
  8
0
  6
Continuous
 62
     7
370
    15
100
AcDbLine
 10
49.4301940358
 20
10.55
 30
0.0
 11
49.4301940358
 21
10.25
 31
0.0
  0
LINE
  5
326
330
1F
100
AcDbEntity
  8
0
  6
Continuous
 62
     7
370
    15
100
AcDbLine
 10
34.4301940358
 20
3.25
 30
0.0
 11
43.4301940358
 21
3.25
 31
0.0
  0
LINE
  5
327
330
1F
100
AcDbEntity
  8
0
  6
Continuous
 62
     7
370
    15
100
AcDbLine
 10
43.4301940358
 20
3.25
 30
0.0
 11
43.4301940358
 21
2.95
 31
0.0
  0
LINE
  5
328
330
1F
100
AcDbEntity
  8
0
  6
Continuous
 62
     7
370
    15
100
AcDbLine
 10
34.4301940358
 20
3.25
 30
0.0
 11
34.4301940358
 21
2.95
 31
0.0
  0
LINE
  5
329
330
1F
100
AcDbEntity
  8
0
  6
Continuous
 62
     7
370
    15
100
AcDbLine
 10
144.25
 20
37.5
 30
0.0
 11
144.25
 21
32.5
 31
0.0
  0
LINE
  5
32A
330
1F
100
AcDbEntity
  8
0
  6
Continuous
 62
     7
370
    15
100
AcDbLine
 10
144.25
 20
32.5
 30
0.0
 11
143.95
 21
32.5
 31
0.0
  0
LINE
  5
32B
330
1F
100
AcDbEntity
  8
0
  6
Continuous
 62
     7
370
    15
100
AcDbLine
 10
145.25
 20
31.5
 30
0.0
 11
145.25
 21
31.2
 31
0.0
  0
LINE
  5
32C
330
1F
100
AcDbEntity
  8
0
  6
Continuous
 62
     7
370
    15
100
AcDbLine
 10
145.25
 20
31.5
 30
0.0
 11
154.25
 21
31.5
 31
0.0
  0
LINE
  5
32D
330
1F
100
AcDbEntity
  8
0
  6
Continuous
 62
     7
370
    15
100
AcDbLine
 10
154.25
 20
31.5
 30
0.0
 11
154.25
 21
31.2
 31
0.0
  0
LINE
  5
32E
330
1F
100
AcDbEntity
  8
0
  6
Continuous
 62
     7
370
    15
100
AcDbLine
 10
154.25
 20
38.8
 30
0.0
 11
154.25
 21
38.5
 31
0.0
  0
LINE
  5
32F
330
1F
100
AcDbEntity
  8
0
  6
Continuous
 62
     7
370
    15
100
AcDbLine
 10
154.25
 20
38.5
 30
0.0
 11
145.25
 21
38.5
 31
0.0
  0
LINE
  5
330
330
1F
100
AcDbEntity
  8
0
  6
Continuous
 62
     7
370
    15
100
AcDbLine
 10
155.25
 20
32.5
 30
0.0
 11
155.55
 21
32.5
 31
0.0
  0
LINE
  5
331
330
1F
100
AcDbEntity
  8
0
  6
Continuous
 62
     7
370
    15
100
AcDbLine
 10
155.55
 20
37.5
 30
0.0
 11
155.25
 21
37.5
 31
0.0
  0
LINE
  5
332
330
1F
100
AcDbEntity
  8
0
  6
Continuous
 62
     7
370
    15
100
AcDbLine
 10
155.25
 20
32.5
 30
0.0
 11
155.25
 21
37.5
 31
0.0
  0
LINE
  5
333
330
1F
100
AcDbEntity
  8
0
  6
Continuous
 62
     7
370
    15
100
AcDbLine
 10
121.3895854918
 20
37.5
 30
0.0
 11
121.3895854918
 21
32.5
 31
0.0
  0
LINE
  5
334
330
1F
100
AcDbEntity
  8
0
  6
Continuous
 62
     7
370
    15
100
AcDbLine
 10
121.3895854918
 20
32.5
 30
0.0
 11
121.0895854918
 21
32.5
 31
0.0
  0
LINE
  5
335
330
1F
100
AcDbEntity
  8
0
  6
Continuous
 62
     7
370
    15
100
AcDbLine
 10
121.0895854918
 20
37.5
 30
0.0
 11
121.3895854918
 21
37.5
 31
0.0
  0
LINE
  5
336
330
1F
100
AcDbEntity
  8
0
  6
Continuous
 62
     7
370
    15
100
AcDbLine
 10
122.3895854918
 20
31.5
 30
0.0
 11
122.3895854918
 21
31.2
 31
0.0
  0
LINE
  5
337
330
1F
100
AcDbEntity
  8
0
  6
Continuous
 62
     7
370
    15
100
AcDbLine
 10
122.3895854918
 20
31.5
 30
0.0
 11
131.3895854918
 21
31.5
 31
0.0
  0
LINE
  5
338
330
1F
100
AcDbEntity
  8
0
  6
Continuous
 62
     7
370
    15
100
AcDbLine
 10
131.3895854918
 20
31.5
 30
0.0
 11
131.3895854918
 21
31.2
 31
0.0
  0
LINE
  5
339
330
1F
100
AcDbEntity
  8
0
  6
Continuous
 62
     7
370
    15
100
AcDbLine
 10
63.4301940358
 20
9.25
 30
0.0
 11
63.4301940358
 21
4.25
 31
0.0
  0
LINE
  5
33A
330
1F
100
AcDbEntity
  8
0
  6
Continuous
 62
     7
370
    15
100
AcDbLine
 10
63.1301940358
 20
9.25
 30
0.0
 11
63.4301940358
 21
9.25
 31
0.0
  0
LINE
  5
33B
330
1F
100
AcDbEntity
  8
0
  6
Continuous
 62
     7
370
    15
100
AcDbLine
 10
132.3895854918
 20
32.5
 30
0.0
 11
132.6895854918
 21
32.5
 31
0.0
  0
LINE
  5
33C
330
1F
100
AcDbEntity
  8
0
  6
Continuous
 62
     7
370
    15
100
AcDbLine
 10
132.6895854918
 20
37.5
 30
0.0
 11
132.3895854918
 21
37.5
 31
0.0
  0
LINE
  5
33D
330
1F
100
AcDbEntity
  8
0
  6
Continuous
 62
     7
370
    15
100
AcDbLine
 10
132.3895854918
 20
32.5
 30
0.0
 11
132.3895854918
 21
37.5
 31
0.0
  0
LINE
  5
33E
330
1F
100
AcDbEntity
  8
0
  6
Continuous
 62
     7
370
    15
100
AcDbLine
 10
111.4540943701
 20
21.25
 30
0.0
 11
111.4540943701
 21
16.25
 31
0.0
  0
LINE
  5
33F
330
1F
100
AcDbEntity
  8
0
  6
Continuous
 62
     7
370
    15
100
AcDbLine
 10
74.4301940358
 20
4.25
 30
0.0
 11
74.7301940358
 21
4.25
 31
0.0
  0
LINE
  5
340
330
1F
100
AcDbEntity
  8
0
  6
Continuous
 62
     7
370
    15
100
AcDbLine
 10
73.4301940358
 20
3.25
 30
0.0
 11
73.4301940358
 21
2.95
 31
0.0
  0
LINE
  5
341
330
1F
100
AcDbEntity
  8
0
  6
Continuous
 62
     7
370
    15
100
AcDbLine
 10
74.7301940358
 20
9.25
 30
0.0
 11
74.4301940358
 21
9.25
 31
0.0
  0
LINE
  5
342
330
1F
100
AcDbEntity
  8
0
  6
Continuous
 62
     7
370
    15
100
AcDbLine
 10
73.4301940358
 20
10.55
 30
0.0
 11
73.4301940358
 21
10.25
 31
0.0
  0
LINE
  5
343
330
1F
100
AcDbEntity
  8
0
  6
Continuous
 62
     7
370
    15
100
AcDbLine
 10
74.4301940358
 20
4.25
 30
0.0
 11
74.4301940358
 21
9.25
 31
0.0
  0
LINE
  5
344
330
1F
100
AcDbEntity
  8
0
  6
Continuous
 62
     7
370
    15
100
AcDbLine
 10
121.4540943701
 20
22.25
 30
0.0
 11
112.4540943701
 21
22.25
 31
0.0
  0
LINE
  5
345
330
1F
100
AcDbEntity
  8
0
  6
Continuous
 62
     7
370
    15
100
AcDbLine
 10
32.0
 20
23.0
 30
0.0
 11
93.0
 21
23.0
 31
0.0
  0
LINE
  5
346
330
1F
100
AcDbEntity
  8
0
  6
Continuous
 62
     7
370
    15
100
AcDbLine
 10
93.0
 20
23.0
 30
0.0
 11
93.3
 21
22.7
 31
0.0
  0
LINE
  5
347
330
1F
100
AcDbEntity
  8
0
  6
Continuous
 62
     7
370
    15
100
AcDbLine
 10
32.0
 20
23.0
 30
0.0
 11
31.7
 21
22.7
 31
0.0
  0
LINE
  5
348
330
1F
100
AcDbEntity
  8
0
  6
Continuous
 62
     7
370
    15
100
AcDbLine
 10
6.5
 20
9.25
 30
0.0
 11
6.5
 21
4.25
 31
0.0
  0
LINE
  5
349
330
1F
100
AcDbEntity
  8
0
  6
Continuous
 62
     7
370
    15
100
AcDbLine
 10
6.5
 20
4.25
 30
0.0
 11
6.2
 21
4.25
 31
0.0
  0
LINE
  5
34A
330
1F
100
AcDbEntity
  8
0
  6
Continuous
 62
     7
370
    15
100
AcDbLine
 10
6.2
 20
9.25
 30
0.0
 11
6.5
 21
9.25
 31
0.0
  0
LINE
  5
34B
330
1F
100
AcDbEntity
  8
0
  6
Continuous
 62
     7
370
    15
100
AcDbLine
 10
93.0
 20
23.0
 30
0.0
 11
93.0
 21
38.0
 31
0.0
  0
LINE
  5
34C
330
1F
100
AcDbEntity
  8
0
  6
Continuous
 62
     7
370
    15
100
AcDbLine
 10
48.4301940358
 20
9.25
 30
0.0
 11
48.4301940358
 21
4.25
 31
0.0
  0
LINE
  5
34D
330
1F
100
AcDbEntity
  8
0
  6
Continuous
 62
     7
370
    15
100
AcDbLine
 10
48.4301940358
 20
4.25
 30
0.0
 11
48.1301940358
 21
4.25
 31
0.0
  0
LINE
  5
34E
330
1F
100
AcDbEntity
  8
0
  6
Continuous
 62
     7
370
    15
100
AcDbLine
 10
48.1301940358
 20
9.25
 30
0.0
 11
48.4301940358
 21
9.25
 31
0.0
  0
LINE
  5
34F
330
1F
100
AcDbEntity
  8
0
  6
Continuous
 62
     7
370
    15
100
AcDbLine
 10
49.4301940358
 20
3.25
 30
0.0
 11
49.4301940358
 21
2.95
 31
0.0
  0
LINE
  5
350
330
1F
100
AcDbEntity
  8
0
  6
Continuous
 62
     7
370
    15
100
AcDbLine
 10
49.4301940358
 20
3.25
 30
0.0
 11
58.4301940358
 21
3.25
 31
0.0
  0
LINE
  5
351
330
1F
100
AcDbEntity
  8
0
  6
Continuous
 62
     7
370
    15
100
AcDbLine
 10
58.4301940358
 20
3.25
 30
0.0
 11
58.4301940358
 21
2.95
 31
0.0
  0
LINE
  5
352
330
1F
100
AcDbEntity
  8
0
  6
Continuous
 62
     7
370
    15
100
AcDbLine
 10
89.7301940358
 20
9.25
 30
0.0
 11
89.4301940358
 21
9.25
 31
0.0
  0
LINE
  5
353
330
1F
100
AcDbEntity
  8
0
  6
Continuous
 62
     7
370
    15
100
AcDbLine
 10
88.4301940358
 20
10.55
 30
0.0
 11
88.4301940358
 21
10.25
 31
0.0
  0
LINE
  5
354
330
1F
100
AcDbEntity
  8
0
  6
Continuous
 62
     7
370
    15
100
AcDbLine
 10
59.4301940358
 20
4.25
 30
0.0
 11
59.7301940358
 21
4.25
 31
0.0
  0
LINE
  5
355
330
1F
100
AcDbEntity
  8
0
  6
Continuous
 62
     7
370
    15
100
AcDbLine
 10
59.4301940358
 20
4.25
 30
0.0
 11
59.4301940358
 21
9.25
 31
0.0
  0
LINE
  5
356
330
1F
100
AcDbEntity
  8
0
  6
Continuous
 62
     7
370
    15
100
AcDbLine
 10
33.4301940358
 20
9.25
 30
0.0
 11
33.4301940358
 21
4.25
 31
0.0
  0
LINE
  5
357
330
1F
100
AcDbEntity
  8
0
  6
Continuous
 62
     7
370
    15
100
AcDbLine
 10
33.4301940358
 20
4.25
 30
0.0
 11
33.1301940358
 21
4.25
 31
0.0
  0
LINE
  5
358
330
1F
100
AcDbEntity
  8
0
  6
Continuous
 62
     7
370
    15
100
AcDbLine
 10
33.1301940358
 20
9.25
 30
0.0
 11
33.4301940358
 21
9.25
 31
0.0
  0
LINE
  5
359
330
1F
100
AcDbEntity
  8
0
  6
Continuous
 62
     7
370
    15
100
AcDbLine
 10
94.4301940358
 20
3.25
 30
0.0
 11
103.4301940358
 21
3.25
 31
0.0
  0
LINE
  5
35A
330
1F
100
AcDbEntity
  8
0
  6
Continuous
 62
     7
370
    15
100
AcDbLine
 10
43.4301940358
 20
10.55
 30
0.0
 11
43.4301940358
 21
10.25
 31
0.0
  0
LINE
  5
35B
330
1F
100
AcDbEntity
  8
0
  6
Continuous
 62
     7
370
    15
100
AcDbLine
 10
43.4301940358
 20
10.25
 30
0.0
 11
34.4301940358
 21
10.25
 31
0.0
  0
LINE
  5
35C
330
1F
100
AcDbEntity
  8
0
  6
Continuous
 62
     7
370
    15
100
AcDbLine
 10
34.4301940358
 20
10.55
 30
0.0
 11
34.4301940358
 21
10.25
 31
0.0
  0
LINE
  5
35D
330
1F
100
AcDbEntity
  8
0
  6
Continuous
 62
     7
370
    15
100
AcDbLine
 10
88.4301940358
 20
10.25
 30
0.0
 11
79.4301940358
 21
10.25
 31
0.0
  0
LINE
  5
35E
330
1F
100
AcDbEntity
  8
0
  6
Continuous
 62
     7
370
    15
100
AcDbLine
 10
79.4301940358
 20
10.55
 30
0.0
 11
79.4301940358
 21
10.25
 31
0.0
  0
LINE
  5
35F
330
1F
100
AcDbEntity
  8
0
  6
Continuous
 62
     7
370
    15
100
AcDbLine
 10
7.5
 20
3.25
 30
0.0
 11
7.5
 21
2.95
 31
0.0
  0
LINE
  5
360
330
1F
100
AcDbEntity
  8
0
  6
Continuous
 62
     7
370
    15
100
AcDbLine
 10
79.4301940358
 20
3.25
 30
0.0
 11
88.4301940358
 21
3.25
 31
0.0
  0
LINE
  5
361
330
1F
100
AcDbEntity
  8
0
  6
Continuous
 62
     7
370
    15
100
AcDbLine
 10
88.4301940358
 20
3.25
 30
0.0
 11
88.4301940358
 21
2.95
 31
0.0
  0
LINE
  5
362
330
1F
100
AcDbEntity
  8
0
  6
Continuous
 62
     7
370
    15
100
AcDbLine
 10
89.4301940358
 20
4.25
 30
0.0
 11
89.7301940358
 21
4.25
 31
0.0
  0
LINE
  5
363
330
1F
100
AcDbEntity
  8
0
  6
Continuous
 62
     7
370
    15
100
AcDbLine
 10
17.8
 20
9.25
 30
0.0
 11
17.5
 21
9.25
 31
0.0
  0
LINE
  5
364
330
1F
100
AcDbEntity
  8
0
  6
Continuous
 62
     7
370
    15
100
AcDbLine
 10
16.5
 20
10.55
 30
0.0
 11
16.5
 21
10.25
 31
0.0
  0
LINE
  5
365
330
1F
100
AcDbEntity
  8
0
  6
Continuous
 62
     7
370
    15
100
AcDbLine
 10
89.4301940358
 20
4.25
 30
0.0
 11
89.4301940358
 21
9.25
 31
0.0
  0
LINE
  5
366
330
1F
100
AcDbEntity
  8
0
  6
Continuous
 62
     7
370
    15
100
AcDbLine
 10
73.4301940358
 20
10.25
 30
0.0
 11
64.4301940358
 21
10.25
 31
0.0
  0
LINE
  5
367
330
1F
100
AcDbEntity
  8
0
  6
Continuous
 62
     7
370
    15
100
AcDbLine
 10
64.4301940358
 20
10.55
 30
0.0
 11
64.4301940358
 21
10.25
 31
0.0
  0
LINE
  5
368
330
1F
100
AcDbEntity
  8
0
  6
Continuous
 62
     7
370
    15
100
AcDbLine
 10
64.4301940358
 20
3.25
 30
0.0
 11
73.4301940358
 21
3.25
 31
0.0
  0
LINE
  5
369
330
1F
100
AcDbEntity
  8
0
  6
Continuous
 62
     7
370
    15
100
AcDbLine
 10
32.0
 20
38.0
 30
0.0
 11
32.0
 21
23.0
 31
0.0
  0
LINE
  5
36A
330
1F
100
AcDbEntity
  8
0
  6
Continuous
 62
     7
370
    15
100
AcDbLine
 10
17.5
 20
4.25
 30
0.0
 11
17.8
 21
4.25
 31
0.0
  0
LINE
  5
36B
330
1F
100
AcDbEntity
  8
0
  6
Continuous
 62
     7
370
    15
100
AcDbLine
 10
16.5
 20
3.25
 30
0.0
 11
16.5
 21
2.95
 31
0.0
  0
LINE
  5
36C
330
1F
100
AcDbEntity
  8
0
  6
Continuous
 62
     7
370
    15
100
AcDbLine
 10
7.5
 20
10.55
 30
0.0
 11
7.5
 21
10.25
 31
0.0
  0
LINE
  5
36D
330
1F
100
AcDbEntity
  8
0
  6
Continuous
 62
     7
370
    15
100
AcDbLine
 10
7.5
 20
3.25
 30
0.0
 11
16.5
 21
3.25
 31
0.0
  0
LINE
  5
36E
330
1F
100
AcDbEntity
  8
0
  6
Continuous
 62
     7
370
    15
100
AcDbLine
 10
16.5
 20
10.25
 30
0.0
 11
7.5
 21
10.25
 31
0.0
  0
LINE
  5
36F
330
1F
100
AcDbEntity
  8
0
  6
Continuous
 62
     7
370
    15
100
AcDbLine
 10
17.5
 20
4.25
 30
0.0
 11
17.5
 21
9.25
 31
0.0
  0
LINE
  5
370
330
1F
100
AcDbEntity
  8
0
  6
HIDDEN
 62
     7
370
     0
100
AcDbLine
 10
154.0
 20
39.5
 30
0.0
 11
133.4895854918
 21
39.5
 31
0.0
  0
LINE
  5
371
330
1F
100
AcDbEntity
  8
0
  6
HIDDEN
 62
     7
370
     0
100
AcDbLine
 10
133.4895854918
 20
39.7
 30
0.0
 11
133.4895854918
 21
26.8
 31
0.0
  0
LINE
  5
372
330
1F
100
AcDbEntity
  8
0
  6
HIDDEN
 62
     7
370
     0
100
AcDbLine
 10
120.2895854918
 20
39.5
 30
0.0
 11
6.0
 21
39.5
 31
0.0
  0
LINE
  5
373
330
1F
100
AcDbEntity
  8
0
  6
HIDDEN
 62
     7
370
     0
100
AcDbLine
 10
120.2895854918
 20
26.8
 30
0.0
 11
120.2895854918
 21
39.7
 31
0.0
  0
LINE
  5
374
330
1F
100
AcDbEntity
  8
0
  6
HIDDEN
 62
     7
370
     0
100
AcDbLine
 10
70.3037805225
 20
16.6108581943
 30
0.0
 11
55.0250421844
 21
16.6108581943
 31
0.0
  0
LINE
  5
375
330
1F
100
AcDbEntity
  8
0
  6
HIDDEN
 62
     7
370
     0
100
AcDbLine
 10
70.3037805225
 20
21.4522690966
 30
0.0
 11
70.3037805225
 21
16.6108581943
 31
0.0
  0
LINE
  5
376
330
1F
100
AcDbEntity
  8
0
  6
HIDDEN
 62
     7
370
     0
100
AcDbLine
 10
55.0250421844
 20
21.4522690966
 30
0.0
 11
70.3037805225
 21
21.4522690966
 31
0.0
  0
LINE
  5
377
330
1F
100
AcDbEntity
  8
0
  6
HIDDEN
 62
     7
370
     0
100
AcDbLine
 10
6.0
 20
39.5
 30
0.0
 11
6.0
 21
40.5
 31
0.0
  0
LINE
  5
378
330
1F
100
AcDbEntity
  8
0
  6
HIDDEN
 62
     7
370
     0
100
AcDbLine
 10
6.0
 20
40.5
 30
0.0
 11
154.0
 21
40.5
 31
0.0
  0
LINE
  5
379
330
1F
100
AcDbEntity
  8
0
  6
HIDDEN
 62
     7
370
     0
100
AcDbLine
 10
55.0250421844
 20
16.6108581943
 30
0.0
 11
55.0250421844
 21
21.4522690966
 31
0.0
  0
LINE
  5
37A
330
1F
100
AcDbEntity
  8
0
  6
HIDDEN
 62
     7
370
     0
100
AcDbLine
 10
75.5301940358
 20
14.95
 30
0.0
 11
75.5301940358
 21
2.05
 31
0.0
  0
LINE
  5
37B
330
1F
100
AcDbEntity
  8
0
  6
HIDDEN
 62
     7
370
     0
100
AcDbLine
 10
74.8301940358
 20
2.75
 30
0.0
 11
63.0301940358
 21
2.75
 31
0.0
  0
LINE
  5
37C
330
1F
100
AcDbEntity
  8
0
  6
HIDDEN
 62
     7
370
     0
100
AcDbLine
 10
63.0301940358
 20
2.75
 30
0.0
 11
63.0301940358
 21
14.25
 31
0.0
  0
LINE
  5
37D
330
1F
100
AcDbEntity
  8
0
  6
HIDDEN
 62
     7
370
     0
100
AcDbLine
 10
63.0301940358
 20
14.25
 30
0.0
 11
74.8301940358
 21
14.25
 31
0.0
  0
LINE
  5
37E
330
1F
100
AcDbEntity
  8
0
  6
HIDDEN
 62
     7
370
     0
100
AcDbLine
 10
74.8301940358
 20
14.25
 30
0.0
 11
74.8301940358
 21
2.75
 31
0.0
  0
LINE
  5
37F
330
1F
100
AcDbEntity
  8
0
  6
HIDDEN
 62
     7
370
     0
100
AcDbLine
 10
90.5301940358
 20
2.05
 30
0.0
 11
77.3301940358
 21
2.05
 31
0.0
  0
LINE
  5
380
330
1F
100
AcDbEntity
  8
0
  6
HIDDEN
 62
     7
370
     0
100
AcDbLine
 10
77.3301940358
 20
2.05
 30
0.0
 11
77.3301940358
 21
14.95
 31
0.0
  0
LINE
  5
381
330
1F
100
AcDbEntity
  8
0
  6
HIDDEN
 62
     7
370
     0
100
AcDbLine
 10
77.3301940358
 20
14.95
 30
0.0
 11
90.5301940358
 21
14.95
 31
0.0
  0
LINE
  5
382
330
1F
100
AcDbEntity
  8
0
  6
HIDDEN
 62
     7
370
     0
100
AcDbLine
 10
90.5301940358
 20
14.95
 30
0.0
 11
90.5301940358
 21
2.05
 31
0.0
  0
LINE
  5
383
330
1F
100
AcDbEntity
  8
0
  6
HIDDEN
 62
     7
370
     0
100
AcDbLine
 10
89.8301940358
 20
2.75
 30
0.0
 11
78.0301940358
 21
2.75
 31
0.0
  0
LINE
  5
384
330
1F
100
AcDbEntity
  8
0
  6
HIDDEN
 62
     7
370
     0
100
AcDbLine
 10
78.0301940358
 20
2.75
 30
0.0
 11
78.0301940358
 21
14.25
 31
0.0
  0
LINE
  5
385
330
1F
100
AcDbEntity
  8
0
  6
HIDDEN
 62
     7
370
     0
100
AcDbLine
 10
71.0037805225
 20
22.1522690966
 30
0.0
 11
71.0037805225
 21
19.6255026123
 31
0.0
  0
LINE
  5
386
330
1F
100
AcDbEntity
  8
0
  6
HIDDEN
 62
     7
370
     0
100
AcDbLine
 10
45.5301940358
 20
14.95
 30
0.0
 11
45.5301940358
 21
2.05
 31
0.0
  0
LINE
  5
387
330
1F
100
AcDbEntity
  8
0
  6
HIDDEN
 62
     7
370
     0
100
AcDbLine
 10
105.5301940358
 20
14.95
 30
0.0
 11
105.5301940358
 21
2.05
 31
0.0
  0
LINE
  5
388
330
1F
100
AcDbEntity
  8
0
  6
HIDDEN
 62
     7
370
     0
100
AcDbLine
 10
104.8301940358
 20
2.75
 30
0.0
 11
93.0301940358
 21
2.75
 31
0.0
  0
LINE
  5
389
330
1F
100
AcDbEntity
  8
0
  6
HIDDEN
 62
     7
370
     0
100
AcDbLine
 10
93.0301940358
 20
2.75
 30
0.0
 11
93.0301940358
 21
14.25
 31
0.0
  0
LINE
  5
38A
330
1F
100
AcDbEntity
  8
0
  6
HIDDEN
 62
     7
370
     0
100
AcDbLine
 10
93.0301940358
 20
14.25
 30
0.0
 11
104.8301940358
 21
14.25
 31
0.0
  0
LINE
  5
38B
330
1F
100
AcDbEntity
  8
0
  6
HIDDEN
 62
     7
370
     0
100
AcDbLine
 10
104.8301940358
 20
14.25
 30
0.0
 11
104.8301940358
 21
2.75
 31
0.0
  0
LINE
  5
38C
330
1F
100
AcDbEntity
  8
0
  6
HIDDEN
 62
     7
370
     0
100
AcDbLine
 10
44.8301940358
 20
2.75
 30
0.0
 11
33.0301940358
 21
2.75
 31
0.0
  0
LINE
  5
38D
330
1F
100
AcDbEntity
  8
0
  6
HIDDEN
 62
     7
370
     0
100
AcDbLine
 10
154.0
 20
40.5
 30
0.0
 11
154.0
 21
39.5
 31
0.0
  0
LINE
  5
38E
330
1F
100
AcDbEntity
  8
0
  6
HIDDEN
 62
     7
370
     0
100
AcDbLine
 10
6.0
 20
0.5
 30
0.0
 11
6.0
 21
1.5
 31
0.0
  0
LINE
  5
38F
330
1F
100
AcDbEntity
  8
0
  6
HIDDEN
 62
     7
370
     0
100
AcDbLine
 10
6.0
 20
1.5
 30
0.0
 11
154.0
 21
1.5
 31
0.0
  0
LINE
  5
390
330
1F
100
AcDbEntity
  8
0
  6
HIDDEN
 62
     7
370
     0
100
AcDbLine
 10
154.0
 20
1.5
 30
0.0
 11
154.0
 21
0.5
 31
0.0
  0
LINE
  5
391
330
1F
100
AcDbEntity
  8
0
  6
HIDDEN
 62
     7
370
     0
100
AcDbLine
 10
154.0
 20
0.5
 30
0.0
 11
6.0
 21
0.5
 31
0.0
  0
LINE
  5
392
330
1F
100
AcDbEntity
  8
0
  6
HIDDEN
 62
     7
370
     0
100
AcDbLine
 10
78.0301940358
 20
14.25
 30
0.0
 11
89.8301940358
 21
14.25
 31
0.0
  0
LINE
  5
393
330
1F
100
AcDbEntity
  8
0
  6
HIDDEN
 62
     7
370
     0
100
AcDbLine
 10
89.8301940358
 20
14.25
 30
0.0
 11
89.8301940358
 21
2.75
 31
0.0
  0
LINE
  5
394
330
1F
100
AcDbEntity
  8
0
  6
HIDDEN
 62
     7
370
     0
100
AcDbLine
 10
17.9
 20
2.75
 30
0.0
 11
6.1
 21
2.75
 31
0.0
  0
LINE
  5
395
330
1F
100
AcDbEntity
  8
0
  6
HIDDEN
 62
     7
370
     0
100
AcDbLine
 10
105.5301940358
 20
2.05
 30
0.0
 11
92.3301940358
 21
2.05
 31
0.0
  0
LINE
  5
396
330
1F
100
AcDbEntity
  8
0
  6
HIDDEN
 62
     7
370
     0
100
AcDbLine
 10
92.3301940358
 20
2.05
 30
0.0
 11
92.3301940358
 21
14.95
 31
0.0
  0
LINE
  5
397
330
1F
100
AcDbEntity
  8
0
  6
HIDDEN
 62
     7
370
     0
100
AcDbLine
 10
92.3301940358
 20
14.95
 30
0.0
 11
105.5301940358
 21
14.95
 31
0.0
  0
LINE
  5
398
330
1F
100
AcDbEntity
  8
0
  6
HIDDEN
 62
     7
370
     0
100
AcDbLine
 10
62.3301940358
 20
14.95
 30
0.0
 11
75.5301940358
 21
14.95
 31
0.0
  0
LINE
  5
399
330
1F
100
AcDbEntity
  8
0
  6
HIDDEN
 62
     7
370
     0
100
AcDbLine
 10
157.0
 20
0.0
 30
0.0
 11
157.0
 21
41.0
 31
0.0
  0
LINE
  5
39A
330
1F
100
AcDbEntity
  8
0
  6
HIDDEN
 62
     7
370
     0
100
AcDbLine
 10
44.1232658775
 20
16.9066965147
 30
0.0
 11
44.1232658775
 21
15.9108581943
 31
0.0
  0
LINE
  5
39B
330
1F
100
AcDbEntity
  8
0
  6
HIDDEN
 62
     7
370
     0
100
AcDbLine
 10
44.1232658775
 20
22.1088290572
 30
0.0
 11
44.1232658775
 21
20.3651437949
 31
0.0
  0
LINE
  5
39C
330
1F
100
AcDbEntity
  8
0
  6
HIDDEN
 62
     7
370
     0
100
AcDbLine
 10
35.8439834531
 20
15.9108581943
 30
0.0
 11
35.8439834531
 21
22.1088290572
 31
0.0
  0
LINE
  5
39D
330
1F
100
AcDbEntity
  8
0
  6
HIDDEN
 62
     7
370
     0
100
AcDbLine
 10
71.0037805225
 20
17.6463376974
 30
0.0
 11
71.0037805225
 21
15.9108581943
 31
0.0
  0
LINE
  5
39E
330
1F
100
AcDbEntity
  8
0
  6
HIDDEN
 62
     7
370
     0
100
AcDbLine
 10
44.1232658775
 20
15.9108581943
 30
0.0
 11
35.8439834531
 21
15.9108581943
 31
0.0
  0
LINE
  5
39F
330
1F
100
AcDbEntity
  8
0
  6
HIDDEN
 62
     7
370
     0
100
AcDbLine
 10
5.4
 20
2.05
 30
0.0
 11
5.4
 21
14.95
 31
0.0
  0
LINE
  5
3A0
330
1F
100
AcDbEntity
  8
0
  6
HIDDEN
 62
     7
370
     0
100
AcDbLine
 10
5.4
 20
14.95
 30
0.0
 11
18.6
 21
14.95
 31
0.0
  0
LINE
  5
3A1
330
1F
100
AcDbEntity
  8
0
  6
HIDDEN
 62
     7
370
     0
100
AcDbLine
 10
18.6
 20
14.95
 30
0.0
 11
18.6
 21
2.05
 31
0.0
  0
LINE
  5
3A2
330
1F
100
AcDbEntity
  8
0
  6
HIDDEN
 62
     7
370
     0
100
AcDbLine
 10
18.6
 20
2.05
 30
0.0
 11
5.4
 21
2.05
 31
0.0
  0
LINE
  5
3A3
330
1F
100
AcDbEntity
  8
0
  6
HIDDEN
 62
     7
370
     0
100
AcDbLine
 10
6.1
 20
2.75
 30
0.0
 11
6.1
 21
14.25
 31
0.0
  0
LINE
  5
3A4
330
1F
100
AcDbEntity
  8
0
  6
HIDDEN
 62
     7
370
     0
100
AcDbLine
 10
6.1
 20
14.25
 30
0.0
 11
17.9
 21
14.25
 31
0.0
  0
LINE
  5
3A5
330
1F
100
AcDbEntity
  8
0
  6
HIDDEN
 62
     7
370
     0
100
AcDbLine
 10
17.9
 20
14.25
 30
0.0
 11
17.9
 21
2.75
 31
0.0
  0
LINE
  5
3A6
330
1F
100
AcDbEntity
  8
0
  6
HIDDEN
 62
     7
370
     0
100
AcDbLine
 10
59.8301940358
 20
14.25
 30
0.0
 11
59.8301940358
 21
2.75
 31
0.0
  0
LINE
  5
3A7
330
1F
100
AcDbEntity
  8
0
  6
HIDDEN
 62
     7
370
     0
100
AcDbLine
 10
54.3250421844
 20
15.9108581943
 30
0.0
 11
54.3250421844
 21
22.1522690966
 31
0.0
  0
LINE
  5
3A8
330
1F
100
AcDbEntity
  8
0
  6
HIDDEN
 62
     7
370
     0
100
AcDbLine
 10
32.3301940358
 20
2.05
 30
0.0
 11
32.3301940358
 21
14.95
 31
0.0
  0
LINE
  5
3A9
330
1F
100
AcDbEntity
  8
0
  6
HIDDEN
 62
     7
370
     0
100
AcDbLine
 10
32.3301940358
 20
14.95
 30
0.0
 11
45.5301940358
 21
14.95
 31
0.0
  0
LINE
  5
3AA
330
1F
100
AcDbEntity
  8
0
  6
HIDDEN
 62
     7
370
     0
100
AcDbLine
 10
71.0037805225
 20
15.9108581943
 30
0.0
 11
54.3250421844
 21
15.9108581943
 31
0.0
  0
LINE
  5
3AB
330
1F
100
AcDbEntity
  8
0
  6
HIDDEN
 62
     7
370
     0
100
AcDbLine
 10
45.5301940358
 20
2.05
 30
0.0
 11
32.3301940358
 21
2.05
 31
0.0
  0
LINE
  5
3AC
330
1F
100
AcDbEntity
  8
0
  6
HIDDEN
 62
     7
370
     0
100
AcDbLine
 10
33.0301940358
 20
2.75
 30
0.0
 11
33.0301940358
 21
14.25
 31
0.0
  0
LINE
  5
3AD
330
1F
100
AcDbEntity
  8
0
  6
HIDDEN
 62
     7
370
     0
100
AcDbLine
 10
33.0301940358
 20
14.25
 30
0.0
 11
44.8301940358
 21
14.25
 31
0.0
  0
LINE
  5
3AE
330
1F
100
AcDbEntity
  8
0
  6
HIDDEN
 62
     7
370
     0
100
AcDbLine
 10
44.8301940358
 20
14.25
 30
0.0
 11
44.8301940358
 21
2.75
 31
0.0
  0
LINE
  5
3AF
330
1F
100
AcDbEntity
  8
0
  6
HIDDEN
 62
     7
370
     0
100
AcDbLine
 10
78.3659394394
 20
15.9108581943
 30
0.0
 11
78.3659394394
 21
22.3068379211
 31
0.0
  0
LINE
  5
3B0
330
1F
100
AcDbEntity
  8
0
  6
HIDDEN
 62
     7
370
     0
100
AcDbLine
 10
60.5301940358
 20
2.05
 30
0.0
 11
47.3301940358
 21
2.05
 31
0.0
  0
LINE
  5
3B1
330
1F
100
AcDbEntity
  8
0
  6
HIDDEN
 62
     7
370
     0
100
AcDbLine
 10
47.3301940358
 20
2.05
 30
0.0
 11
47.3301940358
 21
14.95
 31
0.0
  0
LINE
  5
3B2
330
1F
100
AcDbEntity
  8
0
  6
HIDDEN
 62
     7
370
     0
100
AcDbLine
 10
47.3301940358
 20
14.95
 30
0.0
 11
60.5301940358
 21
14.95
 31
0.0
  0
LINE
  5
3B3
330
1F
100
AcDbEntity
  8
0
  6
HIDDEN
 62
     7
370
     0
100
AcDbLine
 10
60.5301940358
 20
14.95
 30
0.0
 11
60.5301940358
 21
2.05
 31
0.0
  0
LINE
  5
3B4
330
1F
100
AcDbEntity
  8
0
  6
HIDDEN
 62
     7
370
     0
100
AcDbLine
 10
59.8301940358
 20
2.75
 30
0.0
 11
48.0301940358
 21
2.75
 31
0.0
  0
LINE
  5
3B5
330
1F
100
AcDbEntity
  8
0
  6
HIDDEN
 62
     7
370
     0
100
AcDbLine
 10
48.0301940358
 20
2.75
 30
0.0
 11
48.0301940358
 21
14.25
 31
0.0
  0
LINE
  5
3B6
330
1F
100
AcDbEntity
  8
0
  6
HIDDEN
 62
     7
370
     0
100
AcDbLine
 10
48.0301940358
 20
14.25
 30
0.0
 11
59.8301940358
 21
14.25
 31
0.0
  0
LINE
  5
3B7
330
1F
100
AcDbEntity
  8
0
  6
HIDDEN
 62
     7
370
     0
100
AcDbLine
 10
88.8137670786
 20
16.6108581943
 30
0.0
 11
79.0659394394
 21
16.6108581943
 31
0.0
  0
LINE
  5
3B8
330
1F
100
AcDbEntity
  8
0
  6
HIDDEN
 62
     7
370
     0
100
AcDbLine
 10
88.8137670786
 20
21.6068379211
 30
0.0
 11
88.8137670786
 21
16.6108581943
 31
0.0
  0
LINE
  5
3B9
330
1F
100
AcDbEntity
  8
0
  6
HIDDEN
 62
     7
370
     0
100
AcDbLine
 10
75.5301940358
 20
2.05
 30
0.0
 11
62.3301940358
 21
2.05
 31
0.0
  0
LINE
  5
3BA
330
1F
100
AcDbEntity
  8
0
  6
HIDDEN
 62
     7
370
     0
100
AcDbLine
 10
62.3301940358
 20
2.05
 30
0.0
 11
62.3301940358
 21
14.95
 31
0.0
  0
LINE
  5
3BB
330
1F
100
AcDbEntity
  8
0
  6
HIDDEN
 62
     7
370
     0
100
AcDbLine
 10
132.7895854918
 20
39.0
 30
0.0
 11
132.7895854918
 21
27.5
 31
0.0
  0
LINE
  5
3BC
330
1F
100
AcDbEntity
  8
0
  6
HIDDEN
 62
     7
370
     0
100
AcDbLine
 10
3.0
 20
41.0
 30
0.0
 11
3.0
 21
0.0
 31
0.0
  0
LINE
  5
3BD
330
1F
100
AcDbEntity
  8
0
  6
HIDDEN
 62
     7
370
     0
100
AcDbLine
 10
35.8439834531
 20
22.1088290572
 30
0.0
 11
44.1232658775
 21
22.1088290572
 31
0.0
  0
LINE
  5
3BE
330
1F
100
AcDbEntity
  8
0
  6
HIDDEN
 62
     7
370
     0
100
AcDbLine
 10
133.4895854918
 20
26.8
 30
0.0
 11
120.2895854918
 21
26.8
 31
0.0
  0
LINE
  5
3BF
330
1F
100
AcDbEntity
  8
0
  6
HIDDEN
 62
     7
370
     0
100
AcDbLine
 10
54.3250421844
 20
22.1522690966
 30
0.0
 11
71.0037805225
 21
22.1522690966
 31
0.0
  0
LINE
  5
3C0
330
1F
100
AcDbEntity
  8
0
  6
HIDDEN
 62
     7
370
     0
100
AcDbLine
 10
120.9895854918
 20
39.0
 30
0.0
 11
132.7895854918
 21
39.0
 31
0.0
  0
LINE
  5
3C1
330
1F
100
AcDbEntity
  8
0
  6
HIDDEN
 62
     7
370
     0
100
AcDbLine
 10
79.0659394394
 20
16.6108581943
 30
0.0
 11
79.0659394394
 21
21.6068379211
 31
0.0
  0
LINE
  5
3C2
330
1F
100
AcDbEntity
  8
0
  6
HIDDEN
 62
     7
370
     0
100
AcDbLine
 10
36.5439834531
 20
21.4088290572
 30
0.0
 11
43.4232658775
 21
21.4088290572
 31
0.0
  0
LINE
  5
3C3
330
1F
100
AcDbEntity
  8
0
  6
HIDDEN
 62
     7
370
     0
100
AcDbLine
 10
43.4232658775
 20
21.4088290572
 30
0.0
 11
43.4232658775
 21
16.6108581943
 31
0.0
  0
LINE
  5
3C4
330
1F
100
AcDbEntity
  8
0
  6
HIDDEN
 62
     7
370
     0
100
AcDbLine
 10
43.4232658775
 20
16.6108581943
 30
0.0
 11
36.5439834531
 21
16.6108581943
 31
0.0
  0
LINE
  5
3C5
330
1F
100
AcDbEntity
  8
0
  6
HIDDEN
 62
     7
370
     0
100
AcDbLine
 10
36.5439834531
 20
16.6108581943
 30
0.0
 11
36.5439834531
 21
21.4088290572
 31
0.0
  0
LINE
  5
3C6
330
1F
100
AcDbEntity
  8
0
  6
HIDDEN
 62
     7
370
     0
100
AcDbLine
 10
132.7895854918
 20
27.5
 30
0.0
 11
120.9895854918
 21
27.5
 31
0.0
  0
LINE
  5
3C7
330
1F
100
AcDbEntity
  8
0
  6
HIDDEN
 62
     7
370
     0
100
AcDbLine
 10
120.9895854918
 20
27.5
 30
0.0
 11
120.9895854918
 21
39.0
 31
0.0
  0
LINE
  5
3C8
330
1F
100
AcDbEntity
  8
0
  6
HIDDEN
 62
     7
370
     0
100
AcDbLine
 10
89.5137670786
 20
15.9108581943
 30
0.0
 11
78.3659394394
 21
15.9108581943
 31
0.0
  0
LINE
  5
3C9
330
1F
100
AcDbEntity
  8
0
  6
HIDDEN
 62
     7
370
     0
100
AcDbLine
 10
78.3659394394
 20
22.3068379211
 30
0.0
 11
89.5137670786
 21
22.3068379211
 31
0.0
  0
LINE
  5
3CA
330
1F
100
AcDbEntity
  8
0
  6
HIDDEN
 62
     7
370
     0
100
AcDbLine
 10
89.5137670786
 20
22.3068379211
 30
0.0
 11
89.5137670786
 21
15.9108581943
 31
0.0
  0
LINE
  5
3CB
330
1F
100
AcDbEntity
  8
0
  6
HIDDEN
 62
     7
370
     0
100
AcDbLine
 10
79.0659394394
 20
21.6068379211
 30
0.0
 11
88.8137670786
 21
21.6068379211
 31
0.0
  0
LINE
  5
3CC
330
1F
100
AcDbEntity
  8
0
  6
HIDDEN
 62
     7
370
     0
100
AcDbLine
 10
157.0
 20
10.0
 30
0.0
 11
159.5
 21
10.0
 31
0.0
  0
LINE
  5
3CD
330
1F
100
AcDbEntity
  8
0
  6
HIDDEN
 62
     7
370
     0
100
AcDbLine
 10
157.0
 20
11.0
 30
0.0
 11
159.5
 21
11.0
 31
0.0
  0
LINE
  5
3CE
330
1F
100
AcDbEntity
  8
0
  6
HIDDEN
 62
     7
370
     0
100
AcDbLine
 10
0.5
 20
10.0
 30
0.0
 11
3.0
 21
10.0
 31
0.0
  0
LINE
  5
3CF
330
1F
100
AcDbEntity
  8
0
  6
HIDDEN
 62
     7
370
     0
100
AcDbLine
 10
0.5
 20
11.0
 30
0.0
 11
3.0
 21
11.0
 31
0.0
  0
LINE
  5
3D0
330
1F
100
AcDbEntity
  8
0
  6
HIDDEN
 62
     7
370
     0
100
AcDbLine
 10
157.0
 20
28.0
 30
0.0
 11
159.5
 21
28.0
 31
0.0
  0
LINE
  5
3D1
330
1F
100
AcDbEntity
  8
0
  6
HIDDEN
 62
     7
370
     0
100
AcDbLine
 10
157.0
 20
29.0
 30
0.0
 11
159.5
 21
29.0
 31
0.0
  0
LINE
  5
3D2
330
1F
100
AcDbEntity
  8
0
  6
HIDDEN
 62
     7
370
     0
100
AcDbLine
 10
0.5
 20
29.0
 30
0.0
 11
3.0
 21
29.0
 31
0.0
  0
LINE
  5
3D3
330
1F
100
AcDbEntity
  8
0
  6
HIDDEN
 62
     7
370
     0
100
AcDbLine
 10
0.5
 20
28.0
 30
0.0
 11
3.0
 21
28.0
 31
0.0
  0
LINE
  5
3D4
330
1F
100
AcDbEntity
  8
0
  6
HIDDEN
 62
     7
370
     0
100
AcDbLine
 10
0.5
 20
13.0
 30
0.0
 11
3.0
 21
13.0
 31
0.0
  0
LINE
  5
3D5
330
1F
100
AcDbEntity
  8
0
  6
HIDDEN
 62
     7
370
     0
100
AcDbLine
 10
0.5
 20
12.0
 30
0.0
 11
3.0
 21
12.0
 31
0.0
  0
LINE
  5
3D6
330
1F
100
AcDbEntity
  8
0
  6
HIDDEN
 62
     7
370
     0
100
AcDbLine
 10
157.0
 20
31.0
 30
0.0
 11
159.5
 21
31.0
 31
0.0
  0
LINE
  5
3D7
330
1F
100
AcDbEntity
  8
0
  6
HIDDEN
 62
     7
370
     0
100
AcDbLine
 10
157.0
 20
30.0
 30
0.0
 11
159.5
 21
30.0
 31
0.0
  0
LINE
  5
3D8
330
1F
100
AcDbEntity
  8
0
  6
HIDDEN
 62
     7
370
     0
100
AcDbLine
 10
157.0
 20
13.0
 30
0.0
 11
159.5
 21
13.0
 31
0.0
  0
LINE
  5
3D9
330
1F
100
AcDbEntity
  8
0
  6
HIDDEN
 62
     7
370
     0
100
AcDbLine
 10
157.0
 20
12.0
 30
0.0
 11
159.5
 21
12.0
 31
0.0
  0
LINE
  5
3DA
330
1F
100
AcDbEntity
  8
0
  6
HIDDEN
 62
     7
370
     0
100
AcDbLine
 10
0.5
 20
31.0
 30
0.0
 11
3.0
 21
31.0
 31
0.0
  0
LINE
  5
3DB
330
1F
100
AcDbEntity
  8
0
  6
HIDDEN
 62
     7
370
     0
100
AcDbLine
 10
0.5
 20
30.0
 30
0.0
 11
3.0
 21
30.0
 31
0.0
  0
LINE
  5
3DC
330
1F
100
AcDbEntity
  8
0
  6
HIDDEN
 62
     7
370
     0
100
AcDbLine
 10
120.2895854918
 20
39.7
 30
0.0
 11
133.4895854918
 21
39.7
 31
0.0
  0
LINE
  5
3DD
330
1F
100
AcDbEntity
  8
0
  6
HIDDEN
 62
     7
370
     0
100
AcDbLine
 10
159.5
 20
21.75
 30
0.0
 11
157.0
 21
21.75
 31
0.0
  0
LINE
  5
3DE
330
1F
100
AcDbEntity
  8
0
  6
HIDDEN
 62
     7
370
     0
100
AcDbLine
 10
157.0
 20
19.25
 30
0.0
 11
159.5
 21
19.25
 31
0.0
  0
LINE
  5
3DF
330
1F
100
AcDbEntity
  8
0
  6
HIDDEN
 62
     7
370
     0
100
AcDbLine
 10
3.0
 20
21.75
 30
0.0
 11
0.5
 21
21.75
 31
0.0
  0
LINE
  5
3E0
330
1F
100
AcDbEntity
  8
0
  6
HIDDEN
 62
     7
370
     0
100
AcDbLine
 10
0.5
 20
19.25
 30
0.0
 11
3.0
 21
19.25
 31
0.0
  0
LINE
  5
3E1
330
1F
100
AcDbEntity
  8
0
  6
HIDDEN
 62
     7
370
     0
100
AcDbLine
 10
159.5
 20
21.875
 30
0.0
 11
157.0
 21
21.875
 31
0.0
  0
LINE
  5
3E2
330
1F
100
AcDbEntity
  8
0
  6
HIDDEN
 62
     7
370
     0
100
AcDbLine
 10
157.0
 20
19.125
 30
0.0
 11
159.5
 21
19.125
 31
0.0
  0
LINE
  5
3E3
330
1F
100
AcDbEntity
  8
0
  6
HIDDEN
 62
     7
370
     0
100
AcDbLine
 10
3.0
 20
21.875
 30
0.0
 11
0.5
 21
21.875
 31
0.0
  0
LINE
  5
3E4
330
1F
100
AcDbEntity
  8
0
  6
HIDDEN
 62
     7
370
     0
100
AcDbLine
 10
0.5
 20
19.125
 30
0.0
 11
3.0
 21
19.125
 31
0.0
  0
ARC
  5
3E5
330
1F
100
AcDbEntity
  8
0
  6
Continuous
 62
     7
370
    15
100
AcDbCircle
 10
64.4301940358
 20
4.25
 30
0.0
 40
1.000000000000014
100
AcDbArc
 50
180.0
 51
270.0
  0
ARC
  5
3E6
330
1F
100
AcDbEntity
  8
0
  6
Continuous
 62
     7
370
    15
100
AcDbCircle
 10
64.4301940358
 20
4.25
 30
0.0
 40
1.299999999999997
100
AcDbArc
 50
180.0
 51
270.0
  0
ARC
  5
3E7
330
1F
100
AcDbEntity
  8
0
  6
Continuous
 62
     7
370
    15
100
AcDbCircle
 10
103.4301940358
 20
9.25
 30
0.0
 40
1.299999999999986
100
AcDbArc
 50
0.0
 51
90.0
  0
ARC
  5
3E8
330
1F
100
AcDbEntity
  8
0
  6
Continuous
 62
     7
370
    15
100
AcDbCircle
 10
103.4301940358
 20
9.25
 30
0.0
 40
1.000000000000014
100
AcDbArc
 50
0.0
 51
90.0
  0
ARC
  5
3E9
330
1F
100
AcDbEntity
  8
0
  6
Continuous
 62
     7
370
    15
100
AcDbCircle
 10
121.4540943701
 20
16.25
 30
0.0
 40
1.000000000000014
100
AcDbArc
 50
270.0
 51
0.0
  0
ARC
  5
3EA
330
1F
100
AcDbEntity
  8
0
  6
Continuous
 62
     7
370
    15
100
AcDbCircle
 10
121.4540943701
 20
16.25
 30
0.0
 40
1.300000000000054
100
AcDbArc
 50
270.0
 51
360.0
  0
ARC
  5
3EB
330
1F
100
AcDbEntity
  8
0
  6
Continuous
 62
     7
370
    15
100
AcDbCircle
 10
121.4540943701
 20
21.25
 30
0.0
 40
1.299999999999983
100
AcDbArc
 50
0.0
 51
90.0
  0
ARC
  5
3EC
330
1F
100
AcDbEntity
  8
0
  6
Continuous
 62
     7
370
    15
100
AcDbCircle
 10
121.4540943701
 20
21.25
 30
0.0
 40
1.000000000000043
100
AcDbArc
 50
0.0
 51
90.0
  0
ARC
  5
3ED
330
1F
100
AcDbEntity
  8
0
  6
Continuous
 62
     7
370
    15
100
AcDbCircle
 10
112.4540943701
 20
4.25
 30
0.0
 40
1.0
100
AcDbArc
 50
180.0
 51
270.0
  0
ARC
  5
3EE
330
1F
100
AcDbEntity
  8
0
  6
Continuous
 62
     7
370
    15
100
AcDbCircle
 10
112.4540943701
 20
4.25
 30
0.0
 40
1.300000000000002
100
AcDbArc
 50
180.0
 51
270.0
  0
ARC
  5
3EF
330
1F
100
AcDbEntity
  8
0
  6
Continuous
 62
     7
370
    15
100
AcDbCircle
 10
112.4540943701
 20
9.25
 30
0.0
 40
1.299999999999999
100
AcDbArc
 50
90.0
 51
180.0
  0
ARC
  5
3F0
330
1F
100
AcDbEntity
  8
0
  6
Continuous
 62
     7
370
    15
100
AcDbCircle
 10
112.4540943701
 20
9.25
 30
0.0
 40
1.000000000000016
100
AcDbArc
 50
90.0
 51
180.0
  0
ARC
  5
3F1
330
1F
100
AcDbEntity
  8
0
  6
Continuous
 62
     7
370
    15
100
AcDbCircle
 10
145.25
 20
37.5
 30
0.0
 40
1.29999999999999
100
AcDbArc
 50
90.0
 51
180.0
  0
ARC
  5
3F2
330
1F
100
AcDbEntity
  8
0
  6
Continuous
 62
     7
370
    15
100
AcDbCircle
 10
145.25
 20
32.5
 30
0.0
 40
1.299999999999983
100
AcDbArc
 50
180.0
 51
270.0
  0
ARC
  5
3F3
330
1F
100
AcDbEntity
  8
0
  6
Continuous
 62
     7
370
    15
100
AcDbCircle
 10
154.25
 20
32.5
 30
0.0
 40
1.299999999999983
100
AcDbArc
 50
270.0
 51
0.0
  0
ARC
  5
3F4
330
1F
100
AcDbEntity
  8
0
  6
Continuous
 62
     7
370
    15
100
AcDbCircle
 10
154.25
 20
37.5
 30
0.0
 40
1.29999999999999
100
AcDbArc
 50
0.0
 51
90.0
  0
ARC
  5
3F5
330
1F
100
AcDbEntity
  8
0
  6
Continuous
 62
     7
370
    15
100
AcDbCircle
 10
122.3895854918
 20
37.5
 30
0.0
 40
1.300000000000004
100
AcDbArc
 50
90.0
 51
180.0
  0
ARC
  5
3F6
330
1F
100
AcDbEntity
  8
0
  6
Continuous
 62
     7
370
    15
100
AcDbCircle
 10
122.3895854918
 20
32.5
 30
0.0
 40
1.300000000000011
100
AcDbArc
 50
180.0
 51
270.0
  0
ARC
  5
3F7
330
1F
100
AcDbEntity
  8
0
  6
Continuous
 62
     7
370
    15
100
AcDbCircle
 10
131.3895854918
 20
32.5
 30
0.0
 40
1.299999999999994
100
AcDbArc
 50
270.0
 51
0.0
  0
ARC
  5
3F8
330
1F
100
AcDbEntity
  8
0
  6
Continuous
 62
     7
370
    15
100
AcDbCircle
 10
131.3895854918
 20
37.5
 30
0.0
 40
1.300000000000026
100
AcDbArc
 50
0.0
 51
90.0
  0
ARC
  5
3F9
330
1F
100
AcDbEntity
  8
0
  6
Continuous
 62
     7
370
    15
100
AcDbCircle
 10
112.4540943701
 20
21.25
 30
0.0
 40
1.300000000000001
100
AcDbArc
 50
90.0
 51
180.0
  0
ARC
  5
3FA
330
1F
100
AcDbEntity
  8
0
  6
Continuous
 62
     7
370
    15
100
AcDbCircle
 10
112.4540943701
 20
16.25
 30
0.0
 40
1.300000000000013
100
AcDbArc
 50
180.0
 51
270.0
  0
ARC
  5
3FB
330
1F
100
AcDbEntity
  8
0
  6
Continuous
 62
     7
370
    15
100
AcDbCircle
 10
121.4540943701
 20
4.25
 30
0.0
 40
1.300000000000054
100
AcDbArc
 50
270.0
 51
0.0
  0
ARC
  5
3FC
330
1F
100
AcDbEntity
  8
0
  6
Continuous
 62
     7
370
    15
100
AcDbCircle
 10
121.4540943701
 20
9.25
 30
0.0
 40
1.299999999999983
100
AcDbArc
 50
0.0
 51
90.0
  0
ARC
  5
3FD
330
1F
100
AcDbEntity
  8
0
  6
Continuous
 62
     7
370
    15
100
AcDbCircle
 10
94.4301940358
 20
9.25
 30
0.0
 40
1.300000000000011
100
AcDbArc
 50
90.0
 51
180.0
  0
ARC
  5
3FE
330
1F
100
AcDbEntity
  8
0
  6
Continuous
 62
     7
370
    15
100
AcDbCircle
 10
94.4301940358
 20
4.25
 30
0.0
 40
1.299999999999997
100
AcDbArc
 50
180.0
 51
270.0
  0
ARC
  5
3FF
330
1F
100
AcDbEntity
  8
0
  6
Continuous
 62
     7
370
    15
100
AcDbCircle
 10
103.4301940358
 20
4.25
 30
0.0
 40
1.299999999999994
100
AcDbArc
 50
270.0
 51
0.0
  0
ARC
  5
400
330
1F
100
AcDbEntity
  8
0
  6
Continuous
 62
     7
370
    15
100
AcDbCircle
 10
79.4301940358
 20
9.25
 30
0.0
 40
1.300000000000011
100
AcDbArc
 50
90.0
 51
180.0
  0
ARC
  5
401
330
1F
100
AcDbEntity
  8
0
  6
Continuous
 62
     7
370
    15
100
AcDbCircle
 10
79.4301940358
 20
4.25
 30
0.0
 40
1.29999999999996
100
AcDbArc
 50
180.0
 51
270.0
  0
ARC
  5
402
330
1F
100
AcDbEntity
  8
0
  6
Continuous
 62
     7
370
    15
100
AcDbCircle
 10
88.4301940358
 20
4.25
 30
0.0
 40
1.300000000000026
100
AcDbArc
 50
270.0
 51
0.0
  0
ARC
  5
403
330
1F
100
AcDbEntity
  8
0
  6
Continuous
 62
     7
370
    15
100
AcDbCircle
 10
88.4301940358
 20
9.25
 30
0.0
 40
1.30000000000004
100
AcDbArc
 50
0.0
 51
90.0
  0
ARC
  5
404
330
1F
100
AcDbEntity
  8
0
  6
Continuous
 62
     7
370
    15
100
AcDbCircle
 10
64.4301940358
 20
9.25
 30
0.0
 40
1.300000000000011
100
AcDbArc
 50
90.0
 51
180.0
  0
ARC
  5
405
330
1F
100
AcDbEntity
  8
0
  6
Continuous
 62
     7
370
    15
100
AcDbCircle
 10
73.4301940358
 20
4.25
 30
0.0
 40
1.300000000000026
100
AcDbArc
 50
270.0
 51
0.0
  0
ARC
  5
406
330
1F
100
AcDbEntity
  8
0
  6
Continuous
 62
     7
370
    15
100
AcDbCircle
 10
73.4301940358
 20
9.25
 30
0.0
 40
1.300000000000011
100
AcDbArc
 50
0.0
 51
90.0
  0
ARC
  5
407
330
1F
100
AcDbEntity
  8
0
  6
Continuous
 62
     7
370
    15
100
AcDbCircle
 10
49.4301940358
 20
9.25
 30
0.0
 40
1.30000000000001
100
AcDbArc
 50
90.0
 51
180.0
  0
ARC
  5
408
330
1F
100
AcDbEntity
  8
0
  6
Continuous
 62
     7
370
    15
100
AcDbCircle
 10
49.4301940358
 20
4.25
 30
0.0
 40
1.300000000000004
100
AcDbArc
 50
180.0
 51
270.0
  0
ARC
  5
409
330
1F
100
AcDbEntity
  8
0
  6
Continuous
 62
     7
370
    15
100
AcDbCircle
 10
58.4301940358
 20
4.25
 30
0.0
 40
1.299999999999998
100
AcDbArc
 50
270.0
 51
0.0
  0
ARC
  5
40A
330
1F
100
AcDbEntity
  8
0
  6
Continuous
 62
     7
370
    15
100
AcDbCircle
 10
58.4301940358
 20
9.25
 30
0.0
 40
1.299999999999994
100
AcDbArc
 50
0.0
 51
90.0
  0
ARC
  5
40B
330
1F
100
AcDbEntity
  8
0
  6
Continuous
 62
     7
370
    15
100
AcDbCircle
 10
34.4301940358
 20
9.25
 30
0.0
 40
1.300000000000004
100
AcDbArc
 50
90.0
 51
180.0
  0
ARC
  5
40C
330
1F
100
AcDbEntity
  8
0
  6
Continuous
 62
     7
370
    15
100
AcDbCircle
 10
34.4301940358
 20
4.25
 30
0.0
 40
1.299999999999997
100
AcDbArc
 50
180.0
 51
270.0
  0
ARC
  5
40D
330
1F
100
AcDbEntity
  8
0
  6
Continuous
 62
     7
370
    15
100
AcDbCircle
 10
43.4301940358
 20
4.25
 30
0.0
 40
1.299999999999999
100
AcDbArc
 50
270.0
 51
0.0
  0
ARC
  5
40E
330
1F
100
AcDbEntity
  8
0
  6
Continuous
 62
     7
370
    15
100
AcDbCircle
 10
43.4301940358
 20
9.25
 30
0.0
 40
1.300000000000004
100
AcDbArc
 50
0.0
 51
90.0
  0
ARC
  5
40F
330
1F
100
AcDbEntity
  8
0
  6
Continuous
 62
     7
370
    15
100
AcDbCircle
 10
7.5
 20
9.25
 30
0.0
 40
1.299999999999993
100
AcDbArc
 50
90.0
 51
180.0
  0
ARC
  5
410
330
1F
100
AcDbEntity
  8
0
  6
Continuous
 62
     7
370
    15
100
AcDbCircle
 10
7.5
 20
4.25
 30
0.0
 40
1.299999999999996
100
AcDbArc
 50
180.0
 51
270.0
  0
ARC
  5
411
330
1F
100
AcDbEntity
  8
0
  6
Continuous
 62
     7
370
    15
100
AcDbCircle
 10
16.5
 20
4.25
 30
0.0
 40
1.300000000000005
100
AcDbArc
 50
270.0
 51
0.0
  0
ARC
  5
412
330
1F
100
AcDbEntity
  8
0
  6
Continuous
 62
     7
370
    15
100
AcDbCircle
 10
16.5
 20
9.25
 30
0.0
 40
1.300000000000002
100
AcDbArc
 50
0.0
 51
90.0
  0
ARC
  5
413
330
1F
100
AcDbEntity
  8
0
  6
Continuous
 62
     7
370
    15
100
AcDbCircle
 10
58.4301940358
 20
9.25
 30
0.0
 40
1.000000000000007
100
AcDbArc
 50
0.0
 51
90.0
  0
ARC
  5
414
330
1F
100
AcDbEntity
  8
0
  6
Continuous
 62
     7
370
    15
100
AcDbCircle
 10
94.4301940358
 20
4.25
 30
0.0
 40
1.0
100
AcDbArc
 50
180.0
 51
270.0
  0
ARC
  5
415
330
1F
100
AcDbEntity
  8
0
  6
Continuous
 62
     7
370
    15
100
AcDbCircle
 10
103.4301940358
 20
4.25
 30
0.0
 40
1.000000000000019
100
AcDbArc
 50
270.0
 51
0.0
  0
ARC
  5
416
330
1F
100
AcDbEntity
  8
0
  6
Continuous
 62
     7
370
    15
100
AcDbCircle
 10
121.4540943701
 20
4.25
 30
0.0
 40
1.0
100
AcDbArc
 50
270.0
 51
0.0
  0
ARC
  5
417
330
1F
100
AcDbEntity
  8
0
  6
Continuous
 62
     7
370
    15
100
AcDbCircle
 10
112.4540943701
 20
16.25
 30
0.0
 40
1.0
100
AcDbArc
 50
180.0
 51
270.0
  0
ARC
  5
418
330
1F
100
AcDbEntity
  8
0
  6
Continuous
 62
     7
370
    15
100
AcDbCircle
 10
112.4540943701
 20
21.25
 30
0.0
 40
1.0
100
AcDbArc
 50
90.0
 51
180.0
  0
ARC
  5
419
330
1F
100
AcDbEntity
  8
0
  6
Continuous
 62
     7
370
    15
100
AcDbCircle
 10
121.4540943701
 20
9.25
 30
0.0
 40
1.000000000000016
100
AcDbArc
 50
0.0
 51
90.0
  0
ARC
  5
41A
330
1F
100
AcDbEntity
  8
0
  6
Continuous
 62
     7
370
    15
100
AcDbCircle
 10
145.25
 20
37.5
 30
0.0
 40
1.0
100
AcDbArc
 50
90.0
 51
180.0
  0
ARC
  5
41B
330
1F
100
AcDbEntity
  8
0
  6
Continuous
 62
     7
370
    15
100
AcDbCircle
 10
79.4301940358
 20
4.25
 30
0.0
 40
1.000000000000014
100
AcDbArc
 50
180.0
 51
270.0
  0
ARC
  5
41C
330
1F
100
AcDbEntity
  8
0
  6
Continuous
 62
     7
370
    15
100
AcDbCircle
 10
145.25
 20
32.5
 30
0.0
 40
1.0
100
AcDbArc
 50
180.0
 51
270.0
  0
ARC
  5
41D
330
1F
100
AcDbEntity
  8
0
  6
Continuous
 62
     7
370
    15
100
AcDbCircle
 10
43.4301940358
 20
4.25
 30
0.0
 40
1.000000000000014
100
AcDbArc
 50
270.0
 51
0.0
  0
ARC
  5
41E
330
1F
100
AcDbEntity
  8
0
  6
Continuous
 62
     7
370
    15
100
AcDbCircle
 10
154.25
 20
32.5
 30
0.0
 40
1.000000000000014
100
AcDbArc
 50
270.0
 51
0.0
  0
ARC
  5
41F
330
1F
100
AcDbEntity
  8
0
  6
Continuous
 62
     7
370
    15
100
AcDbCircle
 10
154.25
 20
37.5
 30
0.0
 40
1.000000000000028
100
AcDbArc
 50
0.0
 51
90.0
  0
ARC
  5
420
330
1F
100
AcDbEntity
  8
0
  6
Continuous
 62
     7
370
    15
100
AcDbCircle
 10
122.3895854918
 20
32.5
 30
0.0
 40
1.000000000000014
100
AcDbArc
 50
180.0
 51
270.0
  0
ARC
  5
421
330
1F
100
AcDbEntity
  8
0
  6
Continuous
 62
     7
370
    15
100
AcDbCircle
 10
122.3895854918
 20
37.5
 30
0.0
 40
1.000000000000014
100
AcDbArc
 50
90.0
 51
180.0
  0
ARC
  5
422
330
1F
100
AcDbEntity
  8
0
  6
Continuous
 62
     7
370
    15
100
AcDbCircle
 10
131.3895854918
 20
32.5
 30
0.0
 40
1.000000000000007
100
AcDbArc
 50
270.0
 51
0.0
  0
ARC
  5
423
330
1F
100
AcDbEntity
  8
0
  6
Continuous
 62
     7
370
    15
100
AcDbCircle
 10
131.3895854918
 20
37.5
 30
0.0
 40
0.9999999999999716
100
AcDbArc
 50
360.0
 51
90.0
  0
ARC
  5
424
330
1F
100
AcDbEntity
  8
0
  6
Continuous
 62
     7
370
    15
100
AcDbCircle
 10
73.4301940358
 20
4.25
 30
0.0
 40
1.000000000000014
100
AcDbArc
 50
270.0
 51
0.0
  0
ARC
  5
425
330
1F
100
AcDbEntity
  8
0
  6
Continuous
 62
     7
370
    15
100
AcDbCircle
 10
73.4301940358
 20
9.25
 30
0.0
 40
1.000000000000014
100
AcDbArc
 50
0.0
 51
90.0
  0
ARC
  5
426
330
1F
100
AcDbEntity
  8
0
  6
Continuous
 62
     7
370
    15
100
AcDbCircle
 10
49.4301940358
 20
4.25
 30
0.0
 40
1.0
100
AcDbArc
 50
180.0
 51
270.0
  0
ARC
  5
427
330
1F
100
AcDbEntity
  8
0
  6
Continuous
 62
     7
370
    15
100
AcDbCircle
 10
49.4301940358
 20
9.25
 30
0.0
 40
0.9999999999999929
100
AcDbArc
 50
90.0
 51
180.0
  0
ARC
  5
428
330
1F
100
AcDbEntity
  8
0
  6
Continuous
 62
     7
370
    15
100
AcDbCircle
 10
88.4301940358
 20
9.25
 30
0.0
 40
1.000000000000028
100
AcDbArc
 50
0.0
 51
90.0
  0
ARC
  5
429
330
1F
100
AcDbEntity
  8
0
  6
Continuous
 62
     7
370
    15
100
AcDbCircle
 10
58.4301940358
 20
4.25
 30
0.0
 40
1.000000000000028
100
AcDbArc
 50
270.0
 51
0.0
  0
ARC
  5
42A
330
1F
100
AcDbEntity
  8
0
  6
Continuous
 62
     7
370
    15
100
AcDbCircle
 10
34.4301940358
 20
4.25
 30
0.0
 40
1.000000000000007
100
AcDbArc
 50
180.0
 51
270.0
  0
ARC
  5
42B
330
1F
100
AcDbEntity
  8
0
  6
Continuous
 62
     7
370
    15
100
AcDbCircle
 10
94.4301940358
 20
9.25
 30
0.0
 40
1.0
100
AcDbArc
 50
90.0
 51
180.0
  0
ARC
  5
42C
330
1F
100
AcDbEntity
  8
0
  6
Continuous
 62
     7
370
    15
100
AcDbCircle
 10
43.4301940358
 20
9.25
 30
0.0
 40
1.0
100
AcDbArc
 50
0.0
 51
90.0
  0
ARC
  5
42D
330
1F
100
AcDbEntity
  8
0
  6
Continuous
 62
     7
370
    15
100
AcDbCircle
 10
7.5
 20
4.25
 30
0.0
 40
0.9999999999999933
100
AcDbArc
 50
180.0
 51
270.0
  0
ARC
  5
42E
330
1F
100
AcDbEntity
  8
0
  6
Continuous
 62
     7
370
    15
100
AcDbCircle
 10
79.4301940358
 20
9.25
 30
0.0
 40
1.0
100
AcDbArc
 50
90.0
 51
180.0
  0
ARC
  5
42F
330
1F
100
AcDbEntity
  8
0
  6
Continuous
 62
     7
370
    15
100
AcDbCircle
 10
88.4301940358
 20
4.25
 30
0.0
 40
1.000000000000028
100
AcDbArc
 50
270.0
 51
0.0
  0
ARC
  5
430
330
1F
100
AcDbEntity
  8
0
  6
Continuous
 62
     7
370
    15
100
AcDbCircle
 10
16.5
 20
9.25
 30
0.0
 40
0.9999999999999822
100
AcDbArc
 50
0.0
 51
90.0
  0
ARC
  5
431
330
1F
100
AcDbEntity
  8
0
  6
Continuous
 62
     7
370
    15
100
AcDbCircle
 10
64.4301940358
 20
9.25
 30
0.0
 40
1.0
100
AcDbArc
 50
90.0
 51
180.0
  0
ARC
  5
432
330
1F
100
AcDbEntity
  8
0
  6
Continuous
 62
     7
370
    15
100
AcDbCircle
 10
16.5
 20
4.25
 30
0.0
 40
1.000000000000008
100
AcDbArc
 50
270.0
 51
0.0
  0
ARC
  5
433
330
1F
100
AcDbEntity
  8
0
  6
Continuous
 62
     7
370
    15
100
AcDbCircle
 10
7.5
 20
9.25
 30
0.0
 40
0.9999999999999991
100
AcDbArc
 50
90.0
 51
180.0
  0
ARC
  5
434
330
1F
100
AcDbEntity
  8
0
  6
Continuous
 62
     7
370
    15
100
AcDbCircle
 10
34.4301940358
 20
9.25
 30
0.0
 40
1.000000000000002
100
AcDbArc
 50
90.0
 51
180.0
  0
ARC
  5
435
330
1F
100
AcDbEntity
  8
0
  6
HIDDEN
 62
     7
370
     0
100
AcDbCircle
 10
73.2995868209
 20
18.6359201548
 30
0.0
 40
2.500000000000032
100
AcDbArc
 50
203.3179352063
 51
156.6820647937
  0
ARC
  5
436
330
1F
100
AcDbEntity
  8
0
  6
HIDDEN
 62
     7
370
     0
100
AcDbCircle
 10
45.9287535132
 20
18.6359201548
 30
0.0
 40
2.499999999999993
100
AcDbArc
 50
223.7639931839
 51
136.2360068161
  0
ENDSEC
  0
SECTION
  2
OBJECTS
  0
DICTIONARY
  5
C
330
0
100
AcDbDictionary
281
     1
  3
ACAD_GROUP
350
D
  3
ACAD_LAYOUT
350
1A
  3
ACAD_MLINESTYLE
350
17
  3
ACAD_PLOTSETTINGS
350
19
  3
ACAD_PLOTSTYLENAME
350
E
  3
ACAD_SCALELIST
350
47
  0
DICTIONARY
  5
D
102
{ACAD_REACTORS
330
C
102
}
330
C
100
AcDbDictionary
281
     1
  0
DICTIONARY
  5
1A
102
{ACAD_REACTORS
330
C
102
}
330
C
100
AcDbDictionary
281
     1
  3
Layout1
350
1E
  3
Layout2
350
26
  3
Model
350
22
  0
DICTIONARY
  5
17
102
{ACAD_REACTORS
330
C
102
}
330
C
100
AcDbDictionary
281
     1
  3
Standard
350
18
  0
DICTIONARY
  5
19
102
{ACAD_REACTORS
330
C
102
}
330
C
100
AcDbDictionary
281
     1
  0
ACDBDICTIONARYWDFLT
  5
E
102
{ACAD_REACTORS
330
C
102
}
330
C
100
AcDbDictionary
281
     1
  3
Normal
350
F
100
AcDbDictionaryWithDefault
340
F
  0
DICTIONARY
  5
47
102
{ACAD_REACTORS
330
C
102
}
330
C
100
AcDbDictionary
281
     1
  3
A0
350
48
  3
A1
350
49
  3
A2
350
4A
  3
A3
350
4B
  3
A4
350
4C
  3
A5
350
4D
  3
A6
350
4E
  3
A7
350
4F
  3
A8
350
50
  3
A9
350
51
  3
B0
350
52
  3
B1
350
53
  3
B2
350
54
  3
B3
350
55
  3
B4
350
56
  3
B5
350
57
  3
B6
350
58
  3
B7
350
59
  3
B8
350
5A
  3
B9
350
5B
  3
C0
350
5C
  3
C1
350
5D
  3
C2
350
5E
  3
C3
350
5F
  3
C4
350
60
  3
C5
350
61
  3
C6
350
62
  3
C7
350
63
  3
C8
350
64
  3
C9
350
65
  3
D0
350
66
  3
D1
350
67
  3
D2
350
68
  0
LAYOUT
  5
1E
102
{ACAD_REACTORS
330
1A
102
}
330
1A
100
AcDbPlotSettings
  1

  2
none_device
  4

  6

 40
0.0
 41
0.0
 42
0.0
 43
0.0
 44
0.0
 45
0.0
 46
0.0
 47
0.0
 48
0.0
 49
0.0
140
0.0
141
0.0
142
1.0
143
1.0
 70
   688
 72
     1
 73
     0
 74
     5
  7

 75
    16
147
1.0
148
0.0
149
0.0
100
AcDbLayout
  1
Layout1
 70
     1
 71
     1
 10
0.0
 20
0.0
 11
420.0
 21
297.0
 12
0.0
 22
0.0
 32
0.0
 14
1.0000000000E+20
 24
1.0000000000E+20
 34
1.0000000000E+20
 15
-1.0000000000E+20
 25
-1.0000000000E+20
 35
-1.0000000000E+20
146
0.0
 13
0.0
 23
0.0
 33
0.0
 16
1.0
 26
0.0
 36
0.0
 17
0.0
 27
1.0
 37
0.0
 76
     0
330
1B
  0
LAYOUT
  5
26
102
{ACAD_REACTORS
330
1A
102
}
330
1A
100
AcDbPlotSettings
  1

  2
none_device
  4

  6

 40
0.0
 41
0.0
 42
0.0
 43
0.0
 44
0.0
 45
0.0
 46
0.0
 47
0.0
 48
0.0
 49
0.0
140
0.0
141
0.0
142
1.0
143
1.0
 70
   688
 72
     1
 73
     0
 74
     5
  7

 75
    16
147
1.0
148
0.0
149
0.0
100
AcDbLayout
  1
Layout2
 70
     1
 71
     2
 10
0.0
 20
0.0
 11
0.0
 21
0.0
 12
0.0
 22
0.0
 32
0.0
 14
0.0
 24
0.0
 34
0.0
 15
0.0
 25
0.0
 35
0.0
146
0.0
 13
0.0
 23
0.0
 33
0.0
 16
1.0
 26
0.0
 36
0.0
 17
0.0
 27
1.0
 37
0.0
 76
     0
330
23
  0
LAYOUT
  5
22
102
{ACAD_REACTORS
330
1A
102
}
330
1A
100
AcDbPlotSettings
  1

  2
none_device
  4
ANSI_A_(11.00_x_8.50_Inches)
  6

 40
6.35
 41
19.05
 42
6.35000508
 43
19.05000254
 44
279.4
 45
215.9
 46
-5.8228327287
 47
53.2369609942
 48
0.0
 49
0.0
140
0.0
141
0.0
142
0.068490566
143
1.0
 70
  1696
 72
     0
 73
     0
 74
     0
  7

 75
     0
147
0.0179189148
148
-1300.4909072572
149
0.0
100
AcDbLayout
  1
Model
 70
     1
 71
     0
 10
0.0
 20
0.0
 11
420.0
 21
297.0
 12
0.0
 22
0.0
 32
0.0
 14
0.5
 24
0.0
 34
0.0
 15
159.5
 25
41.0
 35
0.0
146
0.0
 13
0.0
 23
0.0
 33
0.0
 16
1.0
 26
0.0
 36
0.0
 17
0.0
 27
1.0
 37
0.0
 76
     0
330
1F
331
29
  0
MLINESTYLE
  5
18
102
{ACAD_REACTORS
330
17
102
}
330
17
100
AcDbMlineStyle
  2
Standard
 70
     0
  3

 62
   256
 51
90.0
 52
90.0
 71
     2
 49
0.5
 62
   256
  6
BYLAYER
 49
-0.5
 62
   256
  6
BYLAYER
  0
ACDBPLACEHOLDER
  5
F
102
{ACAD_REACTORS
330
E
102
}
330
E
  0
SCALE
  5
48
102
{ACAD_REACTORS
330
47
102
}
330
47
100
AcDbScale
 70
     0
300
1:1
140
1.0
141
1.0
290
     1
  0
SCALE
  5
49
102
{ACAD_REACTORS
330
47
102
}
330
47
100
AcDbScale
 70
     0
300
1:2
140
1.0
141
2.0
290
     0
  0
SCALE
  5
4A
102
{ACAD_REACTORS
330
47
102
}
330
47
100
AcDbScale
 70
     0
300
1:4
140
1.0
141
4.0
290
     0
  0
SCALE
  5
4B
102
{ACAD_REACTORS
330
47
102
}
330
47
100
AcDbScale
 70
     0
300
1:5
140
1.0
141
5.0
290
     0
  0
SCALE
  5
4C
102
{ACAD_REACTORS
330
47
102
}
330
47
100
AcDbScale
 70
     0
300
1:8
140
1.0
141
8.0
290
     0
  0
SCALE
  5
4D
102
{ACAD_REACTORS
330
47
102
}
330
47
100
AcDbScale
 70
     0
300
1:10
140
1.0
141
10.0
290
     0
  0
SCALE
  5
4E
102
{ACAD_REACTORS
330
47
102
}
330
47
100
AcDbScale
 70
     0
300
1:16
140
1.0
141
16.0
290
     0
  0
SCALE
  5
4F
102
{ACAD_REACTORS
330
47
102
}
330
47
100
AcDbScale
 70
     0
300
1:20
140
1.0
141
20.0
290
     0
  0
SCALE
  5
50
102
{ACAD_REACTORS
330
47
102
}
330
47
100
AcDbScale
 70
     0
300
1:30
140
1.0
141
30.0
290
     0
  0
SCALE
  5
51
102
{ACAD_REACTORS
330
47
102
}
330
47
100
AcDbScale
 70
     0
300
1:40
140
1.0
141
40.0
290
     0
  0
SCALE
  5
52
102
{ACAD_REACTORS
330
47
102
}
330
47
100
AcDbScale
 70
     0
300
1:50
140
1.0
141
50.0
290
     0
  0
SCALE
  5
53
102
{ACAD_REACTORS
330
47
102
}
330
47
100
AcDbScale
 70
     0
300
1:100
140
1.0
141
100.0
290
     0
  0
SCALE
  5
54
102
{ACAD_REACTORS
330
47
102
}
330
47
100
AcDbScale
 70
     0
300
2:1
140
2.0
141
1.0
290
     0
  0
SCALE
  5
55
102
{ACAD_REACTORS
330
47
102
}
330
47
100
AcDbScale
 70
     0
300
4:1
140
4.0
141
1.0
290
     0
  0
SCALE
  5
56
102
{ACAD_REACTORS
330
47
102
}
330
47
100
AcDbScale
 70
     0
300
8:1
140
8.0
141
1.0
290
     0
  0
SCALE
  5
57
102
{ACAD_REACTORS
330
47
102
}
330
47
100
AcDbScale
 70
     0
300
10:1
140
10.0
141
1.0
290
     0
  0
SCALE
  5
58
102
{ACAD_REACTORS
330
47
102
}
330
47
100
AcDbScale
 70
     0
300
100:1
140
100.0
141
1.0
290
     0
  0
SCALE
  5
59
102
{ACAD_REACTORS
330
47
102
}
330
47
100
AcDbScale
 70
     0
300
1/128" = 1'-0"
140
0.0078125
141
12.0
290
     0
  0
SCALE
  5
5A
102
{ACAD_REACTORS
330
47
102
}
330
47
100
AcDbScale
 70
     0
300
1/64" = 1'-0"
140
0.015625
141
12.0
290
     0
  0
SCALE
  5
5B
102
{ACAD_REACTORS
330
47
102
}
330
47
100
AcDbScale
 70
     0
300
1/32" = 1'-0"
140
0.03125
141
12.0
290
     0
  0
SCALE
  5
5C
102
{ACAD_REACTORS
330
47
102
}
330
47
100
AcDbScale
 70
     0
300
1/16" = 1'-0"
140
0.0625
141
12.0
290
     0
  0
SCALE
  5
5D
102
{ACAD_REACTORS
330
47
102
}
330
47
100
AcDbScale
 70
     0
300
3/32" = 1'-0"
140
0.09375
141
12.0
290
     0
  0
SCALE
  5
5E
102
{ACAD_REACTORS
330
47
102
}
330
47
100
AcDbScale
 70
     0
300
1/8" = 1'-0"
140
0.125
141
12.0
290
     0
  0
SCALE
  5
5F
102
{ACAD_REACTORS
330
47
102
}
330
47
100
AcDbScale
 70
     0
300
3/16" = 1'-0"
140
0.1875
141
12.0
290
     0
  0
SCALE
  5
60
102
{ACAD_REACTORS
330
47
102
}
330
47
100
AcDbScale
 70
     0
300
1/4" = 1'-0"
140
0.25
141
12.0
290
     0
  0
SCALE
  5
61
102
{ACAD_REACTORS
330
47
102
}
330
47
100
AcDbScale
 70
     0
300
3/8" = 1'-0"
140
0.375
141
12.0
290
     0
  0
SCALE
  5
62
102
{ACAD_REACTORS
330
47
102
}
330
47
100
AcDbScale
 70
     0
300
1/2" = 1'-0"
140
0.5
141
12.0
290
     0
  0
SCALE
  5
63
102
{ACAD_REACTORS
330
47
102
}
330
47
100
AcDbScale
 70
     0
300
3/4" = 1'-0"
140
0.75
141
12.0
290
     0
  0
SCALE
  5
64
102
{ACAD_REACTORS
330
47
102
}
330
47
100
AcDbScale
 70
     0
300
1" = 1'-0"
140
1.0
141
12.0
290
     0
  0
SCALE
  5
65
102
{ACAD_REACTORS
330
47
102
}
330
47
100
AcDbScale
 70
     0
300
1-1/2" = 1'-0"
140
1.5
141
12.0
290
     0
  0
SCALE
  5
66
102
{ACAD_REACTORS
330
47
102
}
330
47
100
AcDbScale
 70
     0
300
3" = 1'-0"
140
3.0
141
12.0
290
     0
  0
SCALE
  5
67
102
{ACAD_REACTORS
330
47
102
}
330
47
100
AcDbScale
 70
     0
300
6" = 1'-0"
140
6.0
141
12.0
290
     0
  0
SCALE
  5
68
102
{ACAD_REACTORS
330
47
102
}
330
47
100
AcDbScale
 70
     0
300
1'-0" = 1'-0"
140
12.0
141
12.0
290
     0
  0
ENDSEC
  0
EOF
